%TF.GenerationSoftware,KiCad,Pcbnew,7.0.11+dfsg-1build4*%
%TF.CreationDate,2026-06-05T21:14:13+02:00*%
%TF.ProjectId,V6,56362e6b-6963-4616-945f-706362585858,rev?*%
%TF.SameCoordinates,Original*%
%TF.FileFunction,Soldermask,Bot*%
%TF.FilePolarity,Negative*%
%FSLAX46Y46*%
G04 Gerber Fmt 4.6, Leading zero omitted, Abs format (unit mm)*
G04 Created by KiCad (PCBNEW 7.0.11+dfsg-1build4) date 2026-06-05 21:14:13*
%MOMM*%
%LPD*%
G01*
G04 APERTURE LIST*
%ADD10R,1.700000X1.700000*%
%ADD11O,1.700000X1.700000*%
%ADD12C,1.600000*%
%ADD13O,1.600000X1.600000*%
%ADD14C,1.712000*%
%ADD15C,2.400000*%
%ADD16O,2.400000X2.400000*%
%ADD17R,1.524000X1.524000*%
%ADD18C,1.524000*%
G04 APERTURE END LIST*
D10*
%TO.C,J2*%
X169555000Y-88390000D03*
D11*
X167015000Y-88390000D03*
%TD*%
D12*
%TO.C,R8*%
X176840000Y-93790000D03*
D13*
X187000000Y-93790000D03*
%TD*%
D12*
%TO.C,R11*%
X230500000Y-141260000D03*
D13*
X230500000Y-131100000D03*
%TD*%
D10*
%TO.C,J3*%
X169420000Y-93790000D03*
D11*
X166880000Y-93790000D03*
%TD*%
D12*
%TO.C,R12*%
X175810000Y-111010000D03*
D13*
X185970000Y-111010000D03*
%TD*%
D12*
%TO.C,BT4*%
X228900000Y-70140000D03*
D13*
X233980000Y-70140000D03*
%TD*%
D10*
%TO.C,J45*%
X169745000Y-140020000D03*
D11*
X167205000Y-140020000D03*
%TD*%
D12*
%TO.C,R10*%
X176600000Y-105170000D03*
D13*
X186760000Y-105170000D03*
%TD*%
D12*
%TO.C,BT3*%
X229045000Y-64160000D03*
D13*
X234125000Y-64160000D03*
%TD*%
D10*
%TO.C,D1*%
X230370000Y-112795000D03*
D11*
X230370000Y-115335000D03*
%TD*%
D10*
%TO.C,J1*%
X199030000Y-27990000D03*
D11*
X201570000Y-27990000D03*
X204110000Y-27990000D03*
X206650000Y-27990000D03*
X209190000Y-27990000D03*
%TD*%
D12*
%TO.C,BT1*%
X170560000Y-71560000D03*
D13*
X165480000Y-71560000D03*
%TD*%
D14*
%TO.C,U1*%
X227990000Y-35340000D03*
X227990000Y-32800000D03*
X227990000Y-30260000D03*
%TD*%
D12*
%TO.C,R1*%
X230490000Y-98535000D03*
D13*
X230490000Y-108695000D03*
%TD*%
D10*
%TO.C,D3*%
X230400000Y-126145000D03*
D11*
X230400000Y-123605000D03*
%TD*%
D10*
%TO.C,J6*%
X169335000Y-111220000D03*
D11*
X166795000Y-111220000D03*
%TD*%
D12*
%TO.C,R33*%
X176360000Y-139840000D03*
D13*
X186520000Y-139840000D03*
%TD*%
D12*
%TO.C,BT8*%
X170676200Y-55100000D03*
D13*
X165596200Y-55100000D03*
%TD*%
D10*
%TO.C,J5*%
X169425000Y-105370000D03*
D11*
X166885000Y-105370000D03*
%TD*%
D15*
%TO.C,R3*%
X167060000Y-33670000D03*
D16*
X187380000Y-33670000D03*
%TD*%
D12*
%TO.C,R7*%
X177160000Y-87980000D03*
D13*
X187320000Y-87980000D03*
%TD*%
D12*
%TO.C,R4*%
X175890000Y-117020000D03*
D13*
X186050000Y-117020000D03*
%TD*%
D12*
%TO.C,R32*%
X176440000Y-134630000D03*
D13*
X186600000Y-134630000D03*
%TD*%
D17*
%TO.C,U6*%
X195100000Y-92110000D03*
D18*
X195100000Y-94650000D03*
X195100000Y-97190000D03*
X195100000Y-99730000D03*
X195100000Y-102270000D03*
X195100000Y-104810000D03*
X195100000Y-107350000D03*
X195100000Y-109890000D03*
X195100000Y-112430000D03*
X195100000Y-114970000D03*
X195100000Y-117510000D03*
X195100000Y-120050000D03*
X195100000Y-122590000D03*
X195100000Y-125130000D03*
X195100000Y-127670000D03*
X220500000Y-127670000D03*
X220500000Y-125130000D03*
X220500000Y-122590000D03*
X220500000Y-120050000D03*
X220500000Y-117510000D03*
X220500000Y-114970000D03*
X220500000Y-112430000D03*
X220500000Y-109890000D03*
X220500000Y-107350000D03*
X220500000Y-104810000D03*
X220500000Y-102270000D03*
X220500000Y-99730000D03*
X220500000Y-97190000D03*
X220500000Y-94650000D03*
X220500000Y-92110000D03*
%TD*%
D12*
%TO.C,BT5*%
X229070000Y-50130000D03*
D13*
X234150000Y-50130000D03*
%TD*%
D12*
%TO.C,R2*%
X187340000Y-27820000D03*
D13*
X167020000Y-27820000D03*
%TD*%
D10*
%TO.C,J7*%
X223505000Y-42510000D03*
D11*
X226045000Y-42510000D03*
%TD*%
D12*
%TO.C,R31*%
X176440000Y-129180000D03*
D13*
X186600000Y-129180000D03*
%TD*%
D12*
%TO.C,BT9*%
X170796200Y-50370000D03*
D13*
X165716200Y-50370000D03*
%TD*%
D12*
%TO.C,BT6*%
X170556200Y-65870000D03*
D13*
X165476200Y-65870000D03*
%TD*%
D12*
%TO.C,R6*%
X179240000Y-83010000D03*
D13*
X189400000Y-83010000D03*
%TD*%
D12*
%TO.C,R9*%
X176600000Y-99320000D03*
D13*
X186760000Y-99320000D03*
%TD*%
D12*
%TO.C,R30*%
X176280000Y-123020000D03*
D13*
X186440000Y-123020000D03*
%TD*%
D12*
%TO.C,R5*%
X165590000Y-83020000D03*
D13*
X175750000Y-83020000D03*
%TD*%
D12*
%TO.C,BT10*%
X170795000Y-45720000D03*
D13*
X165715000Y-45720000D03*
%TD*%
D10*
%TO.C,J4*%
X169420000Y-99460000D03*
D11*
X166880000Y-99460000D03*
%TD*%
D12*
%TO.C,BT7*%
X170716200Y-60190000D03*
D13*
X165636200Y-60190000D03*
%TD*%
D12*
%TO.C,R14*%
X230470000Y-81340000D03*
D13*
X230470000Y-91500000D03*
%TD*%
D10*
%TO.C,J41*%
X169605000Y-117210000D03*
D11*
X167065000Y-117210000D03*
%TD*%
D10*
%TO.C,J39*%
X225220000Y-137340000D03*
D11*
X225220000Y-134800000D03*
%TD*%
D10*
%TO.C,J44*%
X169605000Y-134850000D03*
D11*
X167065000Y-134850000D03*
%TD*%
D10*
%TO.C,J42*%
X169515000Y-122970000D03*
D11*
X166975000Y-122970000D03*
%TD*%
D12*
%TO.C,BT2*%
X229070000Y-58450000D03*
D13*
X234150000Y-58450000D03*
%TD*%
D10*
%TO.C,J43*%
X170030000Y-129130000D03*
D11*
X167490000Y-129130000D03*
%TD*%
D12*
%TO.C,C1*%
X211585000Y-41910000D03*
D13*
X216665000Y-41910000D03*
%TD*%
D12*
%TO.C,R13*%
X227290000Y-81310000D03*
D13*
X227290000Y-91470000D03*
%TD*%
M02*
