%TF.GenerationSoftware,KiCad,Pcbnew,7.0.11+dfsg-1build4*%
%TF.CreationDate,2026-06-05T21:14:13+02:00*%
%TF.ProjectId,V6,56362e6b-6963-4616-945f-706362585858,rev?*%
%TF.SameCoordinates,Original*%
%TF.FileFunction,Legend,Top*%
%TF.FilePolarity,Positive*%
%FSLAX46Y46*%
G04 Gerber Fmt 4.6, Leading zero omitted, Abs format (unit mm)*
G04 Created by KiCad (PCBNEW 7.0.11+dfsg-1build4) date 2026-06-05 21:14:13*
%MOMM*%
%LPD*%
G01*
G04 APERTURE LIST*
%ADD10C,0.150000*%
%ADD11C,0.120000*%
%ADD12C,0.152400*%
%ADD13C,0.200000*%
%ADD14C,0.400000*%
%ADD15C,1.000000*%
%ADD16C,0.800000*%
%ADD17C,0.250000*%
G04 APERTURE END LIST*
D10*
X181753333Y-91874819D02*
X181420000Y-91398628D01*
X181181905Y-91874819D02*
X181181905Y-90874819D01*
X181181905Y-90874819D02*
X181562857Y-90874819D01*
X181562857Y-90874819D02*
X181658095Y-90922438D01*
X181658095Y-90922438D02*
X181705714Y-90970057D01*
X181705714Y-90970057D02*
X181753333Y-91065295D01*
X181753333Y-91065295D02*
X181753333Y-91208152D01*
X181753333Y-91208152D02*
X181705714Y-91303390D01*
X181705714Y-91303390D02*
X181658095Y-91351009D01*
X181658095Y-91351009D02*
X181562857Y-91398628D01*
X181562857Y-91398628D02*
X181181905Y-91398628D01*
X182324762Y-91303390D02*
X182229524Y-91255771D01*
X182229524Y-91255771D02*
X182181905Y-91208152D01*
X182181905Y-91208152D02*
X182134286Y-91112914D01*
X182134286Y-91112914D02*
X182134286Y-91065295D01*
X182134286Y-91065295D02*
X182181905Y-90970057D01*
X182181905Y-90970057D02*
X182229524Y-90922438D01*
X182229524Y-90922438D02*
X182324762Y-90874819D01*
X182324762Y-90874819D02*
X182515238Y-90874819D01*
X182515238Y-90874819D02*
X182610476Y-90922438D01*
X182610476Y-90922438D02*
X182658095Y-90970057D01*
X182658095Y-90970057D02*
X182705714Y-91065295D01*
X182705714Y-91065295D02*
X182705714Y-91112914D01*
X182705714Y-91112914D02*
X182658095Y-91208152D01*
X182658095Y-91208152D02*
X182610476Y-91255771D01*
X182610476Y-91255771D02*
X182515238Y-91303390D01*
X182515238Y-91303390D02*
X182324762Y-91303390D01*
X182324762Y-91303390D02*
X182229524Y-91351009D01*
X182229524Y-91351009D02*
X182181905Y-91398628D01*
X182181905Y-91398628D02*
X182134286Y-91493866D01*
X182134286Y-91493866D02*
X182134286Y-91684342D01*
X182134286Y-91684342D02*
X182181905Y-91779580D01*
X182181905Y-91779580D02*
X182229524Y-91827200D01*
X182229524Y-91827200D02*
X182324762Y-91874819D01*
X182324762Y-91874819D02*
X182515238Y-91874819D01*
X182515238Y-91874819D02*
X182610476Y-91827200D01*
X182610476Y-91827200D02*
X182658095Y-91779580D01*
X182658095Y-91779580D02*
X182705714Y-91684342D01*
X182705714Y-91684342D02*
X182705714Y-91493866D01*
X182705714Y-91493866D02*
X182658095Y-91398628D01*
X182658095Y-91398628D02*
X182610476Y-91351009D01*
X182610476Y-91351009D02*
X182515238Y-91303390D01*
X228584819Y-136822857D02*
X228108628Y-137156190D01*
X228584819Y-137394285D02*
X227584819Y-137394285D01*
X227584819Y-137394285D02*
X227584819Y-137013333D01*
X227584819Y-137013333D02*
X227632438Y-136918095D01*
X227632438Y-136918095D02*
X227680057Y-136870476D01*
X227680057Y-136870476D02*
X227775295Y-136822857D01*
X227775295Y-136822857D02*
X227918152Y-136822857D01*
X227918152Y-136822857D02*
X228013390Y-136870476D01*
X228013390Y-136870476D02*
X228061009Y-136918095D01*
X228061009Y-136918095D02*
X228108628Y-137013333D01*
X228108628Y-137013333D02*
X228108628Y-137394285D01*
X228584819Y-135870476D02*
X228584819Y-136441904D01*
X228584819Y-136156190D02*
X227584819Y-136156190D01*
X227584819Y-136156190D02*
X227727676Y-136251428D01*
X227727676Y-136251428D02*
X227822914Y-136346666D01*
X227822914Y-136346666D02*
X227870533Y-136441904D01*
X228584819Y-134918095D02*
X228584819Y-135489523D01*
X228584819Y-135203809D02*
X227584819Y-135203809D01*
X227584819Y-135203809D02*
X227727676Y-135299047D01*
X227727676Y-135299047D02*
X227822914Y-135394285D01*
X227822914Y-135394285D02*
X227870533Y-135489523D01*
X181460200Y-47026619D02*
X181460200Y-47264714D01*
X181222105Y-47169476D02*
X181460200Y-47264714D01*
X181460200Y-47264714D02*
X181698295Y-47169476D01*
X181317343Y-47455190D02*
X181460200Y-47264714D01*
X181460200Y-47264714D02*
X181603057Y-47455190D01*
X180247142Y-109094819D02*
X179913809Y-108618628D01*
X179675714Y-109094819D02*
X179675714Y-108094819D01*
X179675714Y-108094819D02*
X180056666Y-108094819D01*
X180056666Y-108094819D02*
X180151904Y-108142438D01*
X180151904Y-108142438D02*
X180199523Y-108190057D01*
X180199523Y-108190057D02*
X180247142Y-108285295D01*
X180247142Y-108285295D02*
X180247142Y-108428152D01*
X180247142Y-108428152D02*
X180199523Y-108523390D01*
X180199523Y-108523390D02*
X180151904Y-108571009D01*
X180151904Y-108571009D02*
X180056666Y-108618628D01*
X180056666Y-108618628D02*
X179675714Y-108618628D01*
X181199523Y-109094819D02*
X180628095Y-109094819D01*
X180913809Y-109094819D02*
X180913809Y-108094819D01*
X180913809Y-108094819D02*
X180818571Y-108237676D01*
X180818571Y-108237676D02*
X180723333Y-108332914D01*
X180723333Y-108332914D02*
X180628095Y-108380533D01*
X181580476Y-108190057D02*
X181628095Y-108142438D01*
X181628095Y-108142438D02*
X181723333Y-108094819D01*
X181723333Y-108094819D02*
X181961428Y-108094819D01*
X181961428Y-108094819D02*
X182056666Y-108142438D01*
X182056666Y-108142438D02*
X182104285Y-108190057D01*
X182104285Y-108190057D02*
X182151904Y-108285295D01*
X182151904Y-108285295D02*
X182151904Y-108380533D01*
X182151904Y-108380533D02*
X182104285Y-108523390D01*
X182104285Y-108523390D02*
X181532857Y-109094819D01*
X181532857Y-109094819D02*
X182151904Y-109094819D01*
X181037142Y-103254819D02*
X180703809Y-102778628D01*
X180465714Y-103254819D02*
X180465714Y-102254819D01*
X180465714Y-102254819D02*
X180846666Y-102254819D01*
X180846666Y-102254819D02*
X180941904Y-102302438D01*
X180941904Y-102302438D02*
X180989523Y-102350057D01*
X180989523Y-102350057D02*
X181037142Y-102445295D01*
X181037142Y-102445295D02*
X181037142Y-102588152D01*
X181037142Y-102588152D02*
X180989523Y-102683390D01*
X180989523Y-102683390D02*
X180941904Y-102731009D01*
X180941904Y-102731009D02*
X180846666Y-102778628D01*
X180846666Y-102778628D02*
X180465714Y-102778628D01*
X181989523Y-103254819D02*
X181418095Y-103254819D01*
X181703809Y-103254819D02*
X181703809Y-102254819D01*
X181703809Y-102254819D02*
X181608571Y-102397676D01*
X181608571Y-102397676D02*
X181513333Y-102492914D01*
X181513333Y-102492914D02*
X181418095Y-102540533D01*
X182608571Y-102254819D02*
X182703809Y-102254819D01*
X182703809Y-102254819D02*
X182799047Y-102302438D01*
X182799047Y-102302438D02*
X182846666Y-102350057D01*
X182846666Y-102350057D02*
X182894285Y-102445295D01*
X182894285Y-102445295D02*
X182941904Y-102635771D01*
X182941904Y-102635771D02*
X182941904Y-102873866D01*
X182941904Y-102873866D02*
X182894285Y-103064342D01*
X182894285Y-103064342D02*
X182846666Y-103159580D01*
X182846666Y-103159580D02*
X182799047Y-103207200D01*
X182799047Y-103207200D02*
X182703809Y-103254819D01*
X182703809Y-103254819D02*
X182608571Y-103254819D01*
X182608571Y-103254819D02*
X182513333Y-103207200D01*
X182513333Y-103207200D02*
X182465714Y-103159580D01*
X182465714Y-103159580D02*
X182418095Y-103064342D01*
X182418095Y-103064342D02*
X182370476Y-102873866D01*
X182370476Y-102873866D02*
X182370476Y-102635771D01*
X182370476Y-102635771D02*
X182418095Y-102445295D01*
X182418095Y-102445295D02*
X182465714Y-102350057D01*
X182465714Y-102350057D02*
X182513333Y-102302438D01*
X182513333Y-102302438D02*
X182608571Y-102254819D01*
X219371905Y-48904819D02*
X219371905Y-49714342D01*
X219371905Y-49714342D02*
X219419524Y-49809580D01*
X219419524Y-49809580D02*
X219467143Y-49857200D01*
X219467143Y-49857200D02*
X219562381Y-49904819D01*
X219562381Y-49904819D02*
X219752857Y-49904819D01*
X219752857Y-49904819D02*
X219848095Y-49857200D01*
X219848095Y-49857200D02*
X219895714Y-49809580D01*
X219895714Y-49809580D02*
X219943333Y-49714342D01*
X219943333Y-49714342D02*
X219943333Y-48904819D01*
X220943333Y-49904819D02*
X220371905Y-49904819D01*
X220657619Y-49904819D02*
X220657619Y-48904819D01*
X220657619Y-48904819D02*
X220562381Y-49047676D01*
X220562381Y-49047676D02*
X220467143Y-49142914D01*
X220467143Y-49142914D02*
X220371905Y-49190533D01*
X221848095Y-48904819D02*
X221371905Y-48904819D01*
X221371905Y-48904819D02*
X221324286Y-49381009D01*
X221324286Y-49381009D02*
X221371905Y-49333390D01*
X221371905Y-49333390D02*
X221467143Y-49285771D01*
X221467143Y-49285771D02*
X221705238Y-49285771D01*
X221705238Y-49285771D02*
X221800476Y-49333390D01*
X221800476Y-49333390D02*
X221848095Y-49381009D01*
X221848095Y-49381009D02*
X221895714Y-49476247D01*
X221895714Y-49476247D02*
X221895714Y-49714342D01*
X221895714Y-49714342D02*
X221848095Y-49809580D01*
X221848095Y-49809580D02*
X221800476Y-49857200D01*
X221800476Y-49857200D02*
X221705238Y-49904819D01*
X221705238Y-49904819D02*
X221467143Y-49904819D01*
X221467143Y-49904819D02*
X221371905Y-49857200D01*
X221371905Y-49857200D02*
X221324286Y-49809580D01*
X217352900Y-46013019D02*
X217352900Y-46251114D01*
X217114805Y-46155876D02*
X217352900Y-46251114D01*
X217352900Y-46251114D02*
X217590995Y-46155876D01*
X217210043Y-46441590D02*
X217352900Y-46251114D01*
X217352900Y-46251114D02*
X217495757Y-46441590D01*
X196154819Y-28323333D02*
X196869104Y-28323333D01*
X196869104Y-28323333D02*
X197011961Y-28370952D01*
X197011961Y-28370952D02*
X197107200Y-28466190D01*
X197107200Y-28466190D02*
X197154819Y-28609047D01*
X197154819Y-28609047D02*
X197154819Y-28704285D01*
X197154819Y-27323333D02*
X197154819Y-27894761D01*
X197154819Y-27609047D02*
X196154819Y-27609047D01*
X196154819Y-27609047D02*
X196297676Y-27704285D01*
X196297676Y-27704285D02*
X196392914Y-27799523D01*
X196392914Y-27799523D02*
X196440533Y-27894761D01*
X181627100Y-74606619D02*
X181627100Y-74844714D01*
X181389005Y-74749476D02*
X181627100Y-74844714D01*
X181627100Y-74844714D02*
X181865195Y-74749476D01*
X181484243Y-75035190D02*
X181627100Y-74844714D01*
X181627100Y-74844714D02*
X181769957Y-75035190D01*
X233314819Y-103781666D02*
X232838628Y-104114999D01*
X233314819Y-104353094D02*
X232314819Y-104353094D01*
X232314819Y-104353094D02*
X232314819Y-103972142D01*
X232314819Y-103972142D02*
X232362438Y-103876904D01*
X232362438Y-103876904D02*
X232410057Y-103829285D01*
X232410057Y-103829285D02*
X232505295Y-103781666D01*
X232505295Y-103781666D02*
X232648152Y-103781666D01*
X232648152Y-103781666D02*
X232743390Y-103829285D01*
X232743390Y-103829285D02*
X232791009Y-103876904D01*
X232791009Y-103876904D02*
X232838628Y-103972142D01*
X232838628Y-103972142D02*
X232838628Y-104353094D01*
X233314819Y-102829285D02*
X233314819Y-103400713D01*
X233314819Y-103114999D02*
X232314819Y-103114999D01*
X232314819Y-103114999D02*
X232457676Y-103210237D01*
X232457676Y-103210237D02*
X232552914Y-103305475D01*
X232552914Y-103305475D02*
X232600533Y-103400713D01*
X180797142Y-137924819D02*
X180463809Y-137448628D01*
X180225714Y-137924819D02*
X180225714Y-136924819D01*
X180225714Y-136924819D02*
X180606666Y-136924819D01*
X180606666Y-136924819D02*
X180701904Y-136972438D01*
X180701904Y-136972438D02*
X180749523Y-137020057D01*
X180749523Y-137020057D02*
X180797142Y-137115295D01*
X180797142Y-137115295D02*
X180797142Y-137258152D01*
X180797142Y-137258152D02*
X180749523Y-137353390D01*
X180749523Y-137353390D02*
X180701904Y-137401009D01*
X180701904Y-137401009D02*
X180606666Y-137448628D01*
X180606666Y-137448628D02*
X180225714Y-137448628D01*
X181130476Y-136924819D02*
X181749523Y-136924819D01*
X181749523Y-136924819D02*
X181416190Y-137305771D01*
X181416190Y-137305771D02*
X181559047Y-137305771D01*
X181559047Y-137305771D02*
X181654285Y-137353390D01*
X181654285Y-137353390D02*
X181701904Y-137401009D01*
X181701904Y-137401009D02*
X181749523Y-137496247D01*
X181749523Y-137496247D02*
X181749523Y-137734342D01*
X181749523Y-137734342D02*
X181701904Y-137829580D01*
X181701904Y-137829580D02*
X181654285Y-137877200D01*
X181654285Y-137877200D02*
X181559047Y-137924819D01*
X181559047Y-137924819D02*
X181273333Y-137924819D01*
X181273333Y-137924819D02*
X181178095Y-137877200D01*
X181178095Y-137877200D02*
X181130476Y-137829580D01*
X182082857Y-136924819D02*
X182701904Y-136924819D01*
X182701904Y-136924819D02*
X182368571Y-137305771D01*
X182368571Y-137305771D02*
X182511428Y-137305771D01*
X182511428Y-137305771D02*
X182606666Y-137353390D01*
X182606666Y-137353390D02*
X182654285Y-137401009D01*
X182654285Y-137401009D02*
X182701904Y-137496247D01*
X182701904Y-137496247D02*
X182701904Y-137734342D01*
X182701904Y-137734342D02*
X182654285Y-137829580D01*
X182654285Y-137829580D02*
X182606666Y-137877200D01*
X182606666Y-137877200D02*
X182511428Y-137924819D01*
X182511428Y-137924819D02*
X182225714Y-137924819D01*
X182225714Y-137924819D02*
X182130476Y-137877200D01*
X182130476Y-137877200D02*
X182082857Y-137829580D01*
X181464000Y-52586619D02*
X181464000Y-52824714D01*
X181225905Y-52729476D02*
X181464000Y-52824714D01*
X181464000Y-52824714D02*
X181702095Y-52729476D01*
X181321143Y-53015190D02*
X181464000Y-52824714D01*
X181464000Y-52824714D02*
X181606857Y-53015190D01*
X182073333Y-86064819D02*
X181740000Y-85588628D01*
X181501905Y-86064819D02*
X181501905Y-85064819D01*
X181501905Y-85064819D02*
X181882857Y-85064819D01*
X181882857Y-85064819D02*
X181978095Y-85112438D01*
X181978095Y-85112438D02*
X182025714Y-85160057D01*
X182025714Y-85160057D02*
X182073333Y-85255295D01*
X182073333Y-85255295D02*
X182073333Y-85398152D01*
X182073333Y-85398152D02*
X182025714Y-85493390D01*
X182025714Y-85493390D02*
X181978095Y-85541009D01*
X181978095Y-85541009D02*
X181882857Y-85588628D01*
X181882857Y-85588628D02*
X181501905Y-85588628D01*
X182406667Y-85064819D02*
X183073333Y-85064819D01*
X183073333Y-85064819D02*
X182644762Y-86064819D01*
X180803333Y-115104819D02*
X180470000Y-114628628D01*
X180231905Y-115104819D02*
X180231905Y-114104819D01*
X180231905Y-114104819D02*
X180612857Y-114104819D01*
X180612857Y-114104819D02*
X180708095Y-114152438D01*
X180708095Y-114152438D02*
X180755714Y-114200057D01*
X180755714Y-114200057D02*
X180803333Y-114295295D01*
X180803333Y-114295295D02*
X180803333Y-114438152D01*
X180803333Y-114438152D02*
X180755714Y-114533390D01*
X180755714Y-114533390D02*
X180708095Y-114581009D01*
X180708095Y-114581009D02*
X180612857Y-114628628D01*
X180612857Y-114628628D02*
X180231905Y-114628628D01*
X181660476Y-114438152D02*
X181660476Y-115104819D01*
X181422381Y-114057200D02*
X181184286Y-114771485D01*
X181184286Y-114771485D02*
X181803333Y-114771485D01*
X180877142Y-132714819D02*
X180543809Y-132238628D01*
X180305714Y-132714819D02*
X180305714Y-131714819D01*
X180305714Y-131714819D02*
X180686666Y-131714819D01*
X180686666Y-131714819D02*
X180781904Y-131762438D01*
X180781904Y-131762438D02*
X180829523Y-131810057D01*
X180829523Y-131810057D02*
X180877142Y-131905295D01*
X180877142Y-131905295D02*
X180877142Y-132048152D01*
X180877142Y-132048152D02*
X180829523Y-132143390D01*
X180829523Y-132143390D02*
X180781904Y-132191009D01*
X180781904Y-132191009D02*
X180686666Y-132238628D01*
X180686666Y-132238628D02*
X180305714Y-132238628D01*
X181210476Y-131714819D02*
X181829523Y-131714819D01*
X181829523Y-131714819D02*
X181496190Y-132095771D01*
X181496190Y-132095771D02*
X181639047Y-132095771D01*
X181639047Y-132095771D02*
X181734285Y-132143390D01*
X181734285Y-132143390D02*
X181781904Y-132191009D01*
X181781904Y-132191009D02*
X181829523Y-132286247D01*
X181829523Y-132286247D02*
X181829523Y-132524342D01*
X181829523Y-132524342D02*
X181781904Y-132619580D01*
X181781904Y-132619580D02*
X181734285Y-132667200D01*
X181734285Y-132667200D02*
X181639047Y-132714819D01*
X181639047Y-132714819D02*
X181353333Y-132714819D01*
X181353333Y-132714819D02*
X181258095Y-132667200D01*
X181258095Y-132667200D02*
X181210476Y-132619580D01*
X182210476Y-131810057D02*
X182258095Y-131762438D01*
X182258095Y-131762438D02*
X182353333Y-131714819D01*
X182353333Y-131714819D02*
X182591428Y-131714819D01*
X182591428Y-131714819D02*
X182686666Y-131762438D01*
X182686666Y-131762438D02*
X182734285Y-131810057D01*
X182734285Y-131810057D02*
X182781904Y-131905295D01*
X182781904Y-131905295D02*
X182781904Y-132000533D01*
X182781904Y-132000533D02*
X182734285Y-132143390D01*
X182734285Y-132143390D02*
X182162857Y-132714819D01*
X182162857Y-132714819D02*
X182781904Y-132714819D01*
X207038095Y-102034819D02*
X207038095Y-102844342D01*
X207038095Y-102844342D02*
X207085714Y-102939580D01*
X207085714Y-102939580D02*
X207133333Y-102987200D01*
X207133333Y-102987200D02*
X207228571Y-103034819D01*
X207228571Y-103034819D02*
X207419047Y-103034819D01*
X207419047Y-103034819D02*
X207514285Y-102987200D01*
X207514285Y-102987200D02*
X207561904Y-102939580D01*
X207561904Y-102939580D02*
X207609523Y-102844342D01*
X207609523Y-102844342D02*
X207609523Y-102034819D01*
X208514285Y-102034819D02*
X208323809Y-102034819D01*
X208323809Y-102034819D02*
X208228571Y-102082438D01*
X208228571Y-102082438D02*
X208180952Y-102130057D01*
X208180952Y-102130057D02*
X208085714Y-102272914D01*
X208085714Y-102272914D02*
X208038095Y-102463390D01*
X208038095Y-102463390D02*
X208038095Y-102844342D01*
X208038095Y-102844342D02*
X208085714Y-102939580D01*
X208085714Y-102939580D02*
X208133333Y-102987200D01*
X208133333Y-102987200D02*
X208228571Y-103034819D01*
X208228571Y-103034819D02*
X208419047Y-103034819D01*
X208419047Y-103034819D02*
X208514285Y-102987200D01*
X208514285Y-102987200D02*
X208561904Y-102939580D01*
X208561904Y-102939580D02*
X208609523Y-102844342D01*
X208609523Y-102844342D02*
X208609523Y-102606247D01*
X208609523Y-102606247D02*
X208561904Y-102511009D01*
X208561904Y-102511009D02*
X208514285Y-102463390D01*
X208514285Y-102463390D02*
X208419047Y-102415771D01*
X208419047Y-102415771D02*
X208228571Y-102415771D01*
X208228571Y-102415771D02*
X208133333Y-102463390D01*
X208133333Y-102463390D02*
X208085714Y-102511009D01*
X208085714Y-102511009D02*
X208038095Y-102606247D01*
X214300952Y-131721009D02*
X214443809Y-131768628D01*
X214443809Y-131768628D02*
X214491428Y-131816247D01*
X214491428Y-131816247D02*
X214539047Y-131911485D01*
X214539047Y-131911485D02*
X214539047Y-132054342D01*
X214539047Y-132054342D02*
X214491428Y-132149580D01*
X214491428Y-132149580D02*
X214443809Y-132197200D01*
X214443809Y-132197200D02*
X214348571Y-132244819D01*
X214348571Y-132244819D02*
X213967619Y-132244819D01*
X213967619Y-132244819D02*
X213967619Y-131244819D01*
X213967619Y-131244819D02*
X214300952Y-131244819D01*
X214300952Y-131244819D02*
X214396190Y-131292438D01*
X214396190Y-131292438D02*
X214443809Y-131340057D01*
X214443809Y-131340057D02*
X214491428Y-131435295D01*
X214491428Y-131435295D02*
X214491428Y-131530533D01*
X214491428Y-131530533D02*
X214443809Y-131625771D01*
X214443809Y-131625771D02*
X214396190Y-131673390D01*
X214396190Y-131673390D02*
X214300952Y-131721009D01*
X214300952Y-131721009D02*
X213967619Y-131721009D01*
X215110476Y-132244819D02*
X215015238Y-132197200D01*
X215015238Y-132197200D02*
X214967619Y-132149580D01*
X214967619Y-132149580D02*
X214920000Y-132054342D01*
X214920000Y-132054342D02*
X214920000Y-131768628D01*
X214920000Y-131768628D02*
X214967619Y-131673390D01*
X214967619Y-131673390D02*
X215015238Y-131625771D01*
X215015238Y-131625771D02*
X215110476Y-131578152D01*
X215110476Y-131578152D02*
X215253333Y-131578152D01*
X215253333Y-131578152D02*
X215348571Y-131625771D01*
X215348571Y-131625771D02*
X215396190Y-131673390D01*
X215396190Y-131673390D02*
X215443809Y-131768628D01*
X215443809Y-131768628D02*
X215443809Y-132054342D01*
X215443809Y-132054342D02*
X215396190Y-132149580D01*
X215396190Y-132149580D02*
X215348571Y-132197200D01*
X215348571Y-132197200D02*
X215253333Y-132244819D01*
X215253333Y-132244819D02*
X215110476Y-132244819D01*
X216015238Y-132244819D02*
X215920000Y-132197200D01*
X215920000Y-132197200D02*
X215872381Y-132149580D01*
X215872381Y-132149580D02*
X215824762Y-132054342D01*
X215824762Y-132054342D02*
X215824762Y-131768628D01*
X215824762Y-131768628D02*
X215872381Y-131673390D01*
X215872381Y-131673390D02*
X215920000Y-131625771D01*
X215920000Y-131625771D02*
X216015238Y-131578152D01*
X216015238Y-131578152D02*
X216158095Y-131578152D01*
X216158095Y-131578152D02*
X216253333Y-131625771D01*
X216253333Y-131625771D02*
X216300952Y-131673390D01*
X216300952Y-131673390D02*
X216348571Y-131768628D01*
X216348571Y-131768628D02*
X216348571Y-132054342D01*
X216348571Y-132054342D02*
X216300952Y-132149580D01*
X216300952Y-132149580D02*
X216253333Y-132197200D01*
X216253333Y-132197200D02*
X216158095Y-132244819D01*
X216158095Y-132244819D02*
X216015238Y-132244819D01*
X216634286Y-131578152D02*
X217015238Y-131578152D01*
X216777143Y-131244819D02*
X216777143Y-132101961D01*
X216777143Y-132101961D02*
X216824762Y-132197200D01*
X216824762Y-132197200D02*
X216920000Y-132244819D01*
X216920000Y-132244819D02*
X217015238Y-132244819D01*
X206538095Y-135054819D02*
X206538095Y-135864342D01*
X206538095Y-135864342D02*
X206585714Y-135959580D01*
X206585714Y-135959580D02*
X206633333Y-136007200D01*
X206633333Y-136007200D02*
X206728571Y-136054819D01*
X206728571Y-136054819D02*
X206919047Y-136054819D01*
X206919047Y-136054819D02*
X207014285Y-136007200D01*
X207014285Y-136007200D02*
X207061904Y-135959580D01*
X207061904Y-135959580D02*
X207109523Y-135864342D01*
X207109523Y-135864342D02*
X207109523Y-135054819D01*
X207538095Y-136007200D02*
X207680952Y-136054819D01*
X207680952Y-136054819D02*
X207919047Y-136054819D01*
X207919047Y-136054819D02*
X208014285Y-136007200D01*
X208014285Y-136007200D02*
X208061904Y-135959580D01*
X208061904Y-135959580D02*
X208109523Y-135864342D01*
X208109523Y-135864342D02*
X208109523Y-135769104D01*
X208109523Y-135769104D02*
X208061904Y-135673866D01*
X208061904Y-135673866D02*
X208014285Y-135626247D01*
X208014285Y-135626247D02*
X207919047Y-135578628D01*
X207919047Y-135578628D02*
X207728571Y-135531009D01*
X207728571Y-135531009D02*
X207633333Y-135483390D01*
X207633333Y-135483390D02*
X207585714Y-135435771D01*
X207585714Y-135435771D02*
X207538095Y-135340533D01*
X207538095Y-135340533D02*
X207538095Y-135245295D01*
X207538095Y-135245295D02*
X207585714Y-135150057D01*
X207585714Y-135150057D02*
X207633333Y-135102438D01*
X207633333Y-135102438D02*
X207728571Y-135054819D01*
X207728571Y-135054819D02*
X207966666Y-135054819D01*
X207966666Y-135054819D02*
X208109523Y-135102438D01*
X208871428Y-135531009D02*
X209014285Y-135578628D01*
X209014285Y-135578628D02*
X209061904Y-135626247D01*
X209061904Y-135626247D02*
X209109523Y-135721485D01*
X209109523Y-135721485D02*
X209109523Y-135864342D01*
X209109523Y-135864342D02*
X209061904Y-135959580D01*
X209061904Y-135959580D02*
X209014285Y-136007200D01*
X209014285Y-136007200D02*
X208919047Y-136054819D01*
X208919047Y-136054819D02*
X208538095Y-136054819D01*
X208538095Y-136054819D02*
X208538095Y-135054819D01*
X208538095Y-135054819D02*
X208871428Y-135054819D01*
X208871428Y-135054819D02*
X208966666Y-135102438D01*
X208966666Y-135102438D02*
X209014285Y-135150057D01*
X209014285Y-135150057D02*
X209061904Y-135245295D01*
X209061904Y-135245295D02*
X209061904Y-135340533D01*
X209061904Y-135340533D02*
X209014285Y-135435771D01*
X209014285Y-135435771D02*
X208966666Y-135483390D01*
X208966666Y-135483390D02*
X208871428Y-135531009D01*
X208871428Y-135531009D02*
X208538095Y-135531009D01*
X197918095Y-131721009D02*
X198251428Y-131721009D01*
X198394285Y-132244819D02*
X197918095Y-132244819D01*
X197918095Y-132244819D02*
X197918095Y-131244819D01*
X197918095Y-131244819D02*
X198394285Y-131244819D01*
X198822857Y-131578152D02*
X198822857Y-132244819D01*
X198822857Y-131673390D02*
X198870476Y-131625771D01*
X198870476Y-131625771D02*
X198965714Y-131578152D01*
X198965714Y-131578152D02*
X199108571Y-131578152D01*
X199108571Y-131578152D02*
X199203809Y-131625771D01*
X199203809Y-131625771D02*
X199251428Y-131721009D01*
X199251428Y-131721009D02*
X199251428Y-132244819D01*
X200156190Y-132244819D02*
X200156190Y-131721009D01*
X200156190Y-131721009D02*
X200108571Y-131625771D01*
X200108571Y-131625771D02*
X200013333Y-131578152D01*
X200013333Y-131578152D02*
X199822857Y-131578152D01*
X199822857Y-131578152D02*
X199727619Y-131625771D01*
X200156190Y-132197200D02*
X200060952Y-132244819D01*
X200060952Y-132244819D02*
X199822857Y-132244819D01*
X199822857Y-132244819D02*
X199727619Y-132197200D01*
X199727619Y-132197200D02*
X199680000Y-132101961D01*
X199680000Y-132101961D02*
X199680000Y-132006723D01*
X199680000Y-132006723D02*
X199727619Y-131911485D01*
X199727619Y-131911485D02*
X199822857Y-131863866D01*
X199822857Y-131863866D02*
X200060952Y-131863866D01*
X200060952Y-131863866D02*
X200156190Y-131816247D01*
X200632381Y-132244819D02*
X200632381Y-131244819D01*
X200632381Y-131625771D02*
X200727619Y-131578152D01*
X200727619Y-131578152D02*
X200918095Y-131578152D01*
X200918095Y-131578152D02*
X201013333Y-131625771D01*
X201013333Y-131625771D02*
X201060952Y-131673390D01*
X201060952Y-131673390D02*
X201108571Y-131768628D01*
X201108571Y-131768628D02*
X201108571Y-132054342D01*
X201108571Y-132054342D02*
X201060952Y-132149580D01*
X201060952Y-132149580D02*
X201013333Y-132197200D01*
X201013333Y-132197200D02*
X200918095Y-132244819D01*
X200918095Y-132244819D02*
X200727619Y-132244819D01*
X200727619Y-132244819D02*
X200632381Y-132197200D01*
X201680000Y-132244819D02*
X201584762Y-132197200D01*
X201584762Y-132197200D02*
X201537143Y-132101961D01*
X201537143Y-132101961D02*
X201537143Y-131244819D01*
X202441905Y-132197200D02*
X202346667Y-132244819D01*
X202346667Y-132244819D02*
X202156191Y-132244819D01*
X202156191Y-132244819D02*
X202060953Y-132197200D01*
X202060953Y-132197200D02*
X202013334Y-132101961D01*
X202013334Y-132101961D02*
X202013334Y-131721009D01*
X202013334Y-131721009D02*
X202060953Y-131625771D01*
X202060953Y-131625771D02*
X202156191Y-131578152D01*
X202156191Y-131578152D02*
X202346667Y-131578152D01*
X202346667Y-131578152D02*
X202441905Y-131625771D01*
X202441905Y-131625771D02*
X202489524Y-131721009D01*
X202489524Y-131721009D02*
X202489524Y-131816247D01*
X202489524Y-131816247D02*
X202013334Y-131911485D01*
X220629819Y-42843333D02*
X221344104Y-42843333D01*
X221344104Y-42843333D02*
X221486961Y-42890952D01*
X221486961Y-42890952D02*
X221582200Y-42986190D01*
X221582200Y-42986190D02*
X221629819Y-43129047D01*
X221629819Y-43129047D02*
X221629819Y-43224285D01*
X220629819Y-42462380D02*
X220629819Y-41795714D01*
X220629819Y-41795714D02*
X221629819Y-42224285D01*
X181624000Y-67276619D02*
X181624000Y-67514714D01*
X181385905Y-67419476D02*
X181624000Y-67514714D01*
X181624000Y-67514714D02*
X181862095Y-67419476D01*
X181481143Y-67705190D02*
X181624000Y-67514714D01*
X181624000Y-67514714D02*
X181766857Y-67705190D01*
X180877142Y-127264819D02*
X180543809Y-126788628D01*
X180305714Y-127264819D02*
X180305714Y-126264819D01*
X180305714Y-126264819D02*
X180686666Y-126264819D01*
X180686666Y-126264819D02*
X180781904Y-126312438D01*
X180781904Y-126312438D02*
X180829523Y-126360057D01*
X180829523Y-126360057D02*
X180877142Y-126455295D01*
X180877142Y-126455295D02*
X180877142Y-126598152D01*
X180877142Y-126598152D02*
X180829523Y-126693390D01*
X180829523Y-126693390D02*
X180781904Y-126741009D01*
X180781904Y-126741009D02*
X180686666Y-126788628D01*
X180686666Y-126788628D02*
X180305714Y-126788628D01*
X181210476Y-126264819D02*
X181829523Y-126264819D01*
X181829523Y-126264819D02*
X181496190Y-126645771D01*
X181496190Y-126645771D02*
X181639047Y-126645771D01*
X181639047Y-126645771D02*
X181734285Y-126693390D01*
X181734285Y-126693390D02*
X181781904Y-126741009D01*
X181781904Y-126741009D02*
X181829523Y-126836247D01*
X181829523Y-126836247D02*
X181829523Y-127074342D01*
X181829523Y-127074342D02*
X181781904Y-127169580D01*
X181781904Y-127169580D02*
X181734285Y-127217200D01*
X181734285Y-127217200D02*
X181639047Y-127264819D01*
X181639047Y-127264819D02*
X181353333Y-127264819D01*
X181353333Y-127264819D02*
X181258095Y-127217200D01*
X181258095Y-127217200D02*
X181210476Y-127169580D01*
X182781904Y-127264819D02*
X182210476Y-127264819D01*
X182496190Y-127264819D02*
X182496190Y-126264819D01*
X182496190Y-126264819D02*
X182400952Y-126407676D01*
X182400952Y-126407676D02*
X182305714Y-126502914D01*
X182305714Y-126502914D02*
X182210476Y-126550533D01*
X184153333Y-81094819D02*
X183820000Y-80618628D01*
X183581905Y-81094819D02*
X183581905Y-80094819D01*
X183581905Y-80094819D02*
X183962857Y-80094819D01*
X183962857Y-80094819D02*
X184058095Y-80142438D01*
X184058095Y-80142438D02*
X184105714Y-80190057D01*
X184105714Y-80190057D02*
X184153333Y-80285295D01*
X184153333Y-80285295D02*
X184153333Y-80428152D01*
X184153333Y-80428152D02*
X184105714Y-80523390D01*
X184105714Y-80523390D02*
X184058095Y-80571009D01*
X184058095Y-80571009D02*
X183962857Y-80618628D01*
X183962857Y-80618628D02*
X183581905Y-80618628D01*
X185010476Y-80094819D02*
X184820000Y-80094819D01*
X184820000Y-80094819D02*
X184724762Y-80142438D01*
X184724762Y-80142438D02*
X184677143Y-80190057D01*
X184677143Y-80190057D02*
X184581905Y-80332914D01*
X184581905Y-80332914D02*
X184534286Y-80523390D01*
X184534286Y-80523390D02*
X184534286Y-80904342D01*
X184534286Y-80904342D02*
X184581905Y-80999580D01*
X184581905Y-80999580D02*
X184629524Y-81047200D01*
X184629524Y-81047200D02*
X184724762Y-81094819D01*
X184724762Y-81094819D02*
X184915238Y-81094819D01*
X184915238Y-81094819D02*
X185010476Y-81047200D01*
X185010476Y-81047200D02*
X185058095Y-80999580D01*
X185058095Y-80999580D02*
X185105714Y-80904342D01*
X185105714Y-80904342D02*
X185105714Y-80666247D01*
X185105714Y-80666247D02*
X185058095Y-80571009D01*
X185058095Y-80571009D02*
X185010476Y-80523390D01*
X185010476Y-80523390D02*
X184915238Y-80475771D01*
X184915238Y-80475771D02*
X184724762Y-80475771D01*
X184724762Y-80475771D02*
X184629524Y-80523390D01*
X184629524Y-80523390D02*
X184581905Y-80571009D01*
X184581905Y-80571009D02*
X184534286Y-80666247D01*
X181513333Y-97404819D02*
X181180000Y-96928628D01*
X180941905Y-97404819D02*
X180941905Y-96404819D01*
X180941905Y-96404819D02*
X181322857Y-96404819D01*
X181322857Y-96404819D02*
X181418095Y-96452438D01*
X181418095Y-96452438D02*
X181465714Y-96500057D01*
X181465714Y-96500057D02*
X181513333Y-96595295D01*
X181513333Y-96595295D02*
X181513333Y-96738152D01*
X181513333Y-96738152D02*
X181465714Y-96833390D01*
X181465714Y-96833390D02*
X181418095Y-96881009D01*
X181418095Y-96881009D02*
X181322857Y-96928628D01*
X181322857Y-96928628D02*
X180941905Y-96928628D01*
X181989524Y-97404819D02*
X182180000Y-97404819D01*
X182180000Y-97404819D02*
X182275238Y-97357200D01*
X182275238Y-97357200D02*
X182322857Y-97309580D01*
X182322857Y-97309580D02*
X182418095Y-97166723D01*
X182418095Y-97166723D02*
X182465714Y-96976247D01*
X182465714Y-96976247D02*
X182465714Y-96595295D01*
X182465714Y-96595295D02*
X182418095Y-96500057D01*
X182418095Y-96500057D02*
X182370476Y-96452438D01*
X182370476Y-96452438D02*
X182275238Y-96404819D01*
X182275238Y-96404819D02*
X182084762Y-96404819D01*
X182084762Y-96404819D02*
X181989524Y-96452438D01*
X181989524Y-96452438D02*
X181941905Y-96500057D01*
X181941905Y-96500057D02*
X181894286Y-96595295D01*
X181894286Y-96595295D02*
X181894286Y-96833390D01*
X181894286Y-96833390D02*
X181941905Y-96928628D01*
X181941905Y-96928628D02*
X181989524Y-96976247D01*
X181989524Y-96976247D02*
X182084762Y-97023866D01*
X182084762Y-97023866D02*
X182275238Y-97023866D01*
X182275238Y-97023866D02*
X182370476Y-96976247D01*
X182370476Y-96976247D02*
X182418095Y-96928628D01*
X182418095Y-96928628D02*
X182465714Y-96833390D01*
X180717142Y-121104819D02*
X180383809Y-120628628D01*
X180145714Y-121104819D02*
X180145714Y-120104819D01*
X180145714Y-120104819D02*
X180526666Y-120104819D01*
X180526666Y-120104819D02*
X180621904Y-120152438D01*
X180621904Y-120152438D02*
X180669523Y-120200057D01*
X180669523Y-120200057D02*
X180717142Y-120295295D01*
X180717142Y-120295295D02*
X180717142Y-120438152D01*
X180717142Y-120438152D02*
X180669523Y-120533390D01*
X180669523Y-120533390D02*
X180621904Y-120581009D01*
X180621904Y-120581009D02*
X180526666Y-120628628D01*
X180526666Y-120628628D02*
X180145714Y-120628628D01*
X181050476Y-120104819D02*
X181669523Y-120104819D01*
X181669523Y-120104819D02*
X181336190Y-120485771D01*
X181336190Y-120485771D02*
X181479047Y-120485771D01*
X181479047Y-120485771D02*
X181574285Y-120533390D01*
X181574285Y-120533390D02*
X181621904Y-120581009D01*
X181621904Y-120581009D02*
X181669523Y-120676247D01*
X181669523Y-120676247D02*
X181669523Y-120914342D01*
X181669523Y-120914342D02*
X181621904Y-121009580D01*
X181621904Y-121009580D02*
X181574285Y-121057200D01*
X181574285Y-121057200D02*
X181479047Y-121104819D01*
X181479047Y-121104819D02*
X181193333Y-121104819D01*
X181193333Y-121104819D02*
X181098095Y-121057200D01*
X181098095Y-121057200D02*
X181050476Y-121009580D01*
X182288571Y-120104819D02*
X182383809Y-120104819D01*
X182383809Y-120104819D02*
X182479047Y-120152438D01*
X182479047Y-120152438D02*
X182526666Y-120200057D01*
X182526666Y-120200057D02*
X182574285Y-120295295D01*
X182574285Y-120295295D02*
X182621904Y-120485771D01*
X182621904Y-120485771D02*
X182621904Y-120723866D01*
X182621904Y-120723866D02*
X182574285Y-120914342D01*
X182574285Y-120914342D02*
X182526666Y-121009580D01*
X182526666Y-121009580D02*
X182479047Y-121057200D01*
X182479047Y-121057200D02*
X182383809Y-121104819D01*
X182383809Y-121104819D02*
X182288571Y-121104819D01*
X182288571Y-121104819D02*
X182193333Y-121057200D01*
X182193333Y-121057200D02*
X182145714Y-121009580D01*
X182145714Y-121009580D02*
X182098095Y-120914342D01*
X182098095Y-120914342D02*
X182050476Y-120723866D01*
X182050476Y-120723866D02*
X182050476Y-120485771D01*
X182050476Y-120485771D02*
X182098095Y-120295295D01*
X182098095Y-120295295D02*
X182145714Y-120200057D01*
X182145714Y-120200057D02*
X182193333Y-120152438D01*
X182193333Y-120152438D02*
X182288571Y-120104819D01*
X170503333Y-81104819D02*
X170170000Y-80628628D01*
X169931905Y-81104819D02*
X169931905Y-80104819D01*
X169931905Y-80104819D02*
X170312857Y-80104819D01*
X170312857Y-80104819D02*
X170408095Y-80152438D01*
X170408095Y-80152438D02*
X170455714Y-80200057D01*
X170455714Y-80200057D02*
X170503333Y-80295295D01*
X170503333Y-80295295D02*
X170503333Y-80438152D01*
X170503333Y-80438152D02*
X170455714Y-80533390D01*
X170455714Y-80533390D02*
X170408095Y-80581009D01*
X170408095Y-80581009D02*
X170312857Y-80628628D01*
X170312857Y-80628628D02*
X169931905Y-80628628D01*
X171408095Y-80104819D02*
X170931905Y-80104819D01*
X170931905Y-80104819D02*
X170884286Y-80581009D01*
X170884286Y-80581009D02*
X170931905Y-80533390D01*
X170931905Y-80533390D02*
X171027143Y-80485771D01*
X171027143Y-80485771D02*
X171265238Y-80485771D01*
X171265238Y-80485771D02*
X171360476Y-80533390D01*
X171360476Y-80533390D02*
X171408095Y-80581009D01*
X171408095Y-80581009D02*
X171455714Y-80676247D01*
X171455714Y-80676247D02*
X171455714Y-80914342D01*
X171455714Y-80914342D02*
X171408095Y-81009580D01*
X171408095Y-81009580D02*
X171360476Y-81057200D01*
X171360476Y-81057200D02*
X171265238Y-81104819D01*
X171265238Y-81104819D02*
X171027143Y-81104819D01*
X171027143Y-81104819D02*
X170931905Y-81057200D01*
X170931905Y-81057200D02*
X170884286Y-81009580D01*
X207491905Y-49044819D02*
X207491905Y-49854342D01*
X207491905Y-49854342D02*
X207539524Y-49949580D01*
X207539524Y-49949580D02*
X207587143Y-49997200D01*
X207587143Y-49997200D02*
X207682381Y-50044819D01*
X207682381Y-50044819D02*
X207872857Y-50044819D01*
X207872857Y-50044819D02*
X207968095Y-49997200D01*
X207968095Y-49997200D02*
X208015714Y-49949580D01*
X208015714Y-49949580D02*
X208063333Y-49854342D01*
X208063333Y-49854342D02*
X208063333Y-49044819D01*
X209063333Y-50044819D02*
X208491905Y-50044819D01*
X208777619Y-50044819D02*
X208777619Y-49044819D01*
X208777619Y-49044819D02*
X208682381Y-49187676D01*
X208682381Y-49187676D02*
X208587143Y-49282914D01*
X208587143Y-49282914D02*
X208491905Y-49330533D01*
X209920476Y-49378152D02*
X209920476Y-50044819D01*
X209682381Y-48997200D02*
X209444286Y-49711485D01*
X209444286Y-49711485D02*
X210063333Y-49711485D01*
X205262900Y-46073019D02*
X205262900Y-46311114D01*
X205024805Y-46215876D02*
X205262900Y-46311114D01*
X205262900Y-46311114D02*
X205500995Y-46215876D01*
X205120043Y-46501590D02*
X205262900Y-46311114D01*
X205262900Y-46311114D02*
X205405757Y-46501590D01*
X233294819Y-87062857D02*
X232818628Y-87396190D01*
X233294819Y-87634285D02*
X232294819Y-87634285D01*
X232294819Y-87634285D02*
X232294819Y-87253333D01*
X232294819Y-87253333D02*
X232342438Y-87158095D01*
X232342438Y-87158095D02*
X232390057Y-87110476D01*
X232390057Y-87110476D02*
X232485295Y-87062857D01*
X232485295Y-87062857D02*
X232628152Y-87062857D01*
X232628152Y-87062857D02*
X232723390Y-87110476D01*
X232723390Y-87110476D02*
X232771009Y-87158095D01*
X232771009Y-87158095D02*
X232818628Y-87253333D01*
X232818628Y-87253333D02*
X232818628Y-87634285D01*
X233294819Y-86110476D02*
X233294819Y-86681904D01*
X233294819Y-86396190D02*
X232294819Y-86396190D01*
X232294819Y-86396190D02*
X232437676Y-86491428D01*
X232437676Y-86491428D02*
X232532914Y-86586666D01*
X232532914Y-86586666D02*
X232580533Y-86681904D01*
X232628152Y-85253333D02*
X233294819Y-85253333D01*
X232247200Y-85491428D02*
X232961485Y-85729523D01*
X232961485Y-85729523D02*
X232961485Y-85110476D01*
X181606400Y-62266619D02*
X181606400Y-62504714D01*
X181368305Y-62409476D02*
X181606400Y-62504714D01*
X181606400Y-62504714D02*
X181844495Y-62409476D01*
X181463543Y-62695190D02*
X181606400Y-62504714D01*
X181606400Y-62504714D02*
X181749257Y-62695190D01*
X181513300Y-57436619D02*
X181513300Y-57674714D01*
X181275205Y-57579476D02*
X181513300Y-57674714D01*
X181513300Y-57674714D02*
X181751395Y-57579476D01*
X181370443Y-57865190D02*
X181513300Y-57674714D01*
X181513300Y-57674714D02*
X181656157Y-57865190D01*
X224410476Y-139124819D02*
X224410476Y-139839104D01*
X224410476Y-139839104D02*
X224362857Y-139981961D01*
X224362857Y-139981961D02*
X224267619Y-140077200D01*
X224267619Y-140077200D02*
X224124762Y-140124819D01*
X224124762Y-140124819D02*
X224029524Y-140124819D01*
X224791429Y-139124819D02*
X225410476Y-139124819D01*
X225410476Y-139124819D02*
X225077143Y-139505771D01*
X225077143Y-139505771D02*
X225220000Y-139505771D01*
X225220000Y-139505771D02*
X225315238Y-139553390D01*
X225315238Y-139553390D02*
X225362857Y-139601009D01*
X225362857Y-139601009D02*
X225410476Y-139696247D01*
X225410476Y-139696247D02*
X225410476Y-139934342D01*
X225410476Y-139934342D02*
X225362857Y-140029580D01*
X225362857Y-140029580D02*
X225315238Y-140077200D01*
X225315238Y-140077200D02*
X225220000Y-140124819D01*
X225220000Y-140124819D02*
X224934286Y-140124819D01*
X224934286Y-140124819D02*
X224839048Y-140077200D01*
X224839048Y-140077200D02*
X224791429Y-140029580D01*
X225886667Y-140124819D02*
X226077143Y-140124819D01*
X226077143Y-140124819D02*
X226172381Y-140077200D01*
X226172381Y-140077200D02*
X226220000Y-140029580D01*
X226220000Y-140029580D02*
X226315238Y-139886723D01*
X226315238Y-139886723D02*
X226362857Y-139696247D01*
X226362857Y-139696247D02*
X226362857Y-139315295D01*
X226362857Y-139315295D02*
X226315238Y-139220057D01*
X226315238Y-139220057D02*
X226267619Y-139172438D01*
X226267619Y-139172438D02*
X226172381Y-139124819D01*
X226172381Y-139124819D02*
X225981905Y-139124819D01*
X225981905Y-139124819D02*
X225886667Y-139172438D01*
X225886667Y-139172438D02*
X225839048Y-139220057D01*
X225839048Y-139220057D02*
X225791429Y-139315295D01*
X225791429Y-139315295D02*
X225791429Y-139553390D01*
X225791429Y-139553390D02*
X225839048Y-139648628D01*
X225839048Y-139648628D02*
X225886667Y-139696247D01*
X225886667Y-139696247D02*
X225981905Y-139743866D01*
X225981905Y-139743866D02*
X226172381Y-139743866D01*
X226172381Y-139743866D02*
X226267619Y-139696247D01*
X226267619Y-139696247D02*
X226315238Y-139648628D01*
X226315238Y-139648628D02*
X226362857Y-139553390D01*
X230114819Y-87032857D02*
X229638628Y-87366190D01*
X230114819Y-87604285D02*
X229114819Y-87604285D01*
X229114819Y-87604285D02*
X229114819Y-87223333D01*
X229114819Y-87223333D02*
X229162438Y-87128095D01*
X229162438Y-87128095D02*
X229210057Y-87080476D01*
X229210057Y-87080476D02*
X229305295Y-87032857D01*
X229305295Y-87032857D02*
X229448152Y-87032857D01*
X229448152Y-87032857D02*
X229543390Y-87080476D01*
X229543390Y-87080476D02*
X229591009Y-87128095D01*
X229591009Y-87128095D02*
X229638628Y-87223333D01*
X229638628Y-87223333D02*
X229638628Y-87604285D01*
X230114819Y-86080476D02*
X230114819Y-86651904D01*
X230114819Y-86366190D02*
X229114819Y-86366190D01*
X229114819Y-86366190D02*
X229257676Y-86461428D01*
X229257676Y-86461428D02*
X229352914Y-86556666D01*
X229352914Y-86556666D02*
X229400533Y-86651904D01*
X229114819Y-85747142D02*
X229114819Y-85128095D01*
X229114819Y-85128095D02*
X229495771Y-85461428D01*
X229495771Y-85461428D02*
X229495771Y-85318571D01*
X229495771Y-85318571D02*
X229543390Y-85223333D01*
X229543390Y-85223333D02*
X229591009Y-85175714D01*
X229591009Y-85175714D02*
X229686247Y-85128095D01*
X229686247Y-85128095D02*
X229924342Y-85128095D01*
X229924342Y-85128095D02*
X230019580Y-85175714D01*
X230019580Y-85175714D02*
X230067200Y-85223333D01*
X230067200Y-85223333D02*
X230114819Y-85318571D01*
X230114819Y-85318571D02*
X230114819Y-85604285D01*
X230114819Y-85604285D02*
X230067200Y-85699523D01*
X230067200Y-85699523D02*
X230019580Y-85747142D01*
D11*
%TO.C,J2*%
X170885000Y-87060000D02*
X170885000Y-88390000D01*
X169555000Y-87060000D02*
X170885000Y-87060000D01*
X168285000Y-87060000D02*
X165685000Y-87060000D01*
X168285000Y-87060000D02*
X168285000Y-89720000D01*
X165685000Y-87060000D02*
X165685000Y-89720000D01*
X168285000Y-89720000D02*
X165685000Y-89720000D01*
D12*
%TO.C,U7*%
X192633600Y-40284400D02*
X192837308Y-40284400D01*
X195782692Y-40284400D02*
X195986400Y-40284400D01*
X195986400Y-40284400D02*
X195986400Y-36931600D01*
X192633600Y-36931600D02*
X192633600Y-40284400D01*
X192837308Y-36931600D02*
X192633600Y-36931600D01*
X195986400Y-36931600D02*
X195782692Y-36931600D01*
D11*
%TO.C,R8*%
X177880000Y-93790000D02*
X178650000Y-93790000D01*
X178650000Y-92420000D02*
X178650000Y-95160000D01*
X178650000Y-95160000D02*
X185190000Y-95160000D01*
X185190000Y-92420000D02*
X178650000Y-92420000D01*
X185190000Y-95160000D02*
X185190000Y-92420000D01*
X185960000Y-93790000D02*
X185190000Y-93790000D01*
%TO.C,R11*%
X230500000Y-140220000D02*
X230500000Y-139450000D01*
X229130000Y-139450000D02*
X231870000Y-139450000D01*
X231870000Y-139450000D02*
X231870000Y-132910000D01*
X229130000Y-132910000D02*
X229130000Y-139450000D01*
X231870000Y-132910000D02*
X229130000Y-132910000D01*
X230500000Y-132140000D02*
X230500000Y-132910000D01*
%TO.C,J3*%
X170750000Y-92460000D02*
X170750000Y-93790000D01*
X169420000Y-92460000D02*
X170750000Y-92460000D01*
X168150000Y-92460000D02*
X165550000Y-92460000D01*
X168150000Y-92460000D02*
X168150000Y-95120000D01*
X165550000Y-92460000D02*
X165550000Y-95120000D01*
X168150000Y-95120000D02*
X165550000Y-95120000D01*
D12*
%TO.C,U36*%
X180571200Y-45257860D02*
X180571200Y-43942140D01*
X180571200Y-42669600D02*
X175415000Y-42669600D01*
X175415000Y-46530400D02*
X180571200Y-46530400D01*
X175415000Y-43942140D02*
X175415000Y-45257860D01*
D11*
%TO.C,R12*%
X176850000Y-111010000D02*
X177620000Y-111010000D01*
X177620000Y-109640000D02*
X177620000Y-112380000D01*
X177620000Y-112380000D02*
X184160000Y-112380000D01*
X184160000Y-109640000D02*
X177620000Y-109640000D01*
X184160000Y-112380000D02*
X184160000Y-109640000D01*
X184930000Y-111010000D02*
X184160000Y-111010000D01*
%TO.C,BT4*%
X230270000Y-70140000D02*
X232880000Y-70140000D01*
X230270000Y-70140000D02*
G75*
G03*
X227530000Y-70140000I-1370000J0D01*
G01*
X227530000Y-70140000D02*
G75*
G03*
X230270000Y-70140000I1370000J0D01*
G01*
%TO.C,J45*%
X171075000Y-138690000D02*
X171075000Y-140020000D01*
X169745000Y-138690000D02*
X171075000Y-138690000D01*
X168475000Y-138690000D02*
X165875000Y-138690000D01*
X168475000Y-138690000D02*
X168475000Y-141350000D01*
X165875000Y-138690000D02*
X165875000Y-141350000D01*
X168475000Y-141350000D02*
X165875000Y-141350000D01*
%TO.C,R10*%
X177640000Y-105170000D02*
X178410000Y-105170000D01*
X178410000Y-103800000D02*
X178410000Y-106540000D01*
X178410000Y-106540000D02*
X184950000Y-106540000D01*
X184950000Y-103800000D02*
X178410000Y-103800000D01*
X184950000Y-106540000D02*
X184950000Y-103800000D01*
X185720000Y-105170000D02*
X184950000Y-105170000D01*
D12*
%TO.C,U15*%
X218241900Y-48872140D02*
X218241900Y-50187860D01*
X218241900Y-51460400D02*
X223398100Y-51460400D01*
X223398100Y-47599600D02*
X218241900Y-47599600D01*
X223398100Y-50187860D02*
X223398100Y-48872140D01*
D11*
%TO.C,BT3*%
X230415000Y-64160000D02*
X233025000Y-64160000D01*
X230415000Y-64160000D02*
G75*
G03*
X227675000Y-64160000I-1370000J0D01*
G01*
X227675000Y-64160000D02*
G75*
G03*
X230415000Y-64160000I1370000J0D01*
G01*
%TO.C,D1*%
X229040000Y-111465000D02*
X230370000Y-111465000D01*
X229040000Y-112795000D02*
X229040000Y-111465000D01*
X229040000Y-114065000D02*
X229040000Y-116665000D01*
X229040000Y-114065000D02*
X231700000Y-114065000D01*
X229040000Y-116665000D02*
X231700000Y-116665000D01*
X231700000Y-114065000D02*
X231700000Y-116665000D01*
%TO.C,J1*%
X197700000Y-29320000D02*
X197700000Y-27990000D01*
X199030000Y-29320000D02*
X197700000Y-29320000D01*
X200300000Y-29320000D02*
X210520000Y-29320000D01*
X200300000Y-29320000D02*
X200300000Y-26660000D01*
X210520000Y-29320000D02*
X210520000Y-26660000D01*
X200300000Y-26660000D02*
X210520000Y-26660000D01*
D12*
%TO.C,U13*%
X218331900Y-68822140D02*
X218331900Y-70137860D01*
X218331900Y-71410400D02*
X223488100Y-71410400D01*
X223488100Y-67549600D02*
X218331900Y-67549600D01*
X223488100Y-70137860D02*
X223488100Y-68822140D01*
D11*
%TO.C,BT1*%
X169190000Y-71560000D02*
X166580000Y-71560000D01*
X171930000Y-71560000D02*
G75*
G03*
X169190000Y-71560000I-1370000J0D01*
G01*
X169190000Y-71560000D02*
G75*
G03*
X171930000Y-71560000I1370000J0D01*
G01*
D13*
%TO.C,U1*%
X225390000Y-38650000D02*
X225390000Y-26950000D01*
X234090000Y-38650000D02*
X225390000Y-38650000D01*
X225390000Y-26950000D02*
X234090000Y-26950000D01*
X234090000Y-26950000D02*
X234090000Y-38650000D01*
D14*
X235190000Y-37800000D02*
G75*
G03*
X234790000Y-37800000I-200000J0D01*
G01*
X234790000Y-37800000D02*
G75*
G03*
X235190000Y-37800000I200000J0D01*
G01*
D12*
%TO.C,U31*%
X180738100Y-72837860D02*
X180738100Y-71522140D01*
X180738100Y-70249600D02*
X175581900Y-70249600D01*
X175581900Y-74110400D02*
X180738100Y-74110400D01*
X175581900Y-71522140D02*
X175581900Y-72837860D01*
D11*
%TO.C,R1*%
X230490000Y-99575000D02*
X230490000Y-100345000D01*
X231860000Y-100345000D02*
X229120000Y-100345000D01*
X229120000Y-100345000D02*
X229120000Y-106885000D01*
X231860000Y-106885000D02*
X231860000Y-100345000D01*
X229120000Y-106885000D02*
X231860000Y-106885000D01*
X230490000Y-107655000D02*
X230490000Y-106885000D01*
%TO.C,D3*%
X231730000Y-127475000D02*
X230400000Y-127475000D01*
X231730000Y-126145000D02*
X231730000Y-127475000D01*
X231730000Y-124875000D02*
X231730000Y-122275000D01*
X231730000Y-124875000D02*
X229070000Y-124875000D01*
X231730000Y-122275000D02*
X229070000Y-122275000D01*
X229070000Y-124875000D02*
X229070000Y-122275000D01*
D12*
%TO.C,U12*%
X205621900Y-69192140D02*
X205621900Y-70507860D01*
X205621900Y-71780400D02*
X210778100Y-71780400D01*
X210778100Y-67919600D02*
X205621900Y-67919600D01*
X210778100Y-70507860D02*
X210778100Y-69192140D01*
D11*
%TO.C,J6*%
X170665000Y-109890000D02*
X170665000Y-111220000D01*
X169335000Y-109890000D02*
X170665000Y-109890000D01*
X168065000Y-109890000D02*
X165465000Y-109890000D01*
X168065000Y-109890000D02*
X168065000Y-112550000D01*
X165465000Y-109890000D02*
X165465000Y-112550000D01*
X168065000Y-112550000D02*
X165465000Y-112550000D01*
%TO.C,R33*%
X177400000Y-139840000D02*
X178170000Y-139840000D01*
X178170000Y-138470000D02*
X178170000Y-141210000D01*
X178170000Y-141210000D02*
X184710000Y-141210000D01*
X184710000Y-138470000D02*
X178170000Y-138470000D01*
X184710000Y-141210000D02*
X184710000Y-138470000D01*
X185480000Y-139840000D02*
X184710000Y-139840000D01*
%TO.C,BT8*%
X169306200Y-55100000D02*
X166696200Y-55100000D01*
X172046200Y-55100000D02*
G75*
G03*
X169306200Y-55100000I-1370000J0D01*
G01*
X169306200Y-55100000D02*
G75*
G03*
X172046200Y-55100000I1370000J0D01*
G01*
D12*
%TO.C,U35*%
X180575000Y-50817860D02*
X180575000Y-49502140D01*
X180575000Y-48229600D02*
X175418800Y-48229600D01*
X175418800Y-52090400D02*
X180575000Y-52090400D01*
X175418800Y-49502140D02*
X175418800Y-50817860D01*
D11*
%TO.C,J5*%
X170755000Y-104040000D02*
X170755000Y-105370000D01*
X169425000Y-104040000D02*
X170755000Y-104040000D01*
X168155000Y-104040000D02*
X165555000Y-104040000D01*
X168155000Y-104040000D02*
X168155000Y-106700000D01*
X165555000Y-104040000D02*
X165555000Y-106700000D01*
X168155000Y-106700000D02*
X165555000Y-106700000D01*
%TO.C,R3*%
X168500000Y-33670000D02*
X172150000Y-33670000D01*
X172150000Y-31750000D02*
X172150000Y-35590000D01*
X172150000Y-35590000D02*
X182290000Y-35590000D01*
X182290000Y-31750000D02*
X172150000Y-31750000D01*
X182290000Y-35590000D02*
X182290000Y-31750000D01*
X185940000Y-33670000D02*
X182290000Y-33670000D01*
%TO.C,R7*%
X178200000Y-87980000D02*
X178970000Y-87980000D01*
X178970000Y-86610000D02*
X178970000Y-89350000D01*
X178970000Y-89350000D02*
X185510000Y-89350000D01*
X185510000Y-86610000D02*
X178970000Y-86610000D01*
X185510000Y-89350000D02*
X185510000Y-86610000D01*
X186280000Y-87980000D02*
X185510000Y-87980000D01*
%TO.C,R4*%
X176930000Y-117020000D02*
X177700000Y-117020000D01*
X177700000Y-115650000D02*
X177700000Y-118390000D01*
X177700000Y-118390000D02*
X184240000Y-118390000D01*
X184240000Y-115650000D02*
X177700000Y-115650000D01*
X184240000Y-118390000D02*
X184240000Y-115650000D01*
X185010000Y-117020000D02*
X184240000Y-117020000D01*
%TO.C,R32*%
X177480000Y-134630000D02*
X178250000Y-134630000D01*
X178250000Y-133260000D02*
X178250000Y-136000000D01*
X178250000Y-136000000D02*
X184790000Y-136000000D01*
X184790000Y-133260000D02*
X178250000Y-133260000D01*
X184790000Y-136000000D02*
X184790000Y-133260000D01*
X185560000Y-134630000D02*
X184790000Y-134630000D01*
%TO.C,U6*%
X193800000Y-88070000D02*
X193800000Y-135570000D01*
X195800000Y-86070000D02*
X219800000Y-86070000D01*
X195800000Y-137570000D02*
X219800000Y-137570000D01*
X198910000Y-87340000D02*
X216690000Y-87340000D01*
X198910000Y-92420000D02*
X198910000Y-87340000D01*
X198910000Y-133060000D02*
X201450000Y-133060000D01*
X198910000Y-136870000D02*
X198910000Y-133060000D01*
X200180000Y-88102000D02*
X202720000Y-88102000D01*
X200180000Y-91658000D02*
X200180000Y-88102000D01*
X200300000Y-93070000D02*
X215300000Y-93070000D01*
X200300000Y-111070000D02*
X200300000Y-93070000D01*
X201450000Y-133060000D02*
X201450000Y-136870000D01*
X201450000Y-136870000D02*
X198910000Y-136870000D01*
X202720000Y-88102000D02*
X202720000Y-90134000D01*
X202720000Y-90134000D02*
X205260000Y-90134000D01*
X203800000Y-131570000D02*
X203800000Y-137570000D01*
X203800000Y-131570000D02*
X211800000Y-131570000D01*
X205260000Y-88102000D02*
X207800000Y-88102000D01*
X205260000Y-90134000D02*
X205260000Y-88102000D01*
X207800000Y-88102000D02*
X207800000Y-90134000D01*
X207800000Y-90134000D02*
X210340000Y-90134000D01*
X210340000Y-88102000D02*
X215420000Y-88102000D01*
X210340000Y-90134000D02*
X210340000Y-88102000D01*
X211800000Y-131570000D02*
X211800000Y-137570000D01*
X212880000Y-88102000D02*
X212880000Y-91658000D01*
X214150000Y-133060000D02*
X216690000Y-133060000D01*
X214150000Y-136870000D02*
X214150000Y-133060000D01*
X215300000Y-93070000D02*
X215300000Y-111070000D01*
X215300000Y-111070000D02*
X200300000Y-111070000D01*
X215420000Y-88102000D02*
X215420000Y-91658000D01*
X216690000Y-87340000D02*
X216690000Y-92420000D01*
X216690000Y-92420000D02*
X198910000Y-92420000D01*
X216690000Y-133060000D02*
X216690000Y-136870000D01*
X216690000Y-136870000D02*
X214150000Y-136870000D01*
X221800000Y-135570000D02*
X221800000Y-88070000D01*
X195800000Y-86070000D02*
G75*
G03*
X193800000Y-88070000I-1J-1999999D01*
G01*
X193800000Y-135570000D02*
G75*
G03*
X195800000Y-137570000I1999999J-1D01*
G01*
X221800000Y-88070000D02*
G75*
G03*
X219800000Y-86070000I-2000000J0D01*
G01*
X219800000Y-137570000D02*
G75*
G03*
X221800000Y-135570000I0J2000000D01*
G01*
X197600000Y-88070000D02*
G75*
G03*
X194600000Y-88070000I-1500000J0D01*
G01*
X194600000Y-88070000D02*
G75*
G03*
X197600000Y-88070000I1500000J0D01*
G01*
X197600000Y-135570000D02*
G75*
G03*
X194600000Y-135570000I-1500000J0D01*
G01*
X194600000Y-135570000D02*
G75*
G03*
X197600000Y-135570000I1500000J0D01*
G01*
D15*
X200480000Y-134965000D02*
G75*
G03*
X199880000Y-134965000I-300000J0D01*
G01*
X199880000Y-134965000D02*
G75*
G03*
X200480000Y-134965000I300000J0D01*
G01*
D16*
X203120000Y-108930000D02*
G75*
G03*
X202320000Y-108930000I-400000J0D01*
G01*
X202320000Y-108930000D02*
G75*
G03*
X203120000Y-108930000I400000J0D01*
G01*
D15*
X215720000Y-134965000D02*
G75*
G03*
X215120000Y-134965000I-300000J0D01*
G01*
X215120000Y-134965000D02*
G75*
G03*
X215720000Y-134965000I300000J0D01*
G01*
D11*
X221000000Y-88070000D02*
G75*
G03*
X218000000Y-88070000I-1500000J0D01*
G01*
X218000000Y-88070000D02*
G75*
G03*
X221000000Y-88070000I1500000J0D01*
G01*
X221000000Y-135570000D02*
G75*
G03*
X218000000Y-135570000I-1500000J0D01*
G01*
X218000000Y-135570000D02*
G75*
G03*
X221000000Y-135570000I1500000J0D01*
G01*
%TO.C,BT5*%
X230440000Y-50130000D02*
X233050000Y-50130000D01*
X230440000Y-50130000D02*
G75*
G03*
X227700000Y-50130000I-1370000J0D01*
G01*
X227700000Y-50130000D02*
G75*
G03*
X230440000Y-50130000I1370000J0D01*
G01*
%TO.C,R2*%
X186300000Y-27820000D02*
X181800000Y-27820000D01*
X181800000Y-29540000D02*
X181800000Y-26100000D01*
X181800000Y-26100000D02*
X172560000Y-26100000D01*
X172560000Y-29540000D02*
X181800000Y-29540000D01*
X172560000Y-26100000D02*
X172560000Y-29540000D01*
X168060000Y-27820000D02*
X172560000Y-27820000D01*
%TO.C,J7*%
X222175000Y-43840000D02*
X222175000Y-42510000D01*
X223505000Y-43840000D02*
X222175000Y-43840000D01*
X224775000Y-43840000D02*
X227375000Y-43840000D01*
X224775000Y-43840000D02*
X224775000Y-41180000D01*
X227375000Y-43840000D02*
X227375000Y-41180000D01*
X224775000Y-41180000D02*
X227375000Y-41180000D01*
D12*
%TO.C,U32*%
X180735000Y-65507860D02*
X180735000Y-64192140D01*
X180735000Y-62919600D02*
X175578800Y-62919600D01*
X175578800Y-66780400D02*
X180735000Y-66780400D01*
X175578800Y-64192140D02*
X175578800Y-65507860D01*
D11*
%TO.C,R31*%
X177480000Y-129180000D02*
X178250000Y-129180000D01*
X178250000Y-127810000D02*
X178250000Y-130550000D01*
X178250000Y-130550000D02*
X184790000Y-130550000D01*
X184790000Y-127810000D02*
X178250000Y-127810000D01*
X184790000Y-130550000D02*
X184790000Y-127810000D01*
X185560000Y-129180000D02*
X184790000Y-129180000D01*
D12*
%TO.C,U10*%
X205851900Y-62982140D02*
X205851900Y-64297860D01*
X205851900Y-65570400D02*
X211008100Y-65570400D01*
X211008100Y-61709600D02*
X205851900Y-61709600D01*
X211008100Y-64297860D02*
X211008100Y-62982140D01*
%TO.C,U3*%
X191043000Y-69797000D02*
X198797000Y-69797000D01*
X198797000Y-51643000D02*
X191043000Y-51643000D01*
%TO.C,U8*%
X206261900Y-56592140D02*
X206261900Y-57907860D01*
X206261900Y-59180400D02*
X211418100Y-59180400D01*
X211418100Y-55319600D02*
X206261900Y-55319600D01*
X211418100Y-57907860D02*
X211418100Y-56592140D01*
D11*
%TO.C,BT9*%
X169426200Y-50370000D02*
X166816200Y-50370000D01*
X172166200Y-50370000D02*
G75*
G03*
X169426200Y-50370000I-1370000J0D01*
G01*
X169426200Y-50370000D02*
G75*
G03*
X172166200Y-50370000I1370000J0D01*
G01*
%TO.C,BT6*%
X169186200Y-65870000D02*
X166576200Y-65870000D01*
X171926200Y-65870000D02*
G75*
G03*
X169186200Y-65870000I-1370000J0D01*
G01*
X169186200Y-65870000D02*
G75*
G03*
X171926200Y-65870000I1370000J0D01*
G01*
%TO.C,R6*%
X180280000Y-83010000D02*
X181050000Y-83010000D01*
X181050000Y-81640000D02*
X181050000Y-84380000D01*
X181050000Y-84380000D02*
X187590000Y-84380000D01*
X187590000Y-81640000D02*
X181050000Y-81640000D01*
X187590000Y-84380000D02*
X187590000Y-81640000D01*
X188360000Y-83010000D02*
X187590000Y-83010000D01*
%TO.C,R9*%
X177640000Y-99320000D02*
X178410000Y-99320000D01*
X178410000Y-97950000D02*
X178410000Y-100690000D01*
X178410000Y-100690000D02*
X184950000Y-100690000D01*
X184950000Y-97950000D02*
X178410000Y-97950000D01*
X184950000Y-100690000D02*
X184950000Y-97950000D01*
X185720000Y-99320000D02*
X184950000Y-99320000D01*
%TO.C,R30*%
X177320000Y-123020000D02*
X178090000Y-123020000D01*
X178090000Y-121650000D02*
X178090000Y-124390000D01*
X178090000Y-124390000D02*
X184630000Y-124390000D01*
X184630000Y-121650000D02*
X178090000Y-121650000D01*
X184630000Y-124390000D02*
X184630000Y-121650000D01*
X185400000Y-123020000D02*
X184630000Y-123020000D01*
%TO.C,R5*%
X166630000Y-83020000D02*
X167400000Y-83020000D01*
X167400000Y-81650000D02*
X167400000Y-84390000D01*
X167400000Y-84390000D02*
X173940000Y-84390000D01*
X173940000Y-81650000D02*
X167400000Y-81650000D01*
X173940000Y-84390000D02*
X173940000Y-81650000D01*
X174710000Y-83020000D02*
X173940000Y-83020000D01*
%TO.C,BT10*%
X169425000Y-45720000D02*
X166815000Y-45720000D01*
X172165000Y-45720000D02*
G75*
G03*
X169425000Y-45720000I-1370000J0D01*
G01*
X169425000Y-45720000D02*
G75*
G03*
X172165000Y-45720000I1370000J0D01*
G01*
%TO.C,J4*%
X170750000Y-98130000D02*
X170750000Y-99460000D01*
X169420000Y-98130000D02*
X170750000Y-98130000D01*
X168150000Y-98130000D02*
X165550000Y-98130000D01*
X168150000Y-98130000D02*
X168150000Y-100790000D01*
X165550000Y-98130000D02*
X165550000Y-100790000D01*
X168150000Y-100790000D02*
X165550000Y-100790000D01*
D12*
%TO.C,U14*%
X206151900Y-48932140D02*
X206151900Y-50247860D01*
X206151900Y-51520400D02*
X211308100Y-51520400D01*
X211308100Y-47659600D02*
X206151900Y-47659600D01*
X211308100Y-50247860D02*
X211308100Y-48932140D01*
D11*
%TO.C,BT7*%
X169346200Y-60190000D02*
X166736200Y-60190000D01*
X172086200Y-60190000D02*
G75*
G03*
X169346200Y-60190000I-1370000J0D01*
G01*
X169346200Y-60190000D02*
G75*
G03*
X172086200Y-60190000I1370000J0D01*
G01*
%TO.C,R14*%
X230470000Y-82380000D02*
X230470000Y-83150000D01*
X231840000Y-83150000D02*
X229100000Y-83150000D01*
X229100000Y-83150000D02*
X229100000Y-89690000D01*
X231840000Y-89690000D02*
X231840000Y-83150000D01*
X229100000Y-89690000D02*
X231840000Y-89690000D01*
X230470000Y-90460000D02*
X230470000Y-89690000D01*
%TO.C,J41*%
X170935000Y-115880000D02*
X170935000Y-117210000D01*
X169605000Y-115880000D02*
X170935000Y-115880000D01*
X168335000Y-115880000D02*
X165735000Y-115880000D01*
X168335000Y-115880000D02*
X168335000Y-118540000D01*
X165735000Y-115880000D02*
X165735000Y-118540000D01*
X168335000Y-118540000D02*
X165735000Y-118540000D01*
D12*
%TO.C,U4*%
X192108800Y-47152140D02*
X192108800Y-48467860D01*
X192108800Y-49740400D02*
X197265000Y-49740400D01*
X197265000Y-45879600D02*
X192108800Y-45879600D01*
X197265000Y-48467860D02*
X197265000Y-47152140D01*
%TO.C,U33*%
X180717400Y-60497860D02*
X180717400Y-59182140D01*
X180717400Y-57909600D02*
X175561200Y-57909600D01*
X175561200Y-61770400D02*
X180717400Y-61770400D01*
X175561200Y-59182140D02*
X175561200Y-60497860D01*
%TO.C,U11*%
X218471900Y-62622140D02*
X218471900Y-63937860D01*
X218471900Y-65210400D02*
X223628100Y-65210400D01*
X223628100Y-61349600D02*
X218471900Y-61349600D01*
X223628100Y-63937860D02*
X223628100Y-62622140D01*
%TO.C,U34*%
X180624300Y-55667860D02*
X180624300Y-54352140D01*
X180624300Y-53079600D02*
X175468100Y-53079600D01*
X175468100Y-56940400D02*
X180624300Y-56940400D01*
X175468100Y-54352140D02*
X175468100Y-55667860D01*
D11*
%TO.C,J39*%
X226550000Y-138670000D02*
X225220000Y-138670000D01*
X226550000Y-137340000D02*
X226550000Y-138670000D01*
X226550000Y-136070000D02*
X226550000Y-133470000D01*
X226550000Y-136070000D02*
X223890000Y-136070000D01*
X226550000Y-133470000D02*
X223890000Y-133470000D01*
X223890000Y-136070000D02*
X223890000Y-133470000D01*
%TO.C,J44*%
X170935000Y-133520000D02*
X170935000Y-134850000D01*
X169605000Y-133520000D02*
X170935000Y-133520000D01*
X168335000Y-133520000D02*
X165735000Y-133520000D01*
X168335000Y-133520000D02*
X168335000Y-136180000D01*
X165735000Y-133520000D02*
X165735000Y-136180000D01*
X168335000Y-136180000D02*
X165735000Y-136180000D01*
%TO.C,J42*%
X170845000Y-121640000D02*
X170845000Y-122970000D01*
X169515000Y-121640000D02*
X170845000Y-121640000D01*
X168245000Y-121640000D02*
X165645000Y-121640000D01*
X168245000Y-121640000D02*
X168245000Y-124300000D01*
X165645000Y-121640000D02*
X165645000Y-124300000D01*
X168245000Y-124300000D02*
X165645000Y-124300000D01*
%TO.C,BT2*%
X230440000Y-58450000D02*
X233050000Y-58450000D01*
X230440000Y-58450000D02*
G75*
G03*
X227700000Y-58450000I-1370000J0D01*
G01*
X227700000Y-58450000D02*
G75*
G03*
X230440000Y-58450000I1370000J0D01*
G01*
D12*
%TO.C,U9*%
X218171900Y-56522140D02*
X218171900Y-57837860D01*
X218171900Y-59110400D02*
X223328100Y-59110400D01*
X223328100Y-55249600D02*
X218171900Y-55249600D01*
X223328100Y-57837860D02*
X223328100Y-56522140D01*
D11*
%TO.C,J43*%
X171360000Y-127800000D02*
X171360000Y-129130000D01*
X170030000Y-127800000D02*
X171360000Y-127800000D01*
X168760000Y-127800000D02*
X166160000Y-127800000D01*
X168760000Y-127800000D02*
X168760000Y-130460000D01*
X166160000Y-127800000D02*
X166160000Y-130460000D01*
X168760000Y-130460000D02*
X166160000Y-130460000D01*
%TO.C,C1*%
X212955000Y-41910000D02*
X215565000Y-41910000D01*
X212955000Y-41910000D02*
G75*
G03*
X210215000Y-41910000I-1370000J0D01*
G01*
X210215000Y-41910000D02*
G75*
G03*
X212955000Y-41910000I1370000J0D01*
G01*
D10*
%TO.C,U5*%
X222135000Y-33669998D02*
X220385000Y-33669998D01*
X222135000Y-29870000D02*
X220385000Y-29870000D01*
D17*
X223785001Y-32720000D02*
G75*
G03*
X223534999Y-32720000I-125001J0D01*
G01*
X223534999Y-32720000D02*
G75*
G03*
X223785001Y-32720000I125001J0D01*
G01*
D11*
%TO.C,R13*%
X227290000Y-82350000D02*
X227290000Y-83120000D01*
X228660000Y-83120000D02*
X225920000Y-83120000D01*
X225920000Y-83120000D02*
X225920000Y-89660000D01*
X228660000Y-89660000D02*
X228660000Y-83120000D01*
X225920000Y-89660000D02*
X228660000Y-89660000D01*
X227290000Y-90430000D02*
X227290000Y-89660000D01*
%TD*%
M02*
