M48
; DRILL file {KiCad 7.0.11+dfsg-1build4} date ven. 05 juin 2026 21:14:01
; FORMAT={-:-/ absolute / inch / decimal}
; #@! TF.CreationDate,2026-06-05T21:14:01+02:00
; #@! TF.GenerationSoftware,Kicad,Pcbnew,7.0.11+dfsg-1build4
; #@! TF.FileFunction,Plated,1,2,PTH
FMAT,2
INCH
; #@! TA.AperFunction,Plated,PTH,ViaDrill
T1C0.0118
; #@! TA.AperFunction,Plated,PTH,ViaDrill
T2C0.0197
; #@! TA.AperFunction,Plated,PTH,ComponentDrill
T3C0.0300
; #@! TA.AperFunction,Plated,PTH,ComponentDrill
T4C0.0315
; #@! TA.AperFunction,Plated,PTH,ComponentDrill
T5C0.0394
; #@! TA.AperFunction,Plated,PTH,ComponentDrill
T6C0.0472
%
G90
G05
T1
X6.7992Y-2.8925
X6.8093Y-2.2343
X6.8093Y-2.4319
X6.8093Y-2.7004
X6.8105Y-1.8846
X6.8105Y-2.0433
X7.9862Y-1.8642
X8.2919Y-1.2262
X8.4661Y-1.9819
X8.4661Y-2.2512
X8.4661Y-2.5197
X8.4661Y-2.7516
X8.6972Y-2.9887
X8.8969Y-1.9724
X8.8969Y-2.1366
X8.8969Y-2.4319
X8.9224Y-2.6917
T2
X6.8Y-1.54
X6.8Y-3.01
X7.26Y-1.75
X7.4074Y-1.6126
X7.64Y-1.33
X7.8Y-3.11
X7.8878Y-1.71
X7.96Y-2.7803
X7.9791Y-1.3303
X8.4354Y-3.2193
X8.4971Y-3.1129
X8.4971Y-3.0511
X8.7622Y-1.4179
X9.0Y-3.11
T3
X7.6811Y-3.6264
X7.6811Y-3.7264
X7.6811Y-3.8264
X7.6811Y-3.9264
X7.6811Y-4.0264
X7.6811Y-4.1264
X7.6811Y-4.2264
X7.6811Y-4.3264
X7.6811Y-4.4264
X7.6811Y-4.5264
X7.6811Y-4.6264
X7.6811Y-4.7264
X7.6811Y-4.8264
X7.6811Y-4.9264
X7.6811Y-5.0264
X8.6811Y-3.6264
X8.6811Y-3.7264
X8.6811Y-3.8264
X8.6811Y-3.9264
X8.6811Y-4.0264
X8.6811Y-4.1264
X8.6811Y-4.2264
X8.6811Y-4.3264
X8.6811Y-4.4264
X8.6811Y-4.5264
X8.6811Y-4.6264
X8.6811Y-4.7264
X8.6811Y-4.8264
X8.6811Y-4.9264
X8.6811Y-5.0264
T4
X6.5148Y-2.5933
X6.515Y-2.8173
X6.5193Y-3.2685
X6.5195Y-2.1693
X6.5211Y-2.3697
X6.5242Y-1.8
X6.5243Y-1.9831
X6.5756Y-1.0953
X6.7148Y-2.5933
X6.715Y-2.8173
X6.7195Y-2.1693
X6.7211Y-2.3697
X6.7242Y-1.8
X6.7243Y-1.9831
X6.9193Y-3.2685
X6.9217Y-4.3705
X6.9248Y-4.6071
X6.9402Y-4.8433
X6.9433Y-5.5055
X6.9465Y-5.0858
X6.9465Y-5.3004
X6.9528Y-3.9102
X6.9528Y-4.1406
X6.9622Y-3.6925
X6.9748Y-3.4638
X7.0567Y-3.2681
X7.3217Y-4.3705
X7.3248Y-4.6071
X7.3402Y-4.8433
X7.3433Y-5.5055
X7.3465Y-5.0858
X7.3465Y-5.3004
X7.3528Y-3.9102
X7.3528Y-4.1406
X7.3622Y-3.6925
X7.3748Y-3.4638
X7.3756Y-1.0953
X7.4567Y-3.2681
X8.3301Y-1.65
X8.5301Y-1.65
X8.9484Y-3.2012
X8.9484Y-3.6012
X9.0118Y-2.7614
X9.0175Y-2.526
X9.0185Y-1.9736
X9.0185Y-2.3012
X9.0736Y-3.2024
X9.0736Y-3.6024
X9.0744Y-3.8793
X9.0744Y-4.2793
X9.0748Y-5.1614
X9.0748Y-5.5614
X9.2118Y-2.7614
X9.2175Y-2.526
X9.2185Y-1.9736
X9.2185Y-2.3012
T5
X6.5667Y-4.3787
X6.5701Y-3.6925
X6.5701Y-3.9157
X6.5703Y-4.1484
X6.5738Y-4.8413
X6.5754Y-3.4799
X6.5774Y-4.6146
X6.5774Y-5.3091
X6.5829Y-5.5126
X6.5941Y-5.0839
X6.6667Y-4.3787
X6.6701Y-3.6925
X6.6701Y-3.9157
X6.6703Y-4.1484
X6.6738Y-4.8413
X6.6754Y-3.4799
X6.6774Y-4.6146
X6.6774Y-5.3091
X6.6829Y-5.5126
X6.6941Y-5.0839
X7.8358Y-1.102
X7.9358Y-1.102
X8.0358Y-1.102
X8.1358Y-1.102
X8.2358Y-1.102
X8.7994Y-1.6736
X8.8669Y-5.3071
X8.8669Y-5.4071
X8.8994Y-1.6736
X8.976Y-1.1913
X8.976Y-1.2913
X8.976Y-1.3913
X9.0697Y-4.4407
X9.0697Y-4.5407
X9.0709Y-4.8663
X9.0709Y-4.9663
T6
X6.5772Y-1.3256
X7.3772Y-1.3256
M30
