%TF.GenerationSoftware,KiCad,Pcbnew,7.0.11+dfsg-1build4*%
%TF.CreationDate,2026-05-04T20:06:30+02:00*%
%TF.ProjectId,V5,56352e6b-6963-4616-945f-706362585858,rev?*%
%TF.SameCoordinates,Original*%
%TF.FileFunction,Legend,Bot*%
%TF.FilePolarity,Positive*%
%FSLAX46Y46*%
G04 Gerber Fmt 4.6, Leading zero omitted, Abs format (unit mm)*
G04 Created by KiCad (PCBNEW 7.0.11+dfsg-1build4) date 2026-05-04 20:06:30*
%MOMM*%
%LPD*%
G01*
G04 APERTURE LIST*
G04 APERTURE END LIST*
%TO.C,G\u002A\u002A\u002A*%
G36*
X83696225Y-76200000D02*
G01*
X83696225Y-80488538D01*
X76191284Y-80488538D01*
X68686342Y-80488538D01*
X68686342Y-80436238D01*
X68756075Y-80436238D01*
X76200000Y-80436238D01*
X83643926Y-80436238D01*
X83643926Y-76200000D01*
X83643926Y-71963761D01*
X76200000Y-71963761D01*
X68756075Y-71963761D01*
X68756075Y-76200000D01*
X68756075Y-80436238D01*
X68686342Y-80436238D01*
X68686342Y-76200000D01*
X68686342Y-71911462D01*
X76191284Y-71911462D01*
X83696225Y-71911462D01*
X83696225Y-71963761D01*
X83696225Y-76200000D01*
G37*
G36*
X75669801Y-77460397D02*
G01*
X75732706Y-77464982D01*
X75809757Y-77471659D01*
X75864839Y-77476536D01*
X75958025Y-77484336D01*
X76073035Y-77493633D01*
X76202747Y-77503858D01*
X76340043Y-77514447D01*
X76477803Y-77524832D01*
X76488573Y-77525636D01*
X76613130Y-77535181D01*
X76725560Y-77544250D01*
X76821332Y-77552441D01*
X76895916Y-77559354D01*
X76944782Y-77564589D01*
X76963399Y-77567745D01*
X76967115Y-77580006D01*
X76978485Y-77622247D01*
X76996380Y-77690522D01*
X77019722Y-77780595D01*
X77047436Y-77888231D01*
X77078443Y-78009192D01*
X77111666Y-78139243D01*
X77146029Y-78274149D01*
X77180453Y-78409672D01*
X77213861Y-78541576D01*
X77245177Y-78665627D01*
X77273323Y-78777587D01*
X77297222Y-78873220D01*
X77315796Y-78948291D01*
X77327969Y-78998563D01*
X77332662Y-79019801D01*
X77326615Y-79021404D01*
X77294823Y-79023385D01*
X77244811Y-79024159D01*
X77223353Y-79024314D01*
X77181656Y-79027380D01*
X77164840Y-79036552D01*
X77165534Y-79054667D01*
X77174119Y-79085818D01*
X77186032Y-79133116D01*
X77197466Y-79181057D01*
X76615926Y-79180971D01*
X76034386Y-79180886D01*
X75822497Y-78322392D01*
X75811109Y-78276221D01*
X75770677Y-78111707D01*
X75733266Y-77958602D01*
X75699645Y-77820110D01*
X75670582Y-77699435D01*
X75646848Y-77599781D01*
X75629210Y-77524354D01*
X75618438Y-77476356D01*
X75615300Y-77458992D01*
X75628299Y-77458377D01*
X75669801Y-77460397D01*
G37*
G36*
X78412081Y-72051095D02*
G01*
X78536552Y-72085899D01*
X78679846Y-72148870D01*
X78709684Y-72164596D01*
X78771578Y-72199024D01*
X78853843Y-72246075D01*
X78953118Y-72303729D01*
X79066041Y-72369966D01*
X79189249Y-72442768D01*
X79319382Y-72520115D01*
X79453076Y-72599986D01*
X79586971Y-72680363D01*
X79717704Y-72759226D01*
X79841914Y-72834555D01*
X79956237Y-72904331D01*
X80057314Y-72966535D01*
X80141781Y-73019146D01*
X80206277Y-73060146D01*
X80247440Y-73087515D01*
X80261908Y-73099233D01*
X80260546Y-73102256D01*
X80237375Y-73110878D01*
X80194609Y-73114344D01*
X80178503Y-73114601D01*
X80112049Y-73118518D01*
X80044762Y-73125659D01*
X79962214Y-73136973D01*
X80055404Y-73194997D01*
X80099378Y-73223330D01*
X80131033Y-73245776D01*
X80139877Y-73255177D01*
X80122373Y-73257535D01*
X80076772Y-73262909D01*
X80010466Y-73270419D01*
X79930680Y-73279232D01*
X79857776Y-73287093D01*
X79782520Y-73294977D01*
X79724680Y-73300781D01*
X79692875Y-73303619D01*
X79686162Y-73303054D01*
X79647799Y-73294614D01*
X79581910Y-73277131D01*
X79492521Y-73251857D01*
X79383656Y-73220046D01*
X79259343Y-73182950D01*
X79123607Y-73141821D01*
X78980473Y-73097911D01*
X78833968Y-73052474D01*
X78688117Y-73006762D01*
X78546946Y-72962027D01*
X78414481Y-72919522D01*
X78294748Y-72880500D01*
X78191772Y-72846212D01*
X78109580Y-72817912D01*
X78052196Y-72796852D01*
X78023648Y-72784284D01*
X77959439Y-72731742D01*
X77906876Y-72652858D01*
X77881964Y-72562810D01*
X77885263Y-72467799D01*
X77917333Y-72374028D01*
X77978737Y-72287698D01*
X78002924Y-72261718D01*
X78052447Y-72206495D01*
X78092667Y-72159257D01*
X78133897Y-72115992D01*
X78212524Y-72066110D01*
X78304662Y-72044488D01*
X78412081Y-72051095D01*
G37*
G36*
X70202307Y-76494067D02*
G01*
X70249855Y-76504180D01*
X70319826Y-76521977D01*
X70406810Y-76546082D01*
X70505395Y-76575118D01*
X70562059Y-76592050D01*
X70699230Y-76631770D01*
X70845995Y-76672875D01*
X70988077Y-76711400D01*
X71111195Y-76743378D01*
X71405903Y-76817497D01*
X71406206Y-76931501D01*
X71414575Y-77063066D01*
X71450319Y-77236278D01*
X71511826Y-77398634D01*
X71596552Y-77545053D01*
X71701956Y-77670451D01*
X71825496Y-77769747D01*
X71844961Y-77781852D01*
X71998850Y-77855343D01*
X72171550Y-77903349D01*
X72358396Y-77925603D01*
X72554720Y-77921834D01*
X72755858Y-77891773D01*
X72957142Y-77835149D01*
X73039302Y-77804164D01*
X73268982Y-77692556D01*
X73487267Y-77548088D01*
X73694314Y-77370659D01*
X73717190Y-77349093D01*
X73770192Y-77303376D01*
X73808396Y-77277060D01*
X73827453Y-77273325D01*
X73833327Y-77289073D01*
X73846406Y-77334147D01*
X73865182Y-77403532D01*
X73888455Y-77492388D01*
X73915022Y-77595877D01*
X73943681Y-77709160D01*
X73973232Y-77827397D01*
X74002472Y-77945749D01*
X74030200Y-78059379D01*
X74055213Y-78163446D01*
X74076311Y-78253111D01*
X74092292Y-78323536D01*
X74101953Y-78369881D01*
X74104093Y-78387309D01*
X74100359Y-78389644D01*
X74074677Y-78405261D01*
X74033940Y-78429829D01*
X74031673Y-78431203D01*
X73983953Y-78469833D01*
X73968566Y-78508562D01*
X73967869Y-78516331D01*
X73957139Y-78538057D01*
X73929623Y-78563115D01*
X73880425Y-78595396D01*
X73804649Y-78638788D01*
X73552800Y-78764034D01*
X73245945Y-78882142D01*
X72929513Y-78968785D01*
X72608786Y-79022271D01*
X72555390Y-79027448D01*
X72424908Y-79035176D01*
X72280540Y-79038533D01*
X72134405Y-79037518D01*
X71998623Y-79032129D01*
X71885313Y-79022364D01*
X71824299Y-79014156D01*
X71556136Y-78958830D01*
X71304573Y-78874908D01*
X71071318Y-78763618D01*
X70858080Y-78626187D01*
X70666566Y-78463844D01*
X70498484Y-78277815D01*
X70355544Y-78069329D01*
X70239454Y-77839612D01*
X70227857Y-77811647D01*
X70155361Y-77592600D01*
X70108273Y-77361338D01*
X70088117Y-77127863D01*
X70096420Y-76902178D01*
X70103634Y-76841400D01*
X70117915Y-76745542D01*
X70134464Y-76655586D01*
X70151767Y-76578722D01*
X70168310Y-76522140D01*
X70182580Y-76493028D01*
X70182595Y-76493013D01*
X70202307Y-76494067D01*
G37*
G36*
X83588259Y-76444158D02*
G01*
X83557456Y-76546641D01*
X83495268Y-76648111D01*
X83403113Y-76747375D01*
X83282411Y-76843238D01*
X83134577Y-76934507D01*
X82961030Y-77019988D01*
X82763188Y-77098488D01*
X82542469Y-77168812D01*
X82500320Y-77181086D01*
X82435461Y-77201272D01*
X82388063Y-77217721D01*
X82366217Y-77227728D01*
X82367389Y-77242144D01*
X82376196Y-77288004D01*
X82392367Y-77362614D01*
X82415265Y-77463277D01*
X82444252Y-77587298D01*
X82478691Y-77731978D01*
X82517945Y-77894621D01*
X82561376Y-78072531D01*
X82608348Y-78263009D01*
X82658222Y-78463359D01*
X82702025Y-78638609D01*
X82749896Y-78830352D01*
X82794634Y-79009781D01*
X82835573Y-79174206D01*
X82872045Y-79320939D01*
X82903382Y-79447293D01*
X82928917Y-79550578D01*
X82947983Y-79628107D01*
X82959911Y-79677191D01*
X82964036Y-79695142D01*
X82960450Y-79697799D01*
X82932390Y-79702278D01*
X82885587Y-79704049D01*
X82836672Y-79706492D01*
X82812653Y-79718964D01*
X82809786Y-79749067D01*
X82823354Y-79804404D01*
X82839571Y-79860947D01*
X81100771Y-79860947D01*
X79361972Y-79860947D01*
X79251448Y-79403328D01*
X79251297Y-79402702D01*
X79221751Y-79280769D01*
X79194603Y-79169491D01*
X79171003Y-79073518D01*
X79152099Y-78997499D01*
X79139040Y-78946082D01*
X79132976Y-78923919D01*
X79134047Y-78914137D01*
X79158128Y-78904956D01*
X79212841Y-78902127D01*
X79300655Y-78902127D01*
X79284439Y-78845585D01*
X79283815Y-78843395D01*
X79272782Y-78798222D01*
X79268223Y-78767136D01*
X79268761Y-78765692D01*
X79279384Y-78761193D01*
X79305262Y-78757360D01*
X79348573Y-78754147D01*
X79411497Y-78751510D01*
X79496212Y-78749402D01*
X79604898Y-78747779D01*
X79739733Y-78746596D01*
X79902896Y-78745807D01*
X80096567Y-78745366D01*
X80322924Y-78745230D01*
X80533737Y-78745029D01*
X80756553Y-78744257D01*
X80945580Y-78742909D01*
X81100640Y-78740987D01*
X81221553Y-78738495D01*
X81308141Y-78735435D01*
X81360225Y-78731811D01*
X81377626Y-78727625D01*
X81377570Y-78726935D01*
X81372554Y-78702947D01*
X81360068Y-78649407D01*
X81341042Y-78570136D01*
X81316404Y-78468958D01*
X81287087Y-78349693D01*
X81254018Y-78216163D01*
X81218129Y-78072190D01*
X81058633Y-77434359D01*
X80891259Y-77446338D01*
X80803934Y-77452001D01*
X80702294Y-77457634D01*
X80593004Y-77462963D01*
X80482130Y-77467759D01*
X80375739Y-77471791D01*
X80279897Y-77474831D01*
X80200670Y-77476648D01*
X80144124Y-77477012D01*
X80116326Y-77475695D01*
X80093314Y-77460098D01*
X80086541Y-77428911D01*
X80098202Y-77396710D01*
X80126802Y-77377518D01*
X80142759Y-77375463D01*
X80191697Y-77371496D01*
X80266490Y-77366628D01*
X80361832Y-77361174D01*
X80472420Y-77355451D01*
X80592947Y-77349773D01*
X80681870Y-77345672D01*
X80791474Y-77340284D01*
X80885397Y-77335280D01*
X80958852Y-77330932D01*
X81007050Y-77327512D01*
X81025201Y-77325291D01*
X81025826Y-77319121D01*
X81021099Y-77287532D01*
X81010246Y-77239389D01*
X80989959Y-77158819D01*
X80007731Y-77158819D01*
X79025503Y-77158819D01*
X79008270Y-77093445D01*
X79004757Y-77079882D01*
X78992047Y-77029830D01*
X78973115Y-76954589D01*
X78949418Y-76859969D01*
X78922411Y-76751778D01*
X78893551Y-76635827D01*
X78877929Y-76573053D01*
X78850843Y-76464605D01*
X78826884Y-76369177D01*
X78807366Y-76291976D01*
X78793602Y-76238206D01*
X78786906Y-76213074D01*
X78785201Y-76206117D01*
X78789281Y-76191107D01*
X78813375Y-76184220D01*
X78864870Y-76182567D01*
X78951993Y-76182567D01*
X78935777Y-76126024D01*
X78935154Y-76123834D01*
X78924120Y-76078662D01*
X78919561Y-76047575D01*
X78921001Y-76045089D01*
X78934469Y-76040403D01*
X78964025Y-76036483D01*
X79012016Y-76033270D01*
X79080790Y-76030709D01*
X79172693Y-76028742D01*
X79290072Y-76027312D01*
X79435275Y-76026361D01*
X79610648Y-76025832D01*
X79818540Y-76025669D01*
X79965250Y-76025644D01*
X80142158Y-76025478D01*
X80288927Y-76025075D01*
X80408315Y-76024339D01*
X80503076Y-76023177D01*
X80575966Y-76021494D01*
X80629741Y-76019195D01*
X80667155Y-76016186D01*
X80690965Y-76012373D01*
X80703925Y-76007661D01*
X80708792Y-76001955D01*
X80708321Y-75995161D01*
X80707083Y-75990784D01*
X80698001Y-75956154D01*
X80682339Y-75894829D01*
X80661486Y-75812298D01*
X80636831Y-75714052D01*
X80609762Y-75605580D01*
X80602076Y-75574696D01*
X81944823Y-75574696D01*
X81947815Y-75592550D01*
X81958271Y-75640088D01*
X81975193Y-75713234D01*
X81997584Y-75807906D01*
X82024449Y-75920025D01*
X82054790Y-76045513D01*
X82087612Y-76180290D01*
X82121916Y-76320276D01*
X82156708Y-76461392D01*
X82190990Y-76599559D01*
X82223766Y-76730697D01*
X82254039Y-76850727D01*
X82280813Y-76955570D01*
X82303090Y-77041146D01*
X82306721Y-77053973D01*
X82320879Y-77091367D01*
X82332759Y-77106295D01*
X82336553Y-77105552D01*
X82367087Y-77096663D01*
X82422107Y-77079311D01*
X82495339Y-77055500D01*
X82580508Y-77027230D01*
X82590432Y-77023892D01*
X82798286Y-76947146D01*
X82981062Y-76866126D01*
X83137140Y-76781919D01*
X83264902Y-76695614D01*
X83362729Y-76608297D01*
X83429000Y-76521058D01*
X83462097Y-76434983D01*
X83459903Y-76364877D01*
X83425054Y-76285990D01*
X83357577Y-76203848D01*
X83258452Y-76119279D01*
X83128659Y-76033113D01*
X82969177Y-75946178D01*
X82780989Y-75859301D01*
X82743006Y-75843569D01*
X82665421Y-75813303D01*
X82573356Y-75779028D01*
X82472056Y-75742529D01*
X82366763Y-75705589D01*
X82262723Y-75669994D01*
X82165178Y-75637530D01*
X82079373Y-75609981D01*
X82010553Y-75589133D01*
X81963960Y-75576770D01*
X81944838Y-75574677D01*
X81944823Y-75574696D01*
X80602076Y-75574696D01*
X80520399Y-75246508D01*
X80029417Y-75165805D01*
X79815861Y-75131550D01*
X79109257Y-75029564D01*
X78370858Y-74939770D01*
X77601355Y-74862245D01*
X76801442Y-74797070D01*
X76778311Y-74795393D01*
X76664091Y-74787006D01*
X76557951Y-74779052D01*
X76466567Y-74772043D01*
X76396611Y-74766488D01*
X76354760Y-74762899D01*
X76274172Y-74755222D01*
X76298053Y-74854378D01*
X76305428Y-74884722D01*
X76321998Y-74952205D01*
X76344815Y-75044652D01*
X76373018Y-75158601D01*
X76405746Y-75290596D01*
X76442136Y-75437177D01*
X76481328Y-75594884D01*
X76522458Y-75760260D01*
X76564667Y-75929845D01*
X76607092Y-76100180D01*
X76648872Y-76267806D01*
X76689144Y-76429264D01*
X76727048Y-76581096D01*
X76761722Y-76719842D01*
X76792304Y-76842044D01*
X76817933Y-76944242D01*
X76837747Y-77022978D01*
X76850884Y-77074792D01*
X76856484Y-77096226D01*
X76858755Y-77105324D01*
X76856613Y-77116360D01*
X76842116Y-77122528D01*
X76809654Y-77124493D01*
X76753616Y-77122917D01*
X76668393Y-77118463D01*
X76578450Y-77113166D01*
X76438301Y-77103968D01*
X76294016Y-77093523D01*
X76149920Y-77082227D01*
X76010338Y-77070475D01*
X75879594Y-77058664D01*
X75762015Y-77047187D01*
X75661924Y-77036441D01*
X75583648Y-77026822D01*
X75531511Y-77018724D01*
X75509838Y-77012543D01*
X75506947Y-77006070D01*
X75495549Y-76969433D01*
X75476994Y-76903245D01*
X75452014Y-76810327D01*
X75421341Y-76693501D01*
X75385707Y-76555588D01*
X75345843Y-76399409D01*
X75302481Y-76227786D01*
X75256352Y-76043540D01*
X75208189Y-75849492D01*
X74925530Y-74705779D01*
X74782635Y-74694655D01*
X74726116Y-74691764D01*
X74639576Y-74689310D01*
X74528046Y-74687302D01*
X74396467Y-74685738D01*
X74249783Y-74684620D01*
X74092934Y-74683947D01*
X73930863Y-74683719D01*
X73768511Y-74683937D01*
X73610822Y-74684601D01*
X73462736Y-74685711D01*
X73329196Y-74687266D01*
X73215144Y-74689268D01*
X73125521Y-74691716D01*
X73065271Y-74694610D01*
X72906242Y-74705898D01*
X72877519Y-74794850D01*
X72857630Y-74849891D01*
X72813266Y-74952790D01*
X72759304Y-75062357D01*
X72702423Y-75165320D01*
X72649300Y-75248406D01*
X72608117Y-75303664D01*
X72525533Y-75406143D01*
X72427783Y-75520121D01*
X72321460Y-75638329D01*
X72213158Y-75753495D01*
X72109470Y-75858351D01*
X72016990Y-75945626D01*
X71934830Y-76020618D01*
X71836913Y-76113147D01*
X71748127Y-76200447D01*
X71672802Y-76278146D01*
X71615267Y-76341871D01*
X71579849Y-76387248D01*
X71554084Y-76426314D01*
X71187989Y-76332931D01*
X71085402Y-76306357D01*
X70965318Y-76274397D01*
X70844472Y-76241463D01*
X70727792Y-76208960D01*
X70620202Y-76178295D01*
X70526628Y-76150874D01*
X70451997Y-76128101D01*
X70401235Y-76111384D01*
X70379266Y-76102127D01*
X70378870Y-76098595D01*
X70392763Y-76072720D01*
X70426243Y-76025577D01*
X70476627Y-75960571D01*
X70541229Y-75881105D01*
X70617366Y-75790586D01*
X70702352Y-75692415D01*
X70765090Y-75623538D01*
X70853626Y-75531216D01*
X70953132Y-75431281D01*
X71055499Y-75331861D01*
X71152619Y-75241085D01*
X71255664Y-75145806D01*
X71345314Y-75059324D01*
X71415001Y-74986922D01*
X71468448Y-74924504D01*
X71509378Y-74867974D01*
X71541514Y-74813237D01*
X71548805Y-74797456D01*
X71546910Y-74786937D01*
X71528456Y-74783139D01*
X71487402Y-74784999D01*
X71417704Y-74791456D01*
X71211720Y-74813040D01*
X70886955Y-74853644D01*
X70586014Y-74899781D01*
X70310266Y-74951100D01*
X70061078Y-75007247D01*
X69839815Y-75067870D01*
X69647846Y-75132616D01*
X69486537Y-75201131D01*
X69357254Y-75273063D01*
X69261366Y-75348060D01*
X69237077Y-75373270D01*
X69198017Y-75431590D01*
X69190583Y-75487003D01*
X69214981Y-75544897D01*
X69271416Y-75610665D01*
X69361689Y-75687264D01*
X69496543Y-75776090D01*
X69663582Y-75865650D01*
X69861392Y-75955544D01*
X70088556Y-76045372D01*
X70343662Y-76134733D01*
X70625293Y-76223229D01*
X70932035Y-76310459D01*
X71262473Y-76396023D01*
X71615193Y-76479522D01*
X71988778Y-76560555D01*
X72381815Y-76638723D01*
X72792889Y-76713625D01*
X73220585Y-76784863D01*
X73663487Y-76852035D01*
X73724369Y-76860790D01*
X73966877Y-76894815D01*
X74204672Y-76926690D01*
X74440580Y-76956674D01*
X74677426Y-76985027D01*
X74918035Y-77012007D01*
X75165230Y-77037873D01*
X75421838Y-77062884D01*
X75690683Y-77087297D01*
X75974589Y-77111373D01*
X76276381Y-77135370D01*
X76598885Y-77159546D01*
X76944924Y-77184160D01*
X77317324Y-77209471D01*
X77718910Y-77235738D01*
X78152506Y-77263220D01*
X78231976Y-77268260D01*
X78366548Y-77277127D01*
X78489206Y-77285619D01*
X78595372Y-77293395D01*
X78680468Y-77300117D01*
X78739916Y-77305443D01*
X78769138Y-77309034D01*
X78788941Y-77313658D01*
X78808670Y-77325080D01*
X78813602Y-77349827D01*
X78808362Y-77398449D01*
X78806458Y-77413383D01*
X78800097Y-77482549D01*
X78797530Y-77544448D01*
X78795824Y-77579333D01*
X78784598Y-77608145D01*
X78757879Y-77621367D01*
X78752346Y-77622345D01*
X78730172Y-77623671D01*
X78693312Y-77623631D01*
X78639939Y-77622116D01*
X78568228Y-77619019D01*
X78476353Y-77614231D01*
X78362487Y-77607645D01*
X78224805Y-77599153D01*
X78061480Y-77588647D01*
X77870687Y-77576020D01*
X77650600Y-77561162D01*
X77399392Y-77543967D01*
X77115237Y-77524327D01*
X76938468Y-77511911D01*
X76423238Y-77473785D01*
X75938491Y-77434753D01*
X75480929Y-77394412D01*
X75047255Y-77352363D01*
X74634172Y-77308201D01*
X74238384Y-77261527D01*
X73856594Y-77211937D01*
X73485504Y-77159031D01*
X73121818Y-77102407D01*
X72762238Y-77041663D01*
X72403468Y-76976397D01*
X72042210Y-76906208D01*
X71885117Y-76874206D01*
X71470781Y-76784005D01*
X71085507Y-76691293D01*
X70729822Y-76596280D01*
X70404254Y-76499177D01*
X70109330Y-76400193D01*
X69845578Y-76299539D01*
X69613526Y-76197427D01*
X69413701Y-76094065D01*
X69246631Y-75989664D01*
X69112844Y-75884435D01*
X69012867Y-75778588D01*
X68947228Y-75672334D01*
X68921632Y-75586679D01*
X68912985Y-75488397D01*
X68921520Y-75392150D01*
X68947237Y-75312091D01*
X68970085Y-75273716D01*
X69048491Y-75185826D01*
X69160747Y-75102063D01*
X69306285Y-75022680D01*
X69484533Y-74947928D01*
X69694923Y-74878060D01*
X69936883Y-74813327D01*
X70209844Y-74753981D01*
X70219129Y-74752168D01*
X70379121Y-74723217D01*
X70562849Y-74693529D01*
X70759930Y-74664566D01*
X70959979Y-74637790D01*
X71152615Y-74614663D01*
X71327454Y-74596646D01*
X71330933Y-74596325D01*
X71442515Y-74586184D01*
X71524379Y-74578026D01*
X71581317Y-74569916D01*
X71618122Y-74559915D01*
X71639583Y-74546086D01*
X71650494Y-74526492D01*
X71655646Y-74499196D01*
X71659830Y-74462261D01*
X71664737Y-74372528D01*
X71647056Y-74221521D01*
X71599316Y-74072132D01*
X71523823Y-73930771D01*
X71422884Y-73803849D01*
X71400651Y-73781543D01*
X71270249Y-73678592D01*
X71123705Y-73604103D01*
X70963922Y-73557750D01*
X70793806Y-73539210D01*
X70616259Y-73548159D01*
X70434187Y-73584273D01*
X70250492Y-73647229D01*
X70068080Y-73736702D01*
X69889854Y-73852369D01*
X69718719Y-73993905D01*
X69697826Y-74013046D01*
X69651421Y-74053833D01*
X69618013Y-74080706D01*
X69603737Y-74088610D01*
X69602498Y-74085391D01*
X69594188Y-74055542D01*
X69579534Y-73998715D01*
X69559757Y-73919951D01*
X69536077Y-73824291D01*
X69509713Y-73716776D01*
X69481887Y-73602446D01*
X69453818Y-73486343D01*
X69426726Y-73373506D01*
X69401832Y-73268976D01*
X69380356Y-73177795D01*
X69363517Y-73105002D01*
X69352537Y-73055640D01*
X69348635Y-73034747D01*
X69351963Y-73027312D01*
X69377254Y-73003834D01*
X69419228Y-72976583D01*
X69453997Y-72954968D01*
X69478284Y-72929671D01*
X69479191Y-72904024D01*
X69478515Y-72901712D01*
X69478428Y-72883362D01*
X69490743Y-72863986D01*
X69519329Y-72840909D01*
X69568057Y-72811456D01*
X69640797Y-72772950D01*
X69741418Y-72722715D01*
X69946549Y-72632048D01*
X70239335Y-72535400D01*
X70543551Y-72471435D01*
X70858042Y-72440445D01*
X71010888Y-72437229D01*
X71265905Y-72450964D01*
X71504527Y-72490511D01*
X71732369Y-72556951D01*
X71955045Y-72651363D01*
X72050327Y-72701523D01*
X72256157Y-72836699D01*
X72438640Y-72995651D01*
X72596191Y-73175762D01*
X72727227Y-73374417D01*
X72830163Y-73589000D01*
X72903416Y-73816893D01*
X72945401Y-74055481D01*
X72954534Y-74302148D01*
X72948731Y-74487550D01*
X73907550Y-74495217D01*
X74018785Y-74496098D01*
X74191825Y-74497431D01*
X74352114Y-74498620D01*
X74496494Y-74499646D01*
X74621804Y-74500486D01*
X74724887Y-74501121D01*
X74802583Y-74501528D01*
X74851732Y-74501688D01*
X74869175Y-74501579D01*
X74868631Y-74496859D01*
X74862067Y-74465060D01*
X74849361Y-74408291D01*
X74831839Y-74332417D01*
X74810826Y-74243307D01*
X74749671Y-73986341D01*
X73939145Y-73981811D01*
X73128619Y-73977282D01*
X73010512Y-73502230D01*
X72892405Y-73027179D01*
X72978400Y-73027179D01*
X72996479Y-73027065D01*
X73038841Y-73024119D01*
X73055988Y-73014967D01*
X73055332Y-72996671D01*
X73046747Y-72965520D01*
X73034834Y-72918222D01*
X73023400Y-72870281D01*
X75273485Y-72870281D01*
X77523571Y-72870281D01*
X77540808Y-72935655D01*
X77545764Y-72954828D01*
X77559488Y-73008813D01*
X77579327Y-73087421D01*
X77603876Y-73185061D01*
X77631726Y-73296139D01*
X77661470Y-73415065D01*
X77764895Y-73829100D01*
X77677881Y-73829100D01*
X77636448Y-73829582D01*
X77608088Y-73835413D01*
X77598410Y-73853638D01*
X77604338Y-73891312D01*
X77622799Y-73955490D01*
X77623515Y-73961817D01*
X77619343Y-73968005D01*
X77606962Y-73973040D01*
X77583412Y-73977041D01*
X77545730Y-73980125D01*
X77490954Y-73982411D01*
X77416122Y-73984017D01*
X77318272Y-73985061D01*
X77194442Y-73985660D01*
X77041670Y-73985933D01*
X76856994Y-73985998D01*
X76082126Y-73985998D01*
X76155183Y-74278002D01*
X76228241Y-74570006D01*
X76410243Y-74582981D01*
X77118910Y-74639502D01*
X77874311Y-74713402D01*
X78609148Y-74799733D01*
X79319242Y-74898002D01*
X80000412Y-75007712D01*
X80001497Y-75007900D01*
X80124089Y-75029314D01*
X80235204Y-75049052D01*
X80330266Y-75066274D01*
X80404694Y-75080141D01*
X80453911Y-75089812D01*
X80473339Y-75094449D01*
X80473747Y-75094548D01*
X80473133Y-75078263D01*
X80465123Y-75035017D01*
X80450975Y-74970959D01*
X80431948Y-74892234D01*
X80379608Y-74683321D01*
X79243317Y-74683321D01*
X78107026Y-74683321D01*
X77987476Y-74216987D01*
X77985102Y-74207727D01*
X77953658Y-74085408D01*
X77924870Y-73973990D01*
X77899935Y-73878050D01*
X77880044Y-73802164D01*
X77866391Y-73750909D01*
X77860170Y-73728860D01*
X77861283Y-73719166D01*
X77885419Y-73709922D01*
X77940226Y-73707069D01*
X78028040Y-73707069D01*
X78011824Y-73650526D01*
X78011205Y-73648352D01*
X78000168Y-73603145D01*
X77995608Y-73571993D01*
X77996201Y-73570763D01*
X78006385Y-73567184D01*
X78030536Y-73564057D01*
X78070394Y-73561365D01*
X78127702Y-73559090D01*
X78204202Y-73557215D01*
X78301634Y-73555720D01*
X78421740Y-73554589D01*
X78566263Y-73553804D01*
X78736943Y-73553347D01*
X78935522Y-73553200D01*
X79163742Y-73553346D01*
X79423344Y-73553767D01*
X79716070Y-73554444D01*
X81436532Y-73558888D01*
X81669672Y-74491723D01*
X81902813Y-75424559D01*
X82173283Y-75507423D01*
X82219019Y-75521558D01*
X82506742Y-75616874D01*
X82761136Y-75712979D01*
X82981981Y-75809748D01*
X83169058Y-75907056D01*
X83322147Y-76004781D01*
X83441029Y-76102797D01*
X83525484Y-76200982D01*
X83575293Y-76299211D01*
X83586261Y-76341856D01*
X83588080Y-76434983D01*
X83588259Y-76444158D01*
G37*
%TD*%
M02*
