%TF.GenerationSoftware,KiCad,Pcbnew,7.0.11+dfsg-1build4*%
%TF.CreationDate,2026-05-04T20:06:30+02:00*%
%TF.ProjectId,V5,56352e6b-6963-4616-945f-706362585858,rev?*%
%TF.SameCoordinates,Original*%
%TF.FileFunction,Soldermask,Bot*%
%TF.FilePolarity,Negative*%
%FSLAX46Y46*%
G04 Gerber Fmt 4.6, Leading zero omitted, Abs format (unit mm)*
G04 Created by KiCad (PCBNEW 7.0.11+dfsg-1build4) date 2026-05-04 20:06:30*
%MOMM*%
%LPD*%
G01*
G04 APERTURE LIST*
%ADD10O,1.900000X1.524000*%
%ADD11C,1.600000*%
%ADD12O,1.600000X1.600000*%
%ADD13R,1.700000X1.700000*%
%ADD14O,1.700000X1.700000*%
G04 APERTURE END LIST*
D10*
%TO.C,U6*%
X86360000Y-68580000D03*
X86360000Y-66040000D03*
X86360000Y-63500000D03*
X86360000Y-60960000D03*
X86360000Y-58420000D03*
X86360000Y-55880000D03*
X86360000Y-53340000D03*
X86360000Y-50800000D03*
X86360000Y-48260000D03*
X86360000Y-45720000D03*
X86360000Y-43180000D03*
X86360000Y-40640000D03*
X86360000Y-38100000D03*
X86360000Y-35560000D03*
X86360000Y-33020000D03*
X111760000Y-33020000D03*
X111760000Y-35560000D03*
X111760000Y-38100000D03*
X111760000Y-40640000D03*
X111760000Y-43180000D03*
X111760000Y-45720000D03*
X111760000Y-48260000D03*
X111760000Y-50800000D03*
X111760000Y-53340000D03*
X111760000Y-55880000D03*
X111760000Y-58420000D03*
X111760000Y-60960000D03*
X111760000Y-63500000D03*
X111760000Y-66040000D03*
X111760000Y-68580000D03*
%TD*%
D11*
%TO.C,BT1*%
X43180000Y-121920000D03*
D12*
X43180000Y-127000000D03*
%TD*%
D11*
%TO.C,R9*%
X58420000Y-63500000D03*
D12*
X63500000Y-63500000D03*
%TD*%
D13*
%TO.C,J2*%
X43180000Y-40640000D03*
D14*
X43180000Y-43180000D03*
%TD*%
D11*
%TO.C,R8*%
X58420000Y-55880000D03*
D12*
X63500000Y-55880000D03*
%TD*%
D11*
%TO.C,R11*%
X121920000Y-20320000D03*
D12*
X121920000Y-25400000D03*
%TD*%
D13*
%TO.C,J3*%
X43180000Y-50800000D03*
D14*
X43180000Y-53340000D03*
%TD*%
D11*
%TO.C,R12*%
X58420000Y-40640000D03*
D12*
X63500000Y-40640000D03*
%TD*%
D11*
%TO.C,BT4*%
X43180000Y-88900000D03*
D12*
X43180000Y-83820000D03*
%TD*%
D11*
%TO.C,R10*%
X58420000Y-71120000D03*
D12*
X63500000Y-71120000D03*
%TD*%
D11*
%TO.C,BT3*%
X43180000Y-101600000D03*
D12*
X43180000Y-96520000D03*
%TD*%
D13*
%TO.C,D1*%
X121920000Y-45720000D03*
D14*
X121920000Y-43180000D03*
%TD*%
D11*
%TO.C,R1*%
X121920000Y-55880000D03*
D12*
X121920000Y-50800000D03*
%TD*%
D13*
%TO.C,D3*%
X121920000Y-30480000D03*
D14*
X121920000Y-33020000D03*
%TD*%
D13*
%TO.C,J6*%
X43180000Y-30480000D03*
D14*
X43180000Y-33020000D03*
%TD*%
D13*
%TO.C,J5*%
X43180000Y-71120000D03*
D14*
X43180000Y-73660000D03*
%TD*%
D11*
%TO.C,R3*%
X96520000Y-129540000D03*
D12*
X91440000Y-129540000D03*
%TD*%
D11*
%TO.C,R7*%
X58420000Y-48260000D03*
D12*
X63500000Y-48260000D03*
%TD*%
D11*
%TO.C,R2*%
X106680000Y-129540000D03*
D12*
X101600000Y-129540000D03*
%TD*%
D11*
%TO.C,R4*%
X119380000Y-120650000D03*
D12*
X119380000Y-115570000D03*
%TD*%
D11*
%TO.C,R6*%
X58420000Y-27940000D03*
D12*
X63500000Y-27940000D03*
%TD*%
D13*
%TO.C,C1*%
X119380000Y-129540000D03*
D14*
X116840000Y-129540000D03*
%TD*%
D11*
%TO.C,R5*%
X43180000Y-25400000D03*
D12*
X43180000Y-20320000D03*
%TD*%
D13*
%TO.C,J4*%
X43180000Y-60960000D03*
D14*
X43180000Y-63500000D03*
%TD*%
D13*
%TO.C,D2*%
X119380000Y-110490000D03*
D14*
X119380000Y-107950000D03*
%TD*%
D13*
%TO.C,J1*%
X48260000Y-132080000D03*
D14*
X50800000Y-132080000D03*
%TD*%
D11*
%TO.C,BT2*%
X43180000Y-114300000D03*
D12*
X43180000Y-109220000D03*
%TD*%
M02*
