%TF.GenerationSoftware,KiCad,Pcbnew,7.0.11+dfsg-1build4*%
%TF.CreationDate,2026-05-04T20:06:30+02:00*%
%TF.ProjectId,V5,56352e6b-6963-4616-945f-706362585858,rev?*%
%TF.SameCoordinates,Original*%
%TF.FileFunction,Legend,Top*%
%TF.FilePolarity,Positive*%
%FSLAX46Y46*%
G04 Gerber Fmt 4.6, Leading zero omitted, Abs format (unit mm)*
G04 Created by KiCad (PCBNEW 7.0.11+dfsg-1build4) date 2026-05-04 20:06:30*
%MOMM*%
%LPD*%
G01*
G04 APERTURE LIST*
%ADD10C,0.150000*%
%ADD11C,0.100000*%
%ADD12C,0.200000*%
%ADD13C,0.120000*%
%ADD14C,0.152400*%
G04 APERTURE END LIST*
D10*
X98014819Y-52196904D02*
X98824342Y-52196904D01*
X98824342Y-52196904D02*
X98919580Y-52149285D01*
X98919580Y-52149285D02*
X98967200Y-52101666D01*
X98967200Y-52101666D02*
X99014819Y-52006428D01*
X99014819Y-52006428D02*
X99014819Y-51815952D01*
X99014819Y-51815952D02*
X98967200Y-51720714D01*
X98967200Y-51720714D02*
X98919580Y-51673095D01*
X98919580Y-51673095D02*
X98824342Y-51625476D01*
X98824342Y-51625476D02*
X98014819Y-51625476D01*
X98014819Y-50720714D02*
X98014819Y-50911190D01*
X98014819Y-50911190D02*
X98062438Y-51006428D01*
X98062438Y-51006428D02*
X98110057Y-51054047D01*
X98110057Y-51054047D02*
X98252914Y-51149285D01*
X98252914Y-51149285D02*
X98443390Y-51196904D01*
X98443390Y-51196904D02*
X98824342Y-51196904D01*
X98824342Y-51196904D02*
X98919580Y-51149285D01*
X98919580Y-51149285D02*
X98967200Y-51101666D01*
X98967200Y-51101666D02*
X99014819Y-51006428D01*
X99014819Y-51006428D02*
X99014819Y-50815952D01*
X99014819Y-50815952D02*
X98967200Y-50720714D01*
X98967200Y-50720714D02*
X98919580Y-50673095D01*
X98919580Y-50673095D02*
X98824342Y-50625476D01*
X98824342Y-50625476D02*
X98586247Y-50625476D01*
X98586247Y-50625476D02*
X98491009Y-50673095D01*
X98491009Y-50673095D02*
X98443390Y-50720714D01*
X98443390Y-50720714D02*
X98395771Y-50815952D01*
X98395771Y-50815952D02*
X98395771Y-51006428D01*
X98395771Y-51006428D02*
X98443390Y-51101666D01*
X98443390Y-51101666D02*
X98491009Y-51149285D01*
X98491009Y-51149285D02*
X98586247Y-51196904D01*
D11*
X87931289Y-53873056D02*
X87931289Y-53139722D01*
X87931289Y-53139722D02*
X88931289Y-53611151D01*
X109133962Y-69049385D02*
X109133962Y-68368432D01*
X109133962Y-68368432D02*
X109514914Y-68735099D01*
X109514914Y-68735099D02*
X109514914Y-68577956D01*
X109514914Y-68577956D02*
X109562533Y-68473194D01*
X109562533Y-68473194D02*
X109610152Y-68420813D01*
X109610152Y-68420813D02*
X109705390Y-68368432D01*
X109705390Y-68368432D02*
X109943485Y-68368432D01*
X109943485Y-68368432D02*
X110038723Y-68420813D01*
X110038723Y-68420813D02*
X110086343Y-68473194D01*
X110086343Y-68473194D02*
X110133962Y-68577956D01*
X110133962Y-68577956D02*
X110133962Y-68892242D01*
X110133962Y-68892242D02*
X110086343Y-68997004D01*
X110086343Y-68997004D02*
X110038723Y-69049385D01*
X109133962Y-67687480D02*
X109133962Y-67582718D01*
X109133962Y-67582718D02*
X109181581Y-67477956D01*
X109181581Y-67477956D02*
X109229200Y-67425575D01*
X109229200Y-67425575D02*
X109324438Y-67373194D01*
X109324438Y-67373194D02*
X109514914Y-67320813D01*
X109514914Y-67320813D02*
X109753009Y-67320813D01*
X109753009Y-67320813D02*
X109943485Y-67373194D01*
X109943485Y-67373194D02*
X110038723Y-67425575D01*
X110038723Y-67425575D02*
X110086343Y-67477956D01*
X110086343Y-67477956D02*
X110133962Y-67582718D01*
X110133962Y-67582718D02*
X110133962Y-67687480D01*
X110133962Y-67687480D02*
X110086343Y-67792242D01*
X110086343Y-67792242D02*
X110038723Y-67844623D01*
X110038723Y-67844623D02*
X109943485Y-67897004D01*
X109943485Y-67897004D02*
X109753009Y-67949385D01*
X109753009Y-67949385D02*
X109514914Y-67949385D01*
X109514914Y-67949385D02*
X109324438Y-67897004D01*
X109324438Y-67897004D02*
X109229200Y-67844623D01*
X109229200Y-67844623D02*
X109181581Y-67792242D01*
X109181581Y-67792242D02*
X109133962Y-67687480D01*
X109229200Y-56297004D02*
X109181581Y-56244623D01*
X109181581Y-56244623D02*
X109133962Y-56139861D01*
X109133962Y-56139861D02*
X109133962Y-55877956D01*
X109133962Y-55877956D02*
X109181581Y-55773194D01*
X109181581Y-55773194D02*
X109229200Y-55720813D01*
X109229200Y-55720813D02*
X109324438Y-55668432D01*
X109324438Y-55668432D02*
X109419676Y-55668432D01*
X109419676Y-55668432D02*
X109562533Y-55720813D01*
X109562533Y-55720813D02*
X110133962Y-56349385D01*
X110133962Y-56349385D02*
X110133962Y-55668432D01*
X109133962Y-54673194D02*
X109133962Y-55197004D01*
X109133962Y-55197004D02*
X109610152Y-55249385D01*
X109610152Y-55249385D02*
X109562533Y-55197004D01*
X109562533Y-55197004D02*
X109514914Y-55092242D01*
X109514914Y-55092242D02*
X109514914Y-54830337D01*
X109514914Y-54830337D02*
X109562533Y-54725575D01*
X109562533Y-54725575D02*
X109610152Y-54673194D01*
X109610152Y-54673194D02*
X109705390Y-54620813D01*
X109705390Y-54620813D02*
X109943485Y-54620813D01*
X109943485Y-54620813D02*
X110038723Y-54673194D01*
X110038723Y-54673194D02*
X110086343Y-54725575D01*
X110086343Y-54725575D02*
X110133962Y-54830337D01*
X110133962Y-54830337D02*
X110133962Y-55092242D01*
X110133962Y-55092242D02*
X110086343Y-55197004D01*
X110086343Y-55197004D02*
X110038723Y-55249385D01*
X109173948Y-43697958D02*
X109126329Y-43645577D01*
X109126329Y-43645577D02*
X109078710Y-43540815D01*
X109078710Y-43540815D02*
X109078710Y-43278910D01*
X109078710Y-43278910D02*
X109126329Y-43174148D01*
X109126329Y-43174148D02*
X109173948Y-43121767D01*
X109173948Y-43121767D02*
X109269186Y-43069386D01*
X109269186Y-43069386D02*
X109364424Y-43069386D01*
X109364424Y-43069386D02*
X109507281Y-43121767D01*
X109507281Y-43121767D02*
X110078710Y-43750339D01*
X110078710Y-43750339D02*
X110078710Y-43069386D01*
X109078710Y-42388434D02*
X109078710Y-42283672D01*
X109078710Y-42283672D02*
X109126329Y-42178910D01*
X109126329Y-42178910D02*
X109173948Y-42126529D01*
X109173948Y-42126529D02*
X109269186Y-42074148D01*
X109269186Y-42074148D02*
X109459662Y-42021767D01*
X109459662Y-42021767D02*
X109697757Y-42021767D01*
X109697757Y-42021767D02*
X109888233Y-42074148D01*
X109888233Y-42074148D02*
X109983471Y-42126529D01*
X109983471Y-42126529D02*
X110031091Y-42178910D01*
X110031091Y-42178910D02*
X110078710Y-42283672D01*
X110078710Y-42283672D02*
X110078710Y-42388434D01*
X110078710Y-42388434D02*
X110031091Y-42493196D01*
X110031091Y-42493196D02*
X109983471Y-42545577D01*
X109983471Y-42545577D02*
X109888233Y-42597958D01*
X109888233Y-42597958D02*
X109697757Y-42650339D01*
X109697757Y-42650339D02*
X109459662Y-42650339D01*
X109459662Y-42650339D02*
X109269186Y-42597958D01*
X109269186Y-42597958D02*
X109173948Y-42545577D01*
X109173948Y-42545577D02*
X109126329Y-42493196D01*
X109126329Y-42493196D02*
X109078710Y-42388434D01*
X110073357Y-38101326D02*
X110073357Y-38729898D01*
X110073357Y-38415612D02*
X109073357Y-38415612D01*
X109073357Y-38415612D02*
X109216214Y-38520374D01*
X109216214Y-38520374D02*
X109311452Y-38625136D01*
X109311452Y-38625136D02*
X109359071Y-38729898D01*
X109501928Y-37472755D02*
X109454309Y-37577517D01*
X109454309Y-37577517D02*
X109406690Y-37629898D01*
X109406690Y-37629898D02*
X109311452Y-37682279D01*
X109311452Y-37682279D02*
X109263833Y-37682279D01*
X109263833Y-37682279D02*
X109168595Y-37629898D01*
X109168595Y-37629898D02*
X109120976Y-37577517D01*
X109120976Y-37577517D02*
X109073357Y-37472755D01*
X109073357Y-37472755D02*
X109073357Y-37263231D01*
X109073357Y-37263231D02*
X109120976Y-37158469D01*
X109120976Y-37158469D02*
X109168595Y-37106088D01*
X109168595Y-37106088D02*
X109263833Y-37053707D01*
X109263833Y-37053707D02*
X109311452Y-37053707D01*
X109311452Y-37053707D02*
X109406690Y-37106088D01*
X109406690Y-37106088D02*
X109454309Y-37158469D01*
X109454309Y-37158469D02*
X109501928Y-37263231D01*
X109501928Y-37263231D02*
X109501928Y-37472755D01*
X109501928Y-37472755D02*
X109549547Y-37577517D01*
X109549547Y-37577517D02*
X109597166Y-37629898D01*
X109597166Y-37629898D02*
X109692404Y-37682279D01*
X109692404Y-37682279D02*
X109882880Y-37682279D01*
X109882880Y-37682279D02*
X109978118Y-37629898D01*
X109978118Y-37629898D02*
X110025738Y-37577517D01*
X110025738Y-37577517D02*
X110073357Y-37472755D01*
X110073357Y-37472755D02*
X110073357Y-37263231D01*
X110073357Y-37263231D02*
X110025738Y-37158469D01*
X110025738Y-37158469D02*
X109978118Y-37106088D01*
X109978118Y-37106088D02*
X109882880Y-37053707D01*
X109882880Y-37053707D02*
X109692404Y-37053707D01*
X109692404Y-37053707D02*
X109597166Y-37106088D01*
X109597166Y-37106088D02*
X109549547Y-37158469D01*
X109549547Y-37158469D02*
X109501928Y-37263231D01*
X88870296Y-43580403D02*
X88870296Y-44208975D01*
X88870296Y-43894689D02*
X87870296Y-43894689D01*
X87870296Y-43894689D02*
X88013153Y-43999451D01*
X88013153Y-43999451D02*
X88108391Y-44104213D01*
X88108391Y-44104213D02*
X88156010Y-44208975D01*
X88870296Y-42532784D02*
X88870296Y-43161356D01*
X88870296Y-42847070D02*
X87870296Y-42847070D01*
X87870296Y-42847070D02*
X88013153Y-42951832D01*
X88013153Y-42951832D02*
X88108391Y-43056594D01*
X88108391Y-43056594D02*
X88156010Y-43161356D01*
X109229200Y-58837004D02*
X109181581Y-58784623D01*
X109181581Y-58784623D02*
X109133962Y-58679861D01*
X109133962Y-58679861D02*
X109133962Y-58417956D01*
X109133962Y-58417956D02*
X109181581Y-58313194D01*
X109181581Y-58313194D02*
X109229200Y-58260813D01*
X109229200Y-58260813D02*
X109324438Y-58208432D01*
X109324438Y-58208432D02*
X109419676Y-58208432D01*
X109419676Y-58208432D02*
X109562533Y-58260813D01*
X109562533Y-58260813D02*
X110133962Y-58889385D01*
X110133962Y-58889385D02*
X110133962Y-58208432D01*
X109133962Y-57265575D02*
X109133962Y-57475099D01*
X109133962Y-57475099D02*
X109181581Y-57579861D01*
X109181581Y-57579861D02*
X109229200Y-57632242D01*
X109229200Y-57632242D02*
X109372057Y-57737004D01*
X109372057Y-57737004D02*
X109562533Y-57789385D01*
X109562533Y-57789385D02*
X109943485Y-57789385D01*
X109943485Y-57789385D02*
X110038723Y-57737004D01*
X110038723Y-57737004D02*
X110086343Y-57684623D01*
X110086343Y-57684623D02*
X110133962Y-57579861D01*
X110133962Y-57579861D02*
X110133962Y-57370337D01*
X110133962Y-57370337D02*
X110086343Y-57265575D01*
X110086343Y-57265575D02*
X110038723Y-57213194D01*
X110038723Y-57213194D02*
X109943485Y-57160813D01*
X109943485Y-57160813D02*
X109705390Y-57160813D01*
X109705390Y-57160813D02*
X109610152Y-57213194D01*
X109610152Y-57213194D02*
X109562533Y-57265575D01*
X109562533Y-57265575D02*
X109514914Y-57370337D01*
X109514914Y-57370337D02*
X109514914Y-57579861D01*
X109514914Y-57579861D02*
X109562533Y-57684623D01*
X109562533Y-57684623D02*
X109610152Y-57737004D01*
X109610152Y-57737004D02*
X109705390Y-57789385D01*
X109173948Y-51317958D02*
X109126329Y-51265577D01*
X109126329Y-51265577D02*
X109078710Y-51160815D01*
X109078710Y-51160815D02*
X109078710Y-50898910D01*
X109078710Y-50898910D02*
X109126329Y-50794148D01*
X109126329Y-50794148D02*
X109173948Y-50741767D01*
X109173948Y-50741767D02*
X109269186Y-50689386D01*
X109269186Y-50689386D02*
X109364424Y-50689386D01*
X109364424Y-50689386D02*
X109507281Y-50741767D01*
X109507281Y-50741767D02*
X110078710Y-51370339D01*
X110078710Y-51370339D02*
X110078710Y-50689386D01*
X109078710Y-50322720D02*
X109078710Y-49641767D01*
X109078710Y-49641767D02*
X109459662Y-50008434D01*
X109459662Y-50008434D02*
X109459662Y-49851291D01*
X109459662Y-49851291D02*
X109507281Y-49746529D01*
X109507281Y-49746529D02*
X109554900Y-49694148D01*
X109554900Y-49694148D02*
X109650138Y-49641767D01*
X109650138Y-49641767D02*
X109888233Y-49641767D01*
X109888233Y-49641767D02*
X109983471Y-49694148D01*
X109983471Y-49694148D02*
X110031091Y-49746529D01*
X110031091Y-49746529D02*
X110078710Y-49851291D01*
X110078710Y-49851291D02*
X110078710Y-50165577D01*
X110078710Y-50165577D02*
X110031091Y-50270339D01*
X110031091Y-50270339D02*
X109983471Y-50322720D01*
X88026527Y-66520675D02*
X87978908Y-66468294D01*
X87978908Y-66468294D02*
X87931289Y-66363532D01*
X87931289Y-66363532D02*
X87931289Y-66101627D01*
X87931289Y-66101627D02*
X87978908Y-65996865D01*
X87978908Y-65996865D02*
X88026527Y-65944484D01*
X88026527Y-65944484D02*
X88121765Y-65892103D01*
X88121765Y-65892103D02*
X88217003Y-65892103D01*
X88217003Y-65892103D02*
X88359860Y-65944484D01*
X88359860Y-65944484D02*
X88931289Y-66573056D01*
X88931289Y-66573056D02*
X88931289Y-65892103D01*
X87931289Y-58324484D02*
X87931289Y-58848294D01*
X87931289Y-58848294D02*
X88407479Y-58900675D01*
X88407479Y-58900675D02*
X88359860Y-58848294D01*
X88359860Y-58848294D02*
X88312241Y-58743532D01*
X88312241Y-58743532D02*
X88312241Y-58481627D01*
X88312241Y-58481627D02*
X88359860Y-58376865D01*
X88359860Y-58376865D02*
X88407479Y-58324484D01*
X88407479Y-58324484D02*
X88502717Y-58272103D01*
X88502717Y-58272103D02*
X88740812Y-58272103D01*
X88740812Y-58272103D02*
X88836050Y-58324484D01*
X88836050Y-58324484D02*
X88883670Y-58376865D01*
X88883670Y-58376865D02*
X88931289Y-58481627D01*
X88931289Y-58481627D02*
X88931289Y-58743532D01*
X88931289Y-58743532D02*
X88883670Y-58848294D01*
X88883670Y-58848294D02*
X88836050Y-58900675D01*
X109229200Y-61377004D02*
X109181581Y-61324623D01*
X109181581Y-61324623D02*
X109133962Y-61219861D01*
X109133962Y-61219861D02*
X109133962Y-60957956D01*
X109133962Y-60957956D02*
X109181581Y-60853194D01*
X109181581Y-60853194D02*
X109229200Y-60800813D01*
X109229200Y-60800813D02*
X109324438Y-60748432D01*
X109324438Y-60748432D02*
X109419676Y-60748432D01*
X109419676Y-60748432D02*
X109562533Y-60800813D01*
X109562533Y-60800813D02*
X110133962Y-61429385D01*
X110133962Y-61429385D02*
X110133962Y-60748432D01*
X109133962Y-60381766D02*
X109133962Y-59648432D01*
X109133962Y-59648432D02*
X110133962Y-60119861D01*
X88359860Y-51071151D02*
X88312241Y-51175913D01*
X88312241Y-51175913D02*
X88264622Y-51228294D01*
X88264622Y-51228294D02*
X88169384Y-51280675D01*
X88169384Y-51280675D02*
X88121765Y-51280675D01*
X88121765Y-51280675D02*
X88026527Y-51228294D01*
X88026527Y-51228294D02*
X87978908Y-51175913D01*
X87978908Y-51175913D02*
X87931289Y-51071151D01*
X87931289Y-51071151D02*
X87931289Y-50861627D01*
X87931289Y-50861627D02*
X87978908Y-50756865D01*
X87978908Y-50756865D02*
X88026527Y-50704484D01*
X88026527Y-50704484D02*
X88121765Y-50652103D01*
X88121765Y-50652103D02*
X88169384Y-50652103D01*
X88169384Y-50652103D02*
X88264622Y-50704484D01*
X88264622Y-50704484D02*
X88312241Y-50756865D01*
X88312241Y-50756865D02*
X88359860Y-50861627D01*
X88359860Y-50861627D02*
X88359860Y-51071151D01*
X88359860Y-51071151D02*
X88407479Y-51175913D01*
X88407479Y-51175913D02*
X88455098Y-51228294D01*
X88455098Y-51228294D02*
X88550336Y-51280675D01*
X88550336Y-51280675D02*
X88740812Y-51280675D01*
X88740812Y-51280675D02*
X88836050Y-51228294D01*
X88836050Y-51228294D02*
X88883670Y-51175913D01*
X88883670Y-51175913D02*
X88931289Y-51071151D01*
X88931289Y-51071151D02*
X88931289Y-50861627D01*
X88931289Y-50861627D02*
X88883670Y-50756865D01*
X88883670Y-50756865D02*
X88836050Y-50704484D01*
X88836050Y-50704484D02*
X88740812Y-50652103D01*
X88740812Y-50652103D02*
X88550336Y-50652103D01*
X88550336Y-50652103D02*
X88455098Y-50704484D01*
X88455098Y-50704484D02*
X88407479Y-50756865D01*
X88407479Y-50756865D02*
X88359860Y-50861627D01*
X88870296Y-35960403D02*
X88870296Y-36588975D01*
X88870296Y-36274689D02*
X87870296Y-36274689D01*
X87870296Y-36274689D02*
X88013153Y-36379451D01*
X88013153Y-36379451D02*
X88108391Y-36484213D01*
X88108391Y-36484213D02*
X88156010Y-36588975D01*
X88203629Y-35017546D02*
X88870296Y-35017546D01*
X87822677Y-35279451D02*
X88536962Y-35541356D01*
X88536962Y-35541356D02*
X88536962Y-34860403D01*
X109173948Y-53857958D02*
X109126329Y-53805577D01*
X109126329Y-53805577D02*
X109078710Y-53700815D01*
X109078710Y-53700815D02*
X109078710Y-53438910D01*
X109078710Y-53438910D02*
X109126329Y-53334148D01*
X109126329Y-53334148D02*
X109173948Y-53281767D01*
X109173948Y-53281767D02*
X109269186Y-53229386D01*
X109269186Y-53229386D02*
X109364424Y-53229386D01*
X109364424Y-53229386D02*
X109507281Y-53281767D01*
X109507281Y-53281767D02*
X110078710Y-53910339D01*
X110078710Y-53910339D02*
X110078710Y-53229386D01*
X109412043Y-52286529D02*
X110078710Y-52286529D01*
X109031091Y-52548434D02*
X109745376Y-52810339D01*
X109745376Y-52810339D02*
X109745376Y-52129386D01*
X110073357Y-33021326D02*
X110073357Y-33649898D01*
X110073357Y-33335612D02*
X109073357Y-33335612D01*
X109073357Y-33335612D02*
X109216214Y-33440374D01*
X109216214Y-33440374D02*
X109311452Y-33545136D01*
X109311452Y-33545136D02*
X109359071Y-33649898D01*
X109073357Y-32078469D02*
X109073357Y-32287993D01*
X109073357Y-32287993D02*
X109120976Y-32392755D01*
X109120976Y-32392755D02*
X109168595Y-32445136D01*
X109168595Y-32445136D02*
X109311452Y-32549898D01*
X109311452Y-32549898D02*
X109501928Y-32602279D01*
X109501928Y-32602279D02*
X109882880Y-32602279D01*
X109882880Y-32602279D02*
X109978118Y-32549898D01*
X109978118Y-32549898D02*
X110025738Y-32497517D01*
X110025738Y-32497517D02*
X110073357Y-32392755D01*
X110073357Y-32392755D02*
X110073357Y-32183231D01*
X110073357Y-32183231D02*
X110025738Y-32078469D01*
X110025738Y-32078469D02*
X109978118Y-32026088D01*
X109978118Y-32026088D02*
X109882880Y-31973707D01*
X109882880Y-31973707D02*
X109644785Y-31973707D01*
X109644785Y-31973707D02*
X109549547Y-32026088D01*
X109549547Y-32026088D02*
X109501928Y-32078469D01*
X109501928Y-32078469D02*
X109454309Y-32183231D01*
X109454309Y-32183231D02*
X109454309Y-32392755D01*
X109454309Y-32392755D02*
X109501928Y-32497517D01*
X109501928Y-32497517D02*
X109549547Y-32549898D01*
X109549547Y-32549898D02*
X109644785Y-32602279D01*
X87931289Y-55836865D02*
X87931289Y-56046389D01*
X87931289Y-56046389D02*
X87978908Y-56151151D01*
X87978908Y-56151151D02*
X88026527Y-56203532D01*
X88026527Y-56203532D02*
X88169384Y-56308294D01*
X88169384Y-56308294D02*
X88359860Y-56360675D01*
X88359860Y-56360675D02*
X88740812Y-56360675D01*
X88740812Y-56360675D02*
X88836050Y-56308294D01*
X88836050Y-56308294D02*
X88883670Y-56255913D01*
X88883670Y-56255913D02*
X88931289Y-56151151D01*
X88931289Y-56151151D02*
X88931289Y-55941627D01*
X88931289Y-55941627D02*
X88883670Y-55836865D01*
X88883670Y-55836865D02*
X88836050Y-55784484D01*
X88836050Y-55784484D02*
X88740812Y-55732103D01*
X88740812Y-55732103D02*
X88502717Y-55732103D01*
X88502717Y-55732103D02*
X88407479Y-55784484D01*
X88407479Y-55784484D02*
X88359860Y-55836865D01*
X88359860Y-55836865D02*
X88312241Y-55941627D01*
X88312241Y-55941627D02*
X88312241Y-56151151D01*
X88312241Y-56151151D02*
X88359860Y-56255913D01*
X88359860Y-56255913D02*
X88407479Y-56308294D01*
X88407479Y-56308294D02*
X88502717Y-56360675D01*
X88264622Y-60916865D02*
X88931289Y-60916865D01*
X87883670Y-61178770D02*
X88597955Y-61440675D01*
X88597955Y-61440675D02*
X88597955Y-60759722D01*
X110078710Y-40529386D02*
X110078710Y-41157958D01*
X110078710Y-40843672D02*
X109078710Y-40843672D01*
X109078710Y-40843672D02*
X109221567Y-40948434D01*
X109221567Y-40948434D02*
X109316805Y-41053196D01*
X109316805Y-41053196D02*
X109364424Y-41157958D01*
X110078710Y-40005577D02*
X110078710Y-39796053D01*
X110078710Y-39796053D02*
X110031091Y-39691291D01*
X110031091Y-39691291D02*
X109983471Y-39638910D01*
X109983471Y-39638910D02*
X109840614Y-39534148D01*
X109840614Y-39534148D02*
X109650138Y-39481767D01*
X109650138Y-39481767D02*
X109269186Y-39481767D01*
X109269186Y-39481767D02*
X109173948Y-39534148D01*
X109173948Y-39534148D02*
X109126329Y-39586529D01*
X109126329Y-39586529D02*
X109078710Y-39691291D01*
X109078710Y-39691291D02*
X109078710Y-39900815D01*
X109078710Y-39900815D02*
X109126329Y-40005577D01*
X109126329Y-40005577D02*
X109173948Y-40057958D01*
X109173948Y-40057958D02*
X109269186Y-40110339D01*
X109269186Y-40110339D02*
X109507281Y-40110339D01*
X109507281Y-40110339D02*
X109602519Y-40057958D01*
X109602519Y-40057958D02*
X109650138Y-40005577D01*
X109650138Y-40005577D02*
X109697757Y-39900815D01*
X109697757Y-39900815D02*
X109697757Y-39691291D01*
X109697757Y-39691291D02*
X109650138Y-39586529D01*
X109650138Y-39586529D02*
X109602519Y-39534148D01*
X109602519Y-39534148D02*
X109507281Y-39481767D01*
X87931289Y-64033056D02*
X87931289Y-63352103D01*
X87931289Y-63352103D02*
X88312241Y-63718770D01*
X88312241Y-63718770D02*
X88312241Y-63561627D01*
X88312241Y-63561627D02*
X88359860Y-63456865D01*
X88359860Y-63456865D02*
X88407479Y-63404484D01*
X88407479Y-63404484D02*
X88502717Y-63352103D01*
X88502717Y-63352103D02*
X88740812Y-63352103D01*
X88740812Y-63352103D02*
X88836050Y-63404484D01*
X88836050Y-63404484D02*
X88883670Y-63456865D01*
X88883670Y-63456865D02*
X88931289Y-63561627D01*
X88931289Y-63561627D02*
X88931289Y-63875913D01*
X88931289Y-63875913D02*
X88883670Y-63980675D01*
X88883670Y-63980675D02*
X88836050Y-64033056D01*
X88870296Y-46120403D02*
X88870296Y-46748975D01*
X88870296Y-46434689D02*
X87870296Y-46434689D01*
X87870296Y-46434689D02*
X88013153Y-46539451D01*
X88013153Y-46539451D02*
X88108391Y-46644213D01*
X88108391Y-46644213D02*
X88156010Y-46748975D01*
X87870296Y-45439451D02*
X87870296Y-45334689D01*
X87870296Y-45334689D02*
X87917915Y-45229927D01*
X87917915Y-45229927D02*
X87965534Y-45177546D01*
X87965534Y-45177546D02*
X88060772Y-45125165D01*
X88060772Y-45125165D02*
X88251248Y-45072784D01*
X88251248Y-45072784D02*
X88489343Y-45072784D01*
X88489343Y-45072784D02*
X88679819Y-45125165D01*
X88679819Y-45125165D02*
X88775057Y-45177546D01*
X88775057Y-45177546D02*
X88822677Y-45229927D01*
X88822677Y-45229927D02*
X88870296Y-45334689D01*
X88870296Y-45334689D02*
X88870296Y-45439451D01*
X88870296Y-45439451D02*
X88822677Y-45544213D01*
X88822677Y-45544213D02*
X88775057Y-45596594D01*
X88775057Y-45596594D02*
X88679819Y-45648975D01*
X88679819Y-45648975D02*
X88489343Y-45701356D01*
X88489343Y-45701356D02*
X88251248Y-45701356D01*
X88251248Y-45701356D02*
X88060772Y-45648975D01*
X88060772Y-45648975D02*
X87965534Y-45596594D01*
X87965534Y-45596594D02*
X87917915Y-45544213D01*
X87917915Y-45544213D02*
X87870296Y-45439451D01*
X109229200Y-63917004D02*
X109181581Y-63864623D01*
X109181581Y-63864623D02*
X109133962Y-63759861D01*
X109133962Y-63759861D02*
X109133962Y-63497956D01*
X109133962Y-63497956D02*
X109181581Y-63393194D01*
X109181581Y-63393194D02*
X109229200Y-63340813D01*
X109229200Y-63340813D02*
X109324438Y-63288432D01*
X109324438Y-63288432D02*
X109419676Y-63288432D01*
X109419676Y-63288432D02*
X109562533Y-63340813D01*
X109562533Y-63340813D02*
X110133962Y-63969385D01*
X110133962Y-63969385D02*
X110133962Y-63288432D01*
X109562533Y-62659861D02*
X109514914Y-62764623D01*
X109514914Y-62764623D02*
X109467295Y-62817004D01*
X109467295Y-62817004D02*
X109372057Y-62869385D01*
X109372057Y-62869385D02*
X109324438Y-62869385D01*
X109324438Y-62869385D02*
X109229200Y-62817004D01*
X109229200Y-62817004D02*
X109181581Y-62764623D01*
X109181581Y-62764623D02*
X109133962Y-62659861D01*
X109133962Y-62659861D02*
X109133962Y-62450337D01*
X109133962Y-62450337D02*
X109181581Y-62345575D01*
X109181581Y-62345575D02*
X109229200Y-62293194D01*
X109229200Y-62293194D02*
X109324438Y-62240813D01*
X109324438Y-62240813D02*
X109372057Y-62240813D01*
X109372057Y-62240813D02*
X109467295Y-62293194D01*
X109467295Y-62293194D02*
X109514914Y-62345575D01*
X109514914Y-62345575D02*
X109562533Y-62450337D01*
X109562533Y-62450337D02*
X109562533Y-62659861D01*
X109562533Y-62659861D02*
X109610152Y-62764623D01*
X109610152Y-62764623D02*
X109657771Y-62817004D01*
X109657771Y-62817004D02*
X109753009Y-62869385D01*
X109753009Y-62869385D02*
X109943485Y-62869385D01*
X109943485Y-62869385D02*
X110038723Y-62817004D01*
X110038723Y-62817004D02*
X110086343Y-62764623D01*
X110086343Y-62764623D02*
X110133962Y-62659861D01*
X110133962Y-62659861D02*
X110133962Y-62450337D01*
X110133962Y-62450337D02*
X110086343Y-62345575D01*
X110086343Y-62345575D02*
X110038723Y-62293194D01*
X110038723Y-62293194D02*
X109943485Y-62240813D01*
X109943485Y-62240813D02*
X109753009Y-62240813D01*
X109753009Y-62240813D02*
X109657771Y-62293194D01*
X109657771Y-62293194D02*
X109610152Y-62345575D01*
X109610152Y-62345575D02*
X109562533Y-62450337D01*
X88870296Y-41040403D02*
X88870296Y-41668975D01*
X88870296Y-41354689D02*
X87870296Y-41354689D01*
X87870296Y-41354689D02*
X88013153Y-41459451D01*
X88013153Y-41459451D02*
X88108391Y-41564213D01*
X88108391Y-41564213D02*
X88156010Y-41668975D01*
X87965534Y-40621356D02*
X87917915Y-40568975D01*
X87917915Y-40568975D02*
X87870296Y-40464213D01*
X87870296Y-40464213D02*
X87870296Y-40202308D01*
X87870296Y-40202308D02*
X87917915Y-40097546D01*
X87917915Y-40097546D02*
X87965534Y-40045165D01*
X87965534Y-40045165D02*
X88060772Y-39992784D01*
X88060772Y-39992784D02*
X88156010Y-39992784D01*
X88156010Y-39992784D02*
X88298867Y-40045165D01*
X88298867Y-40045165D02*
X88870296Y-40673737D01*
X88870296Y-40673737D02*
X88870296Y-39992784D01*
X88931289Y-68432103D02*
X88931289Y-69060675D01*
X88931289Y-68746389D02*
X87931289Y-68746389D01*
X87931289Y-68746389D02*
X88074146Y-68851151D01*
X88074146Y-68851151D02*
X88169384Y-68955913D01*
X88169384Y-68955913D02*
X88217003Y-69060675D01*
X109229200Y-66457004D02*
X109181581Y-66404623D01*
X109181581Y-66404623D02*
X109133962Y-66299861D01*
X109133962Y-66299861D02*
X109133962Y-66037956D01*
X109133962Y-66037956D02*
X109181581Y-65933194D01*
X109181581Y-65933194D02*
X109229200Y-65880813D01*
X109229200Y-65880813D02*
X109324438Y-65828432D01*
X109324438Y-65828432D02*
X109419676Y-65828432D01*
X109419676Y-65828432D02*
X109562533Y-65880813D01*
X109562533Y-65880813D02*
X110133962Y-66509385D01*
X110133962Y-66509385D02*
X110133962Y-65828432D01*
X110133962Y-65304623D02*
X110133962Y-65095099D01*
X110133962Y-65095099D02*
X110086343Y-64990337D01*
X110086343Y-64990337D02*
X110038723Y-64937956D01*
X110038723Y-64937956D02*
X109895866Y-64833194D01*
X109895866Y-64833194D02*
X109705390Y-64780813D01*
X109705390Y-64780813D02*
X109324438Y-64780813D01*
X109324438Y-64780813D02*
X109229200Y-64833194D01*
X109229200Y-64833194D02*
X109181581Y-64885575D01*
X109181581Y-64885575D02*
X109133962Y-64990337D01*
X109133962Y-64990337D02*
X109133962Y-65199861D01*
X109133962Y-65199861D02*
X109181581Y-65304623D01*
X109181581Y-65304623D02*
X109229200Y-65357004D01*
X109229200Y-65357004D02*
X109324438Y-65409385D01*
X109324438Y-65409385D02*
X109562533Y-65409385D01*
X109562533Y-65409385D02*
X109657771Y-65357004D01*
X109657771Y-65357004D02*
X109705390Y-65304623D01*
X109705390Y-65304623D02*
X109753009Y-65199861D01*
X109753009Y-65199861D02*
X109753009Y-64990337D01*
X109753009Y-64990337D02*
X109705390Y-64885575D01*
X109705390Y-64885575D02*
X109657771Y-64833194D01*
X109657771Y-64833194D02*
X109562533Y-64780813D01*
X109173948Y-48777958D02*
X109126329Y-48725577D01*
X109126329Y-48725577D02*
X109078710Y-48620815D01*
X109078710Y-48620815D02*
X109078710Y-48358910D01*
X109078710Y-48358910D02*
X109126329Y-48254148D01*
X109126329Y-48254148D02*
X109173948Y-48201767D01*
X109173948Y-48201767D02*
X109269186Y-48149386D01*
X109269186Y-48149386D02*
X109364424Y-48149386D01*
X109364424Y-48149386D02*
X109507281Y-48201767D01*
X109507281Y-48201767D02*
X110078710Y-48830339D01*
X110078710Y-48830339D02*
X110078710Y-48149386D01*
X109173948Y-47730339D02*
X109126329Y-47677958D01*
X109126329Y-47677958D02*
X109078710Y-47573196D01*
X109078710Y-47573196D02*
X109078710Y-47311291D01*
X109078710Y-47311291D02*
X109126329Y-47206529D01*
X109126329Y-47206529D02*
X109173948Y-47154148D01*
X109173948Y-47154148D02*
X109269186Y-47101767D01*
X109269186Y-47101767D02*
X109364424Y-47101767D01*
X109364424Y-47101767D02*
X109507281Y-47154148D01*
X109507281Y-47154148D02*
X110078710Y-47782720D01*
X110078710Y-47782720D02*
X110078710Y-47101767D01*
X109173948Y-46237958D02*
X109126329Y-46185577D01*
X109126329Y-46185577D02*
X109078710Y-46080815D01*
X109078710Y-46080815D02*
X109078710Y-45818910D01*
X109078710Y-45818910D02*
X109126329Y-45714148D01*
X109126329Y-45714148D02*
X109173948Y-45661767D01*
X109173948Y-45661767D02*
X109269186Y-45609386D01*
X109269186Y-45609386D02*
X109364424Y-45609386D01*
X109364424Y-45609386D02*
X109507281Y-45661767D01*
X109507281Y-45661767D02*
X110078710Y-46290339D01*
X110078710Y-46290339D02*
X110078710Y-45609386D01*
X110078710Y-44561767D02*
X110078710Y-45190339D01*
X110078710Y-44876053D02*
X109078710Y-44876053D01*
X109078710Y-44876053D02*
X109221567Y-44980815D01*
X109221567Y-44980815D02*
X109316805Y-45085577D01*
X109316805Y-45085577D02*
X109364424Y-45190339D01*
X88931289Y-48635913D02*
X88931289Y-48426389D01*
X88931289Y-48426389D02*
X88883670Y-48321627D01*
X88883670Y-48321627D02*
X88836050Y-48269246D01*
X88836050Y-48269246D02*
X88693193Y-48164484D01*
X88693193Y-48164484D02*
X88502717Y-48112103D01*
X88502717Y-48112103D02*
X88121765Y-48112103D01*
X88121765Y-48112103D02*
X88026527Y-48164484D01*
X88026527Y-48164484D02*
X87978908Y-48216865D01*
X87978908Y-48216865D02*
X87931289Y-48321627D01*
X87931289Y-48321627D02*
X87931289Y-48531151D01*
X87931289Y-48531151D02*
X87978908Y-48635913D01*
X87978908Y-48635913D02*
X88026527Y-48688294D01*
X88026527Y-48688294D02*
X88121765Y-48740675D01*
X88121765Y-48740675D02*
X88359860Y-48740675D01*
X88359860Y-48740675D02*
X88455098Y-48688294D01*
X88455098Y-48688294D02*
X88502717Y-48635913D01*
X88502717Y-48635913D02*
X88550336Y-48531151D01*
X88550336Y-48531151D02*
X88550336Y-48321627D01*
X88550336Y-48321627D02*
X88502717Y-48216865D01*
X88502717Y-48216865D02*
X88455098Y-48164484D01*
X88455098Y-48164484D02*
X88359860Y-48112103D01*
X110073357Y-35561326D02*
X110073357Y-36189898D01*
X110073357Y-35875612D02*
X109073357Y-35875612D01*
X109073357Y-35875612D02*
X109216214Y-35980374D01*
X109216214Y-35980374D02*
X109311452Y-36085136D01*
X109311452Y-36085136D02*
X109359071Y-36189898D01*
X109073357Y-35194660D02*
X109073357Y-34461326D01*
X109073357Y-34461326D02*
X110073357Y-34932755D01*
X88870296Y-33420403D02*
X88870296Y-34048975D01*
X88870296Y-33734689D02*
X87870296Y-33734689D01*
X87870296Y-33734689D02*
X88013153Y-33839451D01*
X88013153Y-33839451D02*
X88108391Y-33944213D01*
X88108391Y-33944213D02*
X88156010Y-34048975D01*
X87870296Y-32425165D02*
X87870296Y-32948975D01*
X87870296Y-32948975D02*
X88346486Y-33001356D01*
X88346486Y-33001356D02*
X88298867Y-32948975D01*
X88298867Y-32948975D02*
X88251248Y-32844213D01*
X88251248Y-32844213D02*
X88251248Y-32582308D01*
X88251248Y-32582308D02*
X88298867Y-32477546D01*
X88298867Y-32477546D02*
X88346486Y-32425165D01*
X88346486Y-32425165D02*
X88441724Y-32372784D01*
X88441724Y-32372784D02*
X88679819Y-32372784D01*
X88679819Y-32372784D02*
X88775057Y-32425165D01*
X88775057Y-32425165D02*
X88822677Y-32477546D01*
X88822677Y-32477546D02*
X88870296Y-32582308D01*
X88870296Y-32582308D02*
X88870296Y-32844213D01*
X88870296Y-32844213D02*
X88822677Y-32948975D01*
X88822677Y-32948975D02*
X88775057Y-33001356D01*
X88870296Y-38500403D02*
X88870296Y-39128975D01*
X88870296Y-38814689D02*
X87870296Y-38814689D01*
X87870296Y-38814689D02*
X88013153Y-38919451D01*
X88013153Y-38919451D02*
X88108391Y-39024213D01*
X88108391Y-39024213D02*
X88156010Y-39128975D01*
X87870296Y-38133737D02*
X87870296Y-37452784D01*
X87870296Y-37452784D02*
X88251248Y-37819451D01*
X88251248Y-37819451D02*
X88251248Y-37662308D01*
X88251248Y-37662308D02*
X88298867Y-37557546D01*
X88298867Y-37557546D02*
X88346486Y-37505165D01*
X88346486Y-37505165D02*
X88441724Y-37452784D01*
X88441724Y-37452784D02*
X88679819Y-37452784D01*
X88679819Y-37452784D02*
X88775057Y-37505165D01*
X88775057Y-37505165D02*
X88822677Y-37557546D01*
X88822677Y-37557546D02*
X88870296Y-37662308D01*
X88870296Y-37662308D02*
X88870296Y-37976594D01*
X88870296Y-37976594D02*
X88822677Y-38081356D01*
X88822677Y-38081356D02*
X88775057Y-38133737D01*
D12*
%TO.C,U6*%
X84862460Y-76439813D02*
X113162460Y-76439813D01*
X113162460Y-76439813D02*
X113162460Y-24939813D01*
X113162460Y-24939813D02*
X84862460Y-24939813D01*
X84862460Y-24939813D02*
X84862460Y-76439813D01*
D11*
X95022460Y-28179813D02*
X102642460Y-28179813D01*
X102642460Y-28179813D02*
X102642460Y-23925634D01*
X102642460Y-23925634D02*
X95022460Y-23925634D01*
X95022460Y-23925634D02*
X95022460Y-28179813D01*
D13*
%TO.C,BT1*%
X43180000Y-123290000D02*
X43180000Y-125900000D01*
X44550000Y-121920000D02*
G75*
G03*
X41810000Y-121920000I-1370000J0D01*
G01*
X41810000Y-121920000D02*
G75*
G03*
X44550000Y-121920000I1370000J0D01*
G01*
D14*
%TO.C,U3*%
X84592000Y-86808000D02*
X76838000Y-86808000D01*
X76838000Y-104962000D02*
X84592000Y-104962000D01*
D13*
%TO.C,R9*%
X59790000Y-63500000D02*
X62400000Y-63500000D01*
X59790000Y-63500000D02*
G75*
G03*
X57050000Y-63500000I-1370000J0D01*
G01*
X57050000Y-63500000D02*
G75*
G03*
X59790000Y-63500000I1370000J0D01*
G01*
%TO.C,J2*%
X41850000Y-39310000D02*
X43180000Y-39310000D01*
X41850000Y-40640000D02*
X41850000Y-39310000D01*
X41850000Y-41910000D02*
X41850000Y-44510000D01*
X41850000Y-41910000D02*
X44510000Y-41910000D01*
X41850000Y-44510000D02*
X44510000Y-44510000D01*
X44510000Y-41910000D02*
X44510000Y-44510000D01*
D14*
%TO.C,U7*%
X98196400Y-112623600D02*
X97992692Y-112623600D01*
X95047308Y-112623600D02*
X94843600Y-112623600D01*
X94843600Y-112623600D02*
X94843600Y-115976400D01*
X98196400Y-115976400D02*
X98196400Y-112623600D01*
X97992692Y-115976400D02*
X98196400Y-115976400D01*
X94843600Y-115976400D02*
X95047308Y-115976400D01*
D13*
%TO.C,R8*%
X59790000Y-55880000D02*
X62400000Y-55880000D01*
X59790000Y-55880000D02*
G75*
G03*
X57050000Y-55880000I-1370000J0D01*
G01*
X57050000Y-55880000D02*
G75*
G03*
X59790000Y-55880000I1370000J0D01*
G01*
%TO.C,R11*%
X121920000Y-21690000D02*
X121920000Y-24300000D01*
X123290000Y-20320000D02*
G75*
G03*
X120550000Y-20320000I-1370000J0D01*
G01*
X120550000Y-20320000D02*
G75*
G03*
X123290000Y-20320000I1370000J0D01*
G01*
%TO.C,J3*%
X41850000Y-49470000D02*
X43180000Y-49470000D01*
X41850000Y-50800000D02*
X41850000Y-49470000D01*
X41850000Y-52070000D02*
X41850000Y-54670000D01*
X41850000Y-52070000D02*
X44510000Y-52070000D01*
X41850000Y-54670000D02*
X44510000Y-54670000D01*
X44510000Y-52070000D02*
X44510000Y-54670000D01*
%TO.C,R12*%
X59790000Y-40640000D02*
X62400000Y-40640000D01*
X59790000Y-40640000D02*
G75*
G03*
X57050000Y-40640000I-1370000J0D01*
G01*
X57050000Y-40640000D02*
G75*
G03*
X59790000Y-40640000I1370000J0D01*
G01*
%TO.C,BT4*%
X43180000Y-87530000D02*
X43180000Y-84920000D01*
X44550000Y-88900000D02*
G75*
G03*
X41810000Y-88900000I-1370000J0D01*
G01*
X41810000Y-88900000D02*
G75*
G03*
X44550000Y-88900000I1370000J0D01*
G01*
%TO.C,R10*%
X59790000Y-71120000D02*
X62400000Y-71120000D01*
X59790000Y-71120000D02*
G75*
G03*
X57050000Y-71120000I-1370000J0D01*
G01*
X57050000Y-71120000D02*
G75*
G03*
X59790000Y-71120000I1370000J0D01*
G01*
%TO.C,BT3*%
X43180000Y-100230000D02*
X43180000Y-97620000D01*
X44550000Y-101600000D02*
G75*
G03*
X41810000Y-101600000I-1370000J0D01*
G01*
X41810000Y-101600000D02*
G75*
G03*
X44550000Y-101600000I1370000J0D01*
G01*
D14*
%TO.C,U1*%
X65405000Y-121307860D02*
X65405000Y-119992140D01*
X65405000Y-118719600D02*
X60248800Y-118719600D01*
X60248800Y-122580400D02*
X65405000Y-122580400D01*
X60248800Y-119992140D02*
X60248800Y-121307860D01*
D13*
%TO.C,D1*%
X123250000Y-47050000D02*
X121920000Y-47050000D01*
X123250000Y-45720000D02*
X123250000Y-47050000D01*
X123250000Y-44450000D02*
X123250000Y-41850000D01*
X123250000Y-44450000D02*
X120590000Y-44450000D01*
X123250000Y-41850000D02*
X120590000Y-41850000D01*
X120590000Y-44450000D02*
X120590000Y-41850000D01*
D14*
%TO.C,U13*%
X65405000Y-87017860D02*
X65405000Y-85702140D01*
X65405000Y-84429600D02*
X60248800Y-84429600D01*
X60248800Y-88290400D02*
X65405000Y-88290400D01*
X60248800Y-85702140D02*
X60248800Y-87017860D01*
D13*
%TO.C,R1*%
X121920000Y-54510000D02*
X121920000Y-51900000D01*
X123290000Y-55880000D02*
G75*
G03*
X120550000Y-55880000I-1370000J0D01*
G01*
X120550000Y-55880000D02*
G75*
G03*
X123290000Y-55880000I1370000J0D01*
G01*
D14*
%TO.C,U2*%
X65405000Y-126387860D02*
X65405000Y-125072140D01*
X65405000Y-123799600D02*
X60248800Y-123799600D01*
X60248800Y-127660400D02*
X65405000Y-127660400D01*
X60248800Y-125072140D02*
X60248800Y-126387860D01*
D13*
%TO.C,D3*%
X120590000Y-29150000D02*
X121920000Y-29150000D01*
X120590000Y-30480000D02*
X120590000Y-29150000D01*
X120590000Y-31750000D02*
X120590000Y-34350000D01*
X120590000Y-31750000D02*
X123250000Y-31750000D01*
X120590000Y-34350000D02*
X123250000Y-34350000D01*
X123250000Y-31750000D02*
X123250000Y-34350000D01*
D14*
%TO.C,U12*%
X65405000Y-92097860D02*
X65405000Y-90782140D01*
X65405000Y-89509600D02*
X60248800Y-89509600D01*
X60248800Y-93370400D02*
X65405000Y-93370400D01*
X60248800Y-90782140D02*
X60248800Y-92097860D01*
D13*
%TO.C,J6*%
X41850000Y-29150000D02*
X43180000Y-29150000D01*
X41850000Y-30480000D02*
X41850000Y-29150000D01*
X41850000Y-31750000D02*
X41850000Y-34350000D01*
X41850000Y-31750000D02*
X44510000Y-31750000D01*
X41850000Y-34350000D02*
X44510000Y-34350000D01*
X44510000Y-31750000D02*
X44510000Y-34350000D01*
%TO.C,J5*%
X41850000Y-69790000D02*
X43180000Y-69790000D01*
X41850000Y-71120000D02*
X41850000Y-69790000D01*
X41850000Y-72390000D02*
X41850000Y-74990000D01*
X41850000Y-72390000D02*
X44510000Y-72390000D01*
X41850000Y-74990000D02*
X44510000Y-74990000D01*
X44510000Y-72390000D02*
X44510000Y-74990000D01*
%TO.C,R3*%
X95150000Y-129540000D02*
X92540000Y-129540000D01*
X97890000Y-129540000D02*
G75*
G03*
X95150000Y-129540000I-1370000J0D01*
G01*
X95150000Y-129540000D02*
G75*
G03*
X97890000Y-129540000I1370000J0D01*
G01*
%TO.C,R7*%
X59790000Y-48260000D02*
X62400000Y-48260000D01*
X59790000Y-48260000D02*
G75*
G03*
X57050000Y-48260000I-1370000J0D01*
G01*
X57050000Y-48260000D02*
G75*
G03*
X59790000Y-48260000I1370000J0D01*
G01*
%TO.C,R2*%
X105310000Y-129540000D02*
X102700000Y-129540000D01*
X108050000Y-129540000D02*
G75*
G03*
X105310000Y-129540000I-1370000J0D01*
G01*
X105310000Y-129540000D02*
G75*
G03*
X108050000Y-129540000I1370000J0D01*
G01*
%TO.C,R4*%
X119380000Y-119280000D02*
X119380000Y-116670000D01*
X120750000Y-120650000D02*
G75*
G03*
X118010000Y-120650000I-1370000J0D01*
G01*
X118010000Y-120650000D02*
G75*
G03*
X120750000Y-120650000I1370000J0D01*
G01*
D14*
%TO.C,U10*%
X65405000Y-103527860D02*
X65405000Y-102212140D01*
X65405000Y-100939600D02*
X60248800Y-100939600D01*
X60248800Y-104800400D02*
X65405000Y-104800400D01*
X60248800Y-102212140D02*
X60248800Y-103527860D01*
%TO.C,U8*%
X65405000Y-116227860D02*
X65405000Y-114912140D01*
X65405000Y-113639600D02*
X60248800Y-113639600D01*
X60248800Y-117500400D02*
X65405000Y-117500400D01*
X60248800Y-114912140D02*
X60248800Y-116227860D01*
D13*
%TO.C,R6*%
X59790000Y-27940000D02*
X62400000Y-27940000D01*
X59790000Y-27940000D02*
G75*
G03*
X57050000Y-27940000I-1370000J0D01*
G01*
X57050000Y-27940000D02*
G75*
G03*
X59790000Y-27940000I1370000J0D01*
G01*
%TO.C,C1*%
X120710000Y-128210000D02*
X120710000Y-129540000D01*
X119380000Y-128210000D02*
X120710000Y-128210000D01*
X118110000Y-128210000D02*
X115510000Y-128210000D01*
X118110000Y-128210000D02*
X118110000Y-130870000D01*
X115510000Y-128210000D02*
X115510000Y-130870000D01*
X118110000Y-130870000D02*
X115510000Y-130870000D01*
%TO.C,R5*%
X43180000Y-24030000D02*
X43180000Y-21420000D01*
X44550000Y-25400000D02*
G75*
G03*
X41810000Y-25400000I-1370000J0D01*
G01*
X41810000Y-25400000D02*
G75*
G03*
X44550000Y-25400000I1370000J0D01*
G01*
%TO.C,J4*%
X41850000Y-59630000D02*
X43180000Y-59630000D01*
X41850000Y-60960000D02*
X41850000Y-59630000D01*
X41850000Y-62230000D02*
X41850000Y-64830000D01*
X41850000Y-62230000D02*
X44510000Y-62230000D01*
X41850000Y-64830000D02*
X44510000Y-64830000D01*
X44510000Y-62230000D02*
X44510000Y-64830000D01*
D14*
%TO.C,U4*%
X84477860Y-114261900D02*
X83162140Y-114261900D01*
X81889600Y-114261900D02*
X81889600Y-119418100D01*
X85750400Y-119418100D02*
X85750400Y-114261900D01*
X83162140Y-119418100D02*
X84477860Y-119418100D01*
%TO.C,U11*%
X65405000Y-98260660D02*
X65405000Y-96944940D01*
X65405000Y-95672400D02*
X60248800Y-95672400D01*
X60248800Y-99533200D02*
X65405000Y-99533200D01*
X60248800Y-96944940D02*
X60248800Y-98260660D01*
D13*
%TO.C,D2*%
X120710000Y-111820000D02*
X119380000Y-111820000D01*
X120710000Y-110490000D02*
X120710000Y-111820000D01*
X120710000Y-109220000D02*
X120710000Y-106620000D01*
X120710000Y-109220000D02*
X118050000Y-109220000D01*
X120710000Y-106620000D02*
X118050000Y-106620000D01*
X118050000Y-109220000D02*
X118050000Y-106620000D01*
%TO.C,J1*%
X46930000Y-133410000D02*
X46930000Y-132080000D01*
X48260000Y-133410000D02*
X46930000Y-133410000D01*
X49530000Y-133410000D02*
X52130000Y-133410000D01*
X49530000Y-133410000D02*
X49530000Y-130750000D01*
X52130000Y-133410000D02*
X52130000Y-130750000D01*
X49530000Y-130750000D02*
X52130000Y-130750000D01*
D14*
%TO.C,U5*%
X112483900Y-116236750D02*
X112483900Y-111994950D01*
X107226100Y-111994950D02*
X107226100Y-116236750D01*
D13*
%TO.C,BT2*%
X43180000Y-112930000D02*
X43180000Y-110320000D01*
X44550000Y-114300000D02*
G75*
G03*
X41810000Y-114300000I-1370000J0D01*
G01*
X41810000Y-114300000D02*
G75*
G03*
X44550000Y-114300000I1370000J0D01*
G01*
D14*
%TO.C,U9*%
X65405000Y-110960660D02*
X65405000Y-109644940D01*
X65405000Y-108372400D02*
X60248800Y-108372400D01*
X60248800Y-112233200D02*
X65405000Y-112233200D01*
X60248800Y-109644940D02*
X60248800Y-110960660D01*
%TD*%
M02*
