M48
; DRILL file {KiCad 7.0.11+dfsg-1build4} date lun. 04 mai 2026 20:06:16
; FORMAT={-:-/ absolute / inch / decimal}
; #@! TF.CreationDate,2026-05-04T20:06:16+02:00
; #@! TF.GenerationSoftware,Kicad,Pcbnew,7.0.11+dfsg-1build4
; #@! TF.FileFunction,Plated,1,2,PTH
FMAT,2
INCH
; #@! TA.AperFunction,Plated,PTH,ComponentDrill
T1C0.0315
; #@! TA.AperFunction,Plated,PTH,ViaDrill
T2C0.0394
; #@! TA.AperFunction,Plated,PTH,ComponentDrill
T3C0.0394
%
G90
G05
T1
X1.7Y-0.8
X1.7Y-1.0
X1.7Y-3.3
X1.7Y-3.5
X1.7Y-3.8
X1.7Y-4.0
X1.7Y-4.3
X1.7Y-4.5
X1.7Y-4.8
X1.7Y-5.0
X2.3Y-1.1
X2.3Y-1.6
X2.3Y-1.9
X2.3Y-2.2
X2.3Y-2.5
X2.3Y-2.8
X2.5Y-1.1
X2.5Y-1.6
X2.5Y-1.9
X2.5Y-2.2
X2.5Y-2.5
X2.5Y-2.8
X3.4Y-1.3
X3.4Y-1.4
X3.4Y-1.5
X3.4Y-1.6
X3.4Y-1.7
X3.4Y-1.8
X3.4Y-1.9
X3.4Y-2.0
X3.4Y-2.1
X3.4Y-2.2
X3.4Y-2.3
X3.4Y-2.4
X3.4Y-2.5
X3.4Y-2.6
X3.4Y-2.7
X3.6Y-5.1
X3.8Y-5.1
X4.0Y-5.1
X4.2Y-5.1
X4.4Y-1.3
X4.4Y-1.4
X4.4Y-1.5
X4.4Y-1.6
X4.4Y-1.7
X4.4Y-1.8
X4.4Y-1.9
X4.4Y-2.0
X4.4Y-2.1
X4.4Y-2.2
X4.4Y-2.3
X4.4Y-2.4
X4.4Y-2.5
X4.4Y-2.6
X4.4Y-2.7
X4.7Y-4.55
X4.7Y-4.75
X4.8Y-0.8
X4.8Y-1.0
X4.8Y-2.0
X4.8Y-2.2
T2
X2.0Y-3.4
X2.0Y-3.8
X2.0Y-4.3
X2.1Y-3.7
X2.1Y-4.1
X2.1Y-4.6
X2.9Y-1.4
X2.9Y-1.9
X2.9Y-2.5
X2.9Y-3.3
X2.9Y-4.6
X2.9Y-5.0
X3.3Y-4.9
X3.6Y-3.9
X3.6Y-4.9
X3.6455Y-4.6
X4.0Y-3.9
X4.1Y-4.8
X4.2Y-3.7
X4.25Y-4.25
X4.3Y-4.8
X4.7Y-3.9
T3
X1.7Y-1.2
X1.7Y-1.3
X1.7Y-1.6
X1.7Y-1.7
X1.7Y-2.0
X1.7Y-2.1
X1.7Y-2.4
X1.7Y-2.5
X1.7Y-2.8
X1.7Y-2.9
X1.9Y-5.2
X2.0Y-5.2
X4.6Y-5.1
X4.7Y-4.25
X4.7Y-4.35
X4.7Y-5.1
X4.8Y-1.2
X4.8Y-1.3
X4.8Y-1.7
X4.8Y-1.8
M30
