M48
; DRILL file {KiCad 7.0.11+dfsg-1build4} date ven. 05 juin 2026 21:30:31
; FORMAT={-:-/ absolute / inch / decimal}
; #@! TF.CreationDate,2026-06-05T21:30:31+02:00
; #@! TF.GenerationSoftware,Kicad,Pcbnew,7.0.11+dfsg-1build4
; #@! TF.FileFunction,Plated,1,2,PTH
FMAT,2
INCH
; #@! TA.AperFunction,Plated,PTH,ViaDrill
T1C0.0118
; #@! TA.AperFunction,Plated,PTH,ComponentDrill
T2C0.0197
; #@! TA.AperFunction,Plated,PTH,ComponentDrill
T3C0.0315
; #@! TA.AperFunction,Plated,PTH,ComponentDrill
T4C0.0394
%
G90
G05
T1
X6.4157Y-2.0421
X6.4701Y-3.6067
X6.4833Y-2.5415
X6.6201Y-3.2055
X6.6453Y-2.4933
X6.6846Y-2.5075
X6.7091Y-2.5807
X6.7512Y-1.8094
X6.7512Y-1.8094
X6.7748Y-2.0811
X6.8063Y-1.6768
X7.1055Y-3.437
X7.1098Y-3.5984
X7.1185Y-3.7638
X7.7772Y-1.4799
X7.7772Y-1.6661
X7.7772Y-1.8508
X7.7772Y-2.0193
X7.7772Y-2.2197
X7.7772Y-2.387
X7.7772Y-2.5752
X7.7772Y-2.748
X7.7772Y-2.9276
X7.7772Y-3.1008
X7.7772Y-3.2854
X7.7772Y-3.4543
X7.7772Y-3.6248
X7.7772Y-3.8087
X7.7772Y-3.972
T2
X6.5024Y-3.276
X6.5028Y-3.3551
X6.5031Y-3.1957
X6.5185Y-3.472
X6.5185Y-3.5114
X6.5185Y-3.5508
X6.6134Y-3.4709
X6.6134Y-3.5102
X6.6134Y-3.5496
X6.6421Y-2.272
X6.6421Y-2.3512
X6.6429Y-2.1925
X7.1909Y-2.1697
X7.1925Y-2.348
X7.2303Y-2.1697
X7.2319Y-2.348
X7.2697Y-2.1697
X7.2713Y-2.348
T3
X5.474Y-3.7146
X5.4744Y-3.8839
X5.4752Y-2.3689
X5.4756Y-1.4059
X5.4756Y-3.55
X5.4762Y-1.243
X5.4762Y-1.5619
X5.4762Y-1.7213
X5.4762Y-1.8808
X5.4762Y-2.0402
X5.4762Y-2.1997
X5.4762Y-2.5346
X5.4764Y-2.7035
X5.4768Y-3.0378
X5.4768Y-3.3858
X5.4776Y-2.8732
X5.4776Y-3.2193
X5.874Y-3.7146
X5.8744Y-3.8839
X5.8752Y-2.3689
X5.8756Y-1.4059
X5.8756Y-3.55
X5.8762Y-1.243
X5.8762Y-1.5619
X5.8762Y-1.7213
X5.8762Y-1.8808
X5.8762Y-2.0402
X5.8762Y-2.1997
X5.8762Y-2.5346
X5.8764Y-2.7035
X5.8768Y-3.0378
X5.8768Y-3.3858
X5.8776Y-2.8732
X5.8776Y-3.2193
X6.0402Y-1.4461
X6.4402Y-1.4461
X6.5315Y-1.4472
X6.9315Y-1.4472
T4
X5.1868Y-3.3854
X5.1872Y-3.8732
X5.1874Y-3.7059
X5.1876Y-3.5516
X5.1878Y-2.8654
X5.1882Y-3.2197
X5.1884Y-2.2067
X5.1886Y-2.0488
X5.1886Y-2.3654
X5.1888Y-2.6886
X5.189Y-2.5264
X5.1894Y-3.0311
X5.1898Y-1.5657
X5.1911Y-1.8878
X5.1913Y-1.7283
X5.2868Y-3.3854
X5.2872Y-3.8732
X5.2874Y-3.7059
X5.2876Y-3.5516
X5.2878Y-2.8654
X5.2882Y-3.2197
X5.2884Y-2.2067
X5.2886Y-2.0488
X5.2886Y-2.3654
X5.2888Y-2.6886
X5.289Y-2.5264
X5.2894Y-3.0311
X5.2898Y-1.5657
X5.2911Y-1.8878
X5.2913Y-1.7283
X6.3461Y-3.9154
X6.3939Y-1.276
X6.4461Y-3.9154
X6.4939Y-1.276
X6.5461Y-3.9154
X6.5939Y-1.276
X6.6461Y-3.9154
X6.6939Y-1.276
X6.7461Y-3.9154
X6.7939Y-1.276
X7.9681Y-2.3079
X7.9681Y-3.5496
X7.9683Y-2.4843
X7.9687Y-2.1268
X7.9693Y-2.8445
X7.9693Y-3.1988
X7.9693Y-3.3697
X7.9697Y-1.7587
X7.9697Y-3.0197
X7.9701Y-2.6638
X7.9707Y-1.578
X7.9707Y-1.9366
X7.9742Y-1.3945
X7.9756Y-3.7287
X7.9756Y-3.9118
X8.0681Y-2.3079
X8.0681Y-3.5496
X8.0683Y-2.4843
X8.0687Y-2.1268
X8.0693Y-2.8445
X8.0693Y-3.1988
X8.0693Y-3.3697
X8.0697Y-1.7587
X8.0697Y-3.0197
X8.0701Y-2.6638
X8.0707Y-1.578
X8.0707Y-1.9366
X8.0742Y-1.3945
X8.0756Y-3.7287
X8.0756Y-3.9118
M30
