%TF.GenerationSoftware,KiCad,Pcbnew,7.0.11+dfsg-1build4*%
%TF.CreationDate,2026-06-05T21:30:35+02:00*%
%TF.ProjectId,V1_cartebis,56315f63-6172-4746-9562-69732e6b6963,rev?*%
%TF.SameCoordinates,Original*%
%TF.FileFunction,Paste,Top*%
%TF.FilePolarity,Positive*%
%FSLAX46Y46*%
G04 Gerber Fmt 4.6, Leading zero omitted, Abs format (unit mm)*
G04 Created by KiCad (PCBNEW 7.0.11+dfsg-1build4) date 2026-06-05 21:30:35*
%MOMM*%
%LPD*%
G01*
G04 APERTURE LIST*
%ADD10R,1.524000X0.558800*%
%ADD11R,1.981200X0.558800*%
%ADD12R,0.249200X0.804800*%
%ADD13R,0.804800X0.249200*%
%ADD14R,5.250000X3.250001*%
%ADD15R,0.558800X1.981200*%
G04 APERTURE END LIST*
%TO.C,U2*%
G36*
X165152599Y-60150000D02*
G01*
X164040099Y-60150000D01*
X164040099Y-58724999D01*
X165152599Y-58724999D01*
X165152599Y-60150000D01*
G37*
G36*
X163840099Y-60150000D02*
G01*
X162727599Y-60150000D01*
X162727599Y-58724999D01*
X163840099Y-58724999D01*
X163840099Y-60150000D01*
G37*
G36*
X162527599Y-60150000D02*
G01*
X161415099Y-60150000D01*
X161415099Y-58724999D01*
X162527599Y-58724999D01*
X162527599Y-60150000D01*
G37*
G36*
X161215099Y-60150000D02*
G01*
X160102599Y-60150000D01*
X160102599Y-58724999D01*
X161215099Y-58724999D01*
X161215099Y-60150000D01*
G37*
G36*
X165152599Y-61775001D02*
G01*
X164040099Y-61775001D01*
X164040099Y-60350000D01*
X165152599Y-60350000D01*
X165152599Y-61775001D01*
G37*
G36*
X163840099Y-61775001D02*
G01*
X162727599Y-61775001D01*
X162727599Y-60350000D01*
X163840099Y-60350000D01*
X163840099Y-61775001D01*
G37*
G36*
X162527599Y-61775001D02*
G01*
X161415099Y-61775001D01*
X161415099Y-60350000D01*
X162527599Y-60350000D01*
X162527599Y-61775001D01*
G37*
G36*
X161215099Y-61775001D02*
G01*
X160102599Y-61775001D01*
X160102599Y-60350000D01*
X161215099Y-60350000D01*
X161215099Y-61775001D01*
G37*
%TD*%
D10*
%TO.C,U12*%
X187926900Y-66600000D03*
X187926900Y-69140000D03*
X194353100Y-69140000D03*
X194353100Y-66600000D03*
%TD*%
D11*
%TO.C,U18*%
X163912400Y-44900000D03*
X163912400Y-46170000D03*
X163912400Y-47440000D03*
X163912400Y-48710000D03*
X168840000Y-48710000D03*
X168840000Y-47440000D03*
X168840000Y-46170000D03*
X168840000Y-44900000D03*
%TD*%
D10*
%TO.C,U9*%
X187956900Y-52880000D03*
X187956900Y-55420000D03*
X194383100Y-55420000D03*
X194383100Y-52880000D03*
%TD*%
%TO.C,U5*%
X188006900Y-38870000D03*
X188006900Y-41410000D03*
X194433100Y-41410000D03*
X194433100Y-38870000D03*
%TD*%
%TO.C,U17*%
X187920000Y-84420000D03*
X187920000Y-86960000D03*
X194346200Y-86960000D03*
X194346200Y-84420000D03*
%TD*%
%TO.C,U13*%
X187890000Y-71060000D03*
X187890000Y-73600000D03*
X194316200Y-73600000D03*
X194316200Y-71060000D03*
%TD*%
%TO.C,U15*%
X187593100Y-93740000D03*
X187593100Y-96280000D03*
X194019300Y-96280000D03*
X194019300Y-93740000D03*
%TD*%
D12*
%TO.C,U2*%
X165377599Y-57797600D03*
X164877600Y-57797600D03*
X164377598Y-57797600D03*
X163877599Y-57797600D03*
X163377600Y-57797600D03*
X162877599Y-57797600D03*
X162377599Y-57797600D03*
X161877598Y-57797600D03*
X161377599Y-57797600D03*
X160877600Y-57797600D03*
X160377598Y-57797600D03*
X159877599Y-57797600D03*
D13*
X159175198Y-58750000D03*
X159175198Y-59249999D03*
X159175198Y-59750001D03*
X159175198Y-60250000D03*
X159175198Y-60749999D03*
X159175198Y-61250001D03*
X159175198Y-61750000D03*
D12*
X159877599Y-62702400D03*
X160377598Y-62702400D03*
X160877600Y-62702400D03*
X161377599Y-62702400D03*
X161877598Y-62702400D03*
X162377599Y-62702400D03*
X162877599Y-62702400D03*
X163377600Y-62702400D03*
X163877599Y-62702400D03*
X164377598Y-62702400D03*
X164877600Y-62702400D03*
X165377599Y-62702400D03*
D13*
X166080000Y-61750000D03*
X166080000Y-61250001D03*
X166080000Y-60749999D03*
X166080000Y-60250000D03*
X166080000Y-59750001D03*
X166080000Y-59249999D03*
X166080000Y-58750000D03*
D14*
X162627599Y-60250000D03*
%TD*%
D10*
%TO.C,U3*%
X187903800Y-61940000D03*
X187903800Y-64480000D03*
X194330000Y-64480000D03*
X194330000Y-61940000D03*
%TD*%
%TO.C,U16*%
X187663100Y-89030000D03*
X187663100Y-91570000D03*
X194089300Y-91570000D03*
X194089300Y-89030000D03*
%TD*%
%TO.C,U11*%
X187853100Y-80040000D03*
X187853100Y-82580000D03*
X194279300Y-82580000D03*
X194279300Y-80040000D03*
%TD*%
%TO.C,U6*%
X188006900Y-43560000D03*
X188006900Y-46100000D03*
X194433100Y-46100000D03*
X194433100Y-43560000D03*
%TD*%
%TO.C,U8*%
X187996900Y-48160000D03*
X187996900Y-50700000D03*
X194423100Y-50700000D03*
X194423100Y-48160000D03*
%TD*%
D15*
%TO.C,U1*%
X181065000Y-68895000D03*
X179795000Y-68895000D03*
X178525000Y-68895000D03*
X177255000Y-68895000D03*
X175985000Y-68895000D03*
X174715000Y-68895000D03*
X173445000Y-68895000D03*
X172175000Y-68895000D03*
X170905000Y-68895000D03*
X169635000Y-68895000D03*
X168365000Y-68895000D03*
X167095000Y-68895000D03*
X165825000Y-68895000D03*
X164555000Y-68895000D03*
X164555000Y-77925000D03*
X165825000Y-77925000D03*
X167095000Y-77925000D03*
X168365000Y-77925000D03*
X169635000Y-77925000D03*
X170905000Y-77925000D03*
X172175000Y-77925000D03*
X173445000Y-77925000D03*
X174715000Y-77925000D03*
X175985000Y-77925000D03*
X177255000Y-77925000D03*
X178525000Y-77925000D03*
X179795000Y-77925000D03*
X181065000Y-77925000D03*
%TD*%
D10*
%TO.C,U7*%
X187936900Y-34200000D03*
X187936900Y-36740000D03*
X194363100Y-36740000D03*
X194363100Y-34200000D03*
%TD*%
%TO.C,U14*%
X187570000Y-98260000D03*
X187570000Y-100800000D03*
X193996200Y-100800000D03*
X193996200Y-98260000D03*
%TD*%
%TO.C,U10*%
X187860000Y-75590000D03*
X187860000Y-78130000D03*
X194286200Y-78130000D03*
X194286200Y-75590000D03*
%TD*%
%TO.C,U4*%
X187916900Y-57440000D03*
X187916900Y-59980000D03*
X194343100Y-59980000D03*
X194343100Y-57440000D03*
%TD*%
M02*
