%TF.GenerationSoftware,KiCad,Pcbnew,7.0.11+dfsg-1build4*%
%TF.CreationDate,2026-06-05T22:06:30+02:00*%
%TF.ProjectId,Kicad_esp_maitre_salle_blanche,4b696361-645f-4657-9370-5f6d61697472,rev?*%
%TF.SameCoordinates,Original*%
%TF.FileFunction,Legend,Top*%
%TF.FilePolarity,Positive*%
%FSLAX46Y46*%
G04 Gerber Fmt 4.6, Leading zero omitted, Abs format (unit mm)*
G04 Created by KiCad (PCBNEW 7.0.11+dfsg-1build4) date 2026-06-05 22:06:30*
%MOMM*%
%LPD*%
G01*
G04 APERTURE LIST*
%ADD10C,0.150000*%
%ADD11C,0.120000*%
%ADD12C,0.250000*%
%ADD13C,0.152400*%
G04 APERTURE END LIST*
D10*
X159759819Y-88933333D02*
X160474104Y-88933333D01*
X160474104Y-88933333D02*
X160616961Y-88980952D01*
X160616961Y-88980952D02*
X160712200Y-89076190D01*
X160712200Y-89076190D02*
X160759819Y-89219047D01*
X160759819Y-89219047D02*
X160759819Y-89314285D01*
X160759819Y-87933333D02*
X160759819Y-88504761D01*
X160759819Y-88219047D02*
X159759819Y-88219047D01*
X159759819Y-88219047D02*
X159902676Y-88314285D01*
X159902676Y-88314285D02*
X159997914Y-88409523D01*
X159997914Y-88409523D02*
X160045533Y-88504761D01*
X163206666Y-83384819D02*
X163206666Y-84099104D01*
X163206666Y-84099104D02*
X163159047Y-84241961D01*
X163159047Y-84241961D02*
X163063809Y-84337200D01*
X163063809Y-84337200D02*
X162920952Y-84384819D01*
X162920952Y-84384819D02*
X162825714Y-84384819D01*
X163635238Y-83480057D02*
X163682857Y-83432438D01*
X163682857Y-83432438D02*
X163778095Y-83384819D01*
X163778095Y-83384819D02*
X164016190Y-83384819D01*
X164016190Y-83384819D02*
X164111428Y-83432438D01*
X164111428Y-83432438D02*
X164159047Y-83480057D01*
X164159047Y-83480057D02*
X164206666Y-83575295D01*
X164206666Y-83575295D02*
X164206666Y-83670533D01*
X164206666Y-83670533D02*
X164159047Y-83813390D01*
X164159047Y-83813390D02*
X163587619Y-84384819D01*
X163587619Y-84384819D02*
X164206666Y-84384819D01*
X116518333Y-85259580D02*
X116470714Y-85307200D01*
X116470714Y-85307200D02*
X116327857Y-85354819D01*
X116327857Y-85354819D02*
X116232619Y-85354819D01*
X116232619Y-85354819D02*
X116089762Y-85307200D01*
X116089762Y-85307200D02*
X115994524Y-85211961D01*
X115994524Y-85211961D02*
X115946905Y-85116723D01*
X115946905Y-85116723D02*
X115899286Y-84926247D01*
X115899286Y-84926247D02*
X115899286Y-84783390D01*
X115899286Y-84783390D02*
X115946905Y-84592914D01*
X115946905Y-84592914D02*
X115994524Y-84497676D01*
X115994524Y-84497676D02*
X116089762Y-84402438D01*
X116089762Y-84402438D02*
X116232619Y-84354819D01*
X116232619Y-84354819D02*
X116327857Y-84354819D01*
X116327857Y-84354819D02*
X116470714Y-84402438D01*
X116470714Y-84402438D02*
X116518333Y-84450057D01*
X116899286Y-84450057D02*
X116946905Y-84402438D01*
X116946905Y-84402438D02*
X117042143Y-84354819D01*
X117042143Y-84354819D02*
X117280238Y-84354819D01*
X117280238Y-84354819D02*
X117375476Y-84402438D01*
X117375476Y-84402438D02*
X117423095Y-84450057D01*
X117423095Y-84450057D02*
X117470714Y-84545295D01*
X117470714Y-84545295D02*
X117470714Y-84640533D01*
X117470714Y-84640533D02*
X117423095Y-84783390D01*
X117423095Y-84783390D02*
X116851667Y-85354819D01*
X116851667Y-85354819D02*
X117470714Y-85354819D01*
X116448333Y-92039580D02*
X116400714Y-92087200D01*
X116400714Y-92087200D02*
X116257857Y-92134819D01*
X116257857Y-92134819D02*
X116162619Y-92134819D01*
X116162619Y-92134819D02*
X116019762Y-92087200D01*
X116019762Y-92087200D02*
X115924524Y-91991961D01*
X115924524Y-91991961D02*
X115876905Y-91896723D01*
X115876905Y-91896723D02*
X115829286Y-91706247D01*
X115829286Y-91706247D02*
X115829286Y-91563390D01*
X115829286Y-91563390D02*
X115876905Y-91372914D01*
X115876905Y-91372914D02*
X115924524Y-91277676D01*
X115924524Y-91277676D02*
X116019762Y-91182438D01*
X116019762Y-91182438D02*
X116162619Y-91134819D01*
X116162619Y-91134819D02*
X116257857Y-91134819D01*
X116257857Y-91134819D02*
X116400714Y-91182438D01*
X116400714Y-91182438D02*
X116448333Y-91230057D01*
X117400714Y-92134819D02*
X116829286Y-92134819D01*
X117115000Y-92134819D02*
X117115000Y-91134819D01*
X117115000Y-91134819D02*
X117019762Y-91277676D01*
X117019762Y-91277676D02*
X116924524Y-91372914D01*
X116924524Y-91372914D02*
X116829286Y-91420533D01*
D11*
%TO.C,J1*%
X159305000Y-87270000D02*
X159305000Y-88600000D01*
X157975000Y-87270000D02*
X159305000Y-87270000D01*
X156705000Y-87270000D02*
X146485000Y-87270000D01*
X156705000Y-87270000D02*
X156705000Y-89930000D01*
X146485000Y-87270000D02*
X146485000Y-89930000D01*
X156705000Y-89930000D02*
X146485000Y-89930000D01*
D10*
%TO.C,U2*%
X128795002Y-89784999D02*
X128795002Y-90535001D01*
X125745000Y-89784999D02*
X125745000Y-90535001D01*
X126995000Y-91035000D02*
X127545002Y-91035000D01*
D12*
X128345003Y-87710000D02*
G75*
G03*
X128095001Y-87710000I-125001J0D01*
G01*
X128095001Y-87710000D02*
G75*
G03*
X128345003Y-87710000I125001J0D01*
G01*
D11*
%TO.C,J2*%
X162210000Y-84930000D02*
X163540000Y-84930000D01*
X162210000Y-86260000D02*
X162210000Y-84930000D01*
X162210000Y-87530000D02*
X162210000Y-95210000D01*
X162210000Y-87530000D02*
X164870000Y-87530000D01*
X162210000Y-95210000D02*
X164870000Y-95210000D01*
X164870000Y-87530000D02*
X164870000Y-95210000D01*
%TO.C,C2*%
X115515000Y-87270000D02*
X118125000Y-87270000D01*
X115515000Y-87270000D02*
G75*
G03*
X112775000Y-87270000I-1370000J0D01*
G01*
X112775000Y-87270000D02*
G75*
G03*
X115515000Y-87270000I1370000J0D01*
G01*
%TO.C,C1*%
X115445000Y-94050000D02*
X118055000Y-94050000D01*
X115445000Y-94050000D02*
G75*
G03*
X112705000Y-94050000I-1370000J0D01*
G01*
X112705000Y-94050000D02*
G75*
G03*
X115445000Y-94050000I1370000J0D01*
G01*
D13*
%TO.C,U3*%
X143462400Y-87187600D02*
X143249929Y-87187600D01*
X140830071Y-87187600D02*
X140617600Y-87187600D01*
X140617600Y-87187600D02*
X140617600Y-90032400D01*
X143462400Y-90032400D02*
X143462400Y-87187600D01*
X143249929Y-90032400D02*
X143462400Y-90032400D01*
X140617600Y-90032400D02*
X140830071Y-90032400D01*
X142891789Y-86458874D02*
G75*
G03*
X142688589Y-86458874I-101600J0D01*
G01*
X142688589Y-86458874D02*
G75*
G03*
X142891789Y-86458874I101600J0D01*
G01*
%TD*%
M02*
