%TF.GenerationSoftware,KiCad,Pcbnew,7.0.11+dfsg-1build4*%
%TF.CreationDate,2026-06-05T22:06:30+02:00*%
%TF.ProjectId,Kicad_esp_maitre_salle_blanche,4b696361-645f-4657-9370-5f6d61697472,rev?*%
%TF.SameCoordinates,Original*%
%TF.FileFunction,Soldermask,Bot*%
%TF.FilePolarity,Negative*%
%FSLAX46Y46*%
G04 Gerber Fmt 4.6, Leading zero omitted, Abs format (unit mm)*
G04 Created by KiCad (PCBNEW 7.0.11+dfsg-1build4) date 2026-06-05 22:06:30*
%MOMM*%
%LPD*%
G01*
G04 APERTURE LIST*
%ADD10R,1.700000X1.700000*%
%ADD11O,1.700000X1.700000*%
%ADD12C,1.600000*%
%ADD13O,1.600000X1.600000*%
%ADD14R,1.524000X1.524000*%
%ADD15C,1.524000*%
G04 APERTURE END LIST*
D10*
%TO.C,J1*%
X157975000Y-88600000D03*
D11*
X155435000Y-88600000D03*
X152895000Y-88600000D03*
X150355000Y-88600000D03*
X147815000Y-88600000D03*
%TD*%
D10*
%TO.C,J2*%
X163540000Y-86260000D03*
D11*
X163540000Y-88800000D03*
X163540000Y-91340000D03*
X163540000Y-93880000D03*
%TD*%
D12*
%TO.C,C2*%
X114145000Y-87270000D03*
D13*
X119225000Y-87270000D03*
%TD*%
D12*
%TO.C,C1*%
X114075000Y-94050000D03*
D13*
X119155000Y-94050000D03*
%TD*%
D14*
%TO.C,U1*%
X119270000Y-57210000D03*
D15*
X121810000Y-57210000D03*
X124350000Y-57210000D03*
X126890000Y-57210000D03*
X129430000Y-57210000D03*
X131970000Y-57210000D03*
X134510000Y-57210000D03*
X137050000Y-57210000D03*
X139590000Y-57210000D03*
X142130000Y-57210000D03*
X144670000Y-57210000D03*
X147210000Y-57210000D03*
X149750000Y-57210000D03*
X152290000Y-57210000D03*
X154830000Y-57210000D03*
X154830000Y-82610000D03*
X152290000Y-82610000D03*
X149750000Y-82610000D03*
X147210000Y-82610000D03*
X144670000Y-82610000D03*
X142130000Y-82610000D03*
X139590000Y-82610000D03*
X137050000Y-82610000D03*
X134510000Y-82610000D03*
X131970000Y-82610000D03*
X129430000Y-82610000D03*
X126890000Y-82610000D03*
X124350000Y-82610000D03*
X121810000Y-82610000D03*
X119270000Y-82610000D03*
%TD*%
M02*
