%TF.GenerationSoftware,KiCad,Pcbnew,7.0.11+dfsg-1build4*%
%TF.CreationDate,2026-06-05T22:06:30+02:00*%
%TF.ProjectId,Kicad_esp_maitre_salle_blanche,4b696361-645f-4657-9370-5f6d61697472,rev?*%
%TF.SameCoordinates,Original*%
%TF.FileFunction,Profile,NP*%
%FSLAX46Y46*%
G04 Gerber Fmt 4.6, Leading zero omitted, Abs format (unit mm)*
G04 Created by KiCad (PCBNEW 7.0.11+dfsg-1build4) date 2026-06-05 22:06:30*
%MOMM*%
%LPD*%
G01*
G04 APERTURE LIST*
%TA.AperFunction,Profile*%
%ADD10C,0.200000*%
%TD*%
%TA.AperFunction,Profile*%
%ADD11C,0.050000*%
%TD*%
G04 APERTURE END LIST*
D10*
X164343103Y-81623103D02*
G75*
G03*
X161116897Y-81623103I-1613103J0D01*
G01*
X161116897Y-81623103D02*
G75*
G03*
X164343103Y-81623103I1613103J0D01*
G01*
X116853103Y-81616897D02*
G75*
G03*
X113626897Y-81616897I-1613103J0D01*
G01*
X113626897Y-81616897D02*
G75*
G03*
X116853103Y-81616897I1613103J0D01*
G01*
X164330000Y-58180000D02*
G75*
G03*
X161103794Y-58180000I-1613103J0D01*
G01*
X161103794Y-58180000D02*
G75*
G03*
X164330000Y-58180000I1613103J0D01*
G01*
D11*
X109760000Y-52320000D02*
X168120000Y-52320000D01*
X168120000Y-98990000D01*
X109760000Y-98990000D01*
X109760000Y-52320000D01*
D10*
X116850000Y-58200000D02*
G75*
G03*
X113623794Y-58200000I-1613103J0D01*
G01*
X113623794Y-58200000D02*
G75*
G03*
X116850000Y-58200000I1613103J0D01*
G01*
G36*
X166857404Y-53109199D02*
G01*
X166924313Y-53129321D01*
X166969722Y-53182422D01*
X166980593Y-53232596D01*
X167199397Y-98415400D01*
X167180037Y-98482534D01*
X167127455Y-98528544D01*
X167075398Y-98540000D01*
X110464000Y-98540000D01*
X110396961Y-98520315D01*
X110351206Y-98467511D01*
X110340000Y-98416000D01*
X110340000Y-81743654D01*
X113629383Y-81743654D01*
X113669042Y-81994051D01*
X113747384Y-82235163D01*
X113862477Y-82461044D01*
X114011492Y-82666145D01*
X114190751Y-82845404D01*
X114395852Y-82994419D01*
X114621733Y-83109512D01*
X114862845Y-83187854D01*
X115113243Y-83227514D01*
X115366757Y-83227514D01*
X115617154Y-83187854D01*
X115858266Y-83109512D01*
X116084147Y-82994419D01*
X116289248Y-82845404D01*
X116468507Y-82666145D01*
X116617522Y-82461044D01*
X116732615Y-82235163D01*
X116810958Y-81994051D01*
X116849633Y-81749860D01*
X161119383Y-81749860D01*
X161159042Y-82000257D01*
X161237384Y-82241369D01*
X161352477Y-82467250D01*
X161501492Y-82672351D01*
X161680751Y-82851610D01*
X161885852Y-83000625D01*
X162111733Y-83115718D01*
X162352845Y-83194060D01*
X162603243Y-83233720D01*
X162856757Y-83233720D01*
X163107154Y-83194060D01*
X163348266Y-83115718D01*
X163574147Y-83000625D01*
X163779248Y-82851610D01*
X163958507Y-82672351D01*
X164107522Y-82467250D01*
X164222615Y-82241369D01*
X164300958Y-82000257D01*
X164340617Y-81749856D01*
X164343103Y-81623103D01*
X164340617Y-81496349D01*
X164300958Y-81245948D01*
X164222615Y-81004836D01*
X164107522Y-80778955D01*
X163958507Y-80573854D01*
X163779248Y-80394595D01*
X163574147Y-80245580D01*
X163348266Y-80130487D01*
X163107154Y-80052145D01*
X162856757Y-80012486D01*
X162603243Y-80012486D01*
X162352845Y-80052145D01*
X162111733Y-80130487D01*
X161885852Y-80245580D01*
X161680751Y-80394595D01*
X161501492Y-80573854D01*
X161352477Y-80778955D01*
X161237384Y-81004836D01*
X161159042Y-81245948D01*
X161119383Y-81496345D01*
X161119383Y-81749860D01*
X116849633Y-81749860D01*
X116850617Y-81743650D01*
X116853103Y-81616897D01*
X116850617Y-81490143D01*
X116810958Y-81239742D01*
X116732615Y-80998630D01*
X116617522Y-80772749D01*
X116468507Y-80567648D01*
X116289248Y-80388389D01*
X116084147Y-80239374D01*
X115858266Y-80124281D01*
X115617154Y-80045939D01*
X115366757Y-80006280D01*
X115113243Y-80006280D01*
X114862845Y-80045939D01*
X114621733Y-80124281D01*
X114395852Y-80239374D01*
X114190751Y-80388389D01*
X114011492Y-80567648D01*
X113862477Y-80772749D01*
X113747384Y-80998630D01*
X113669042Y-81239742D01*
X113629383Y-81490139D01*
X113629383Y-81743654D01*
X110340000Y-81743654D01*
X110340000Y-58326757D01*
X113626280Y-58326757D01*
X113665939Y-58577154D01*
X113744281Y-58818266D01*
X113859374Y-59044147D01*
X114008389Y-59249248D01*
X114187648Y-59428507D01*
X114392749Y-59577522D01*
X114618630Y-59692615D01*
X114859742Y-59770957D01*
X115110140Y-59810617D01*
X115363654Y-59810617D01*
X115614051Y-59770957D01*
X115855163Y-59692615D01*
X116081044Y-59577522D01*
X116286145Y-59428507D01*
X116465404Y-59249248D01*
X116614419Y-59044147D01*
X116729512Y-58818266D01*
X116807855Y-58577154D01*
X116847514Y-58326753D01*
X116847906Y-58306757D01*
X161106280Y-58306757D01*
X161145939Y-58557154D01*
X161224281Y-58798266D01*
X161339374Y-59024147D01*
X161488389Y-59229248D01*
X161667648Y-59408507D01*
X161872749Y-59557522D01*
X162098630Y-59672615D01*
X162339742Y-59750957D01*
X162590140Y-59790617D01*
X162843654Y-59790617D01*
X163094051Y-59750957D01*
X163335163Y-59672615D01*
X163561044Y-59557522D01*
X163766145Y-59408507D01*
X163945404Y-59229248D01*
X164094419Y-59024147D01*
X164209512Y-58798266D01*
X164287855Y-58557154D01*
X164327514Y-58306753D01*
X164330000Y-58180000D01*
X164327514Y-58053246D01*
X164287855Y-57802845D01*
X164209512Y-57561733D01*
X164094419Y-57335852D01*
X163945404Y-57130751D01*
X163766145Y-56951492D01*
X163561044Y-56802477D01*
X163335163Y-56687384D01*
X163094051Y-56609042D01*
X162843654Y-56569383D01*
X162590140Y-56569383D01*
X162339742Y-56609042D01*
X162098630Y-56687384D01*
X161872749Y-56802477D01*
X161667648Y-56951492D01*
X161488389Y-57130751D01*
X161339374Y-57335852D01*
X161224281Y-57561733D01*
X161145939Y-57802845D01*
X161106280Y-58053242D01*
X161106280Y-58306757D01*
X116847906Y-58306757D01*
X116850000Y-58200000D01*
X116847514Y-58073246D01*
X116807855Y-57822845D01*
X116729512Y-57581733D01*
X116614419Y-57355852D01*
X116465404Y-57150751D01*
X116286145Y-56971492D01*
X116081044Y-56822477D01*
X115855163Y-56707384D01*
X115614051Y-56629042D01*
X115363654Y-56589383D01*
X115110140Y-56589383D01*
X114859742Y-56629042D01*
X114618630Y-56707384D01*
X114392749Y-56822477D01*
X114187648Y-56971492D01*
X114008389Y-57150751D01*
X113859374Y-57355852D01*
X113744281Y-57581733D01*
X113665939Y-57822845D01*
X113626280Y-58073242D01*
X113626280Y-58326757D01*
X110340000Y-58326757D01*
X110340000Y-52864812D01*
X110359685Y-52797773D01*
X110412489Y-52752018D01*
X110464810Y-52740815D01*
X166857404Y-53109199D01*
G37*
M02*
