M48
; DRILL file {KiCad 7.0.11+dfsg-1build4} date ven. 05 juin 2026 22:06:24
; FORMAT={-:-/ absolute / inch / decimal}
; #@! TF.CreationDate,2026-06-05T22:06:24+02:00
; #@! TF.GenerationSoftware,Kicad,Pcbnew,7.0.11+dfsg-1build4
; #@! TF.FileFunction,Plated,1,2,PTH
FMAT,2
INCH
; #@! TA.AperFunction,Plated,PTH,ViaDrill
T1C0.0118
; #@! TA.AperFunction,Plated,PTH,ComponentDrill
T2C0.0300
; #@! TA.AperFunction,Plated,PTH,ComponentDrill
T3C0.0315
; #@! TA.AperFunction,Plated,PTH,ComponentDrill
T4C0.0394
%
G90
G05
T1
X4.7524Y-3.539
X5.3213Y-3.5346
X5.7063Y-3.5315
T2
X4.6957Y-2.2524
X4.6957Y-3.2524
X4.7957Y-2.2524
X4.7957Y-3.2524
X4.8957Y-2.2524
X4.8957Y-3.2524
X4.9957Y-2.2524
X4.9957Y-3.2524
X5.0957Y-2.2524
X5.0957Y-3.2524
X5.1957Y-2.2524
X5.1957Y-3.2524
X5.2957Y-2.2524
X5.2957Y-3.2524
X5.3957Y-2.2524
X5.3957Y-3.2524
X5.4957Y-2.2524
X5.4957Y-3.2524
X5.5957Y-2.2524
X5.5957Y-3.2524
X5.6957Y-2.2524
X5.6957Y-3.2524
X5.7957Y-2.2524
X5.7957Y-3.2524
X5.8957Y-2.2524
X5.8957Y-3.2524
X5.9957Y-2.2524
X5.9957Y-3.2524
X6.0957Y-2.2524
X6.0957Y-3.2524
T3
X4.4911Y-3.7028
X4.4939Y-3.4358
X4.6911Y-3.7028
X4.6939Y-3.4358
T4
X5.8195Y-3.4882
X5.9195Y-3.4882
X6.0195Y-3.4882
X6.1195Y-3.4882
X6.2195Y-3.4882
X6.4386Y-3.3961
X6.4386Y-3.4961
X6.4386Y-3.5961
X6.4386Y-3.6961
M30
